<?xml version="1.0" encoding="utf-8"?>
<!-- Generator: Adobe Illustrator 25.2.3, SVG Export Plug-In . SVG Version: 6.00 Build 0)  -->
<svg version="1.1" id="Layer_1" xmlns="http://www.w3.org/2000/svg" xmlns:xlink="http://www.w3.org/1999/xlink" x="0px" y="0px"
	 viewBox="0 0 500 500" style="enable-background:new 0 0 500 500;" xml:space="preserve">
<style type="text/css">
	.st0{fill:#1D7588;stroke:#1D7588;stroke-miterlimit:10;}
	.st1{fill:#1D7588;stroke:#1D7588;stroke-linecap:round;stroke-miterlimit:10;}
	.st2{fill:#1D7588;stroke:#1D7588;stroke-width:3;stroke-linecap:round;stroke-miterlimit:10;}
	.st3{fill:#1D7588;}
</style>
<g>
	<path class="st0" d="M244.84,248.12c-2.36,2.13-4.89,4.06-7.58,5.75l-2.05,1.22l-2.11,1.12l-0.53,0.28l-0.54,0.25l-1.09,0.5
		c-0.36,0.16-0.73,0.33-1.09,0.49l-1.09,0.45c-5.91,2.42-12.2,3.8-18.54,4.53c-6.33,0.73-12.72,0.76-19.08,0.47
		c-3.18-0.15-6.35-0.39-9.5-0.65l-4.72-0.38c-1.57-0.11-3.14-0.22-4.67-0.24c-1.54-0.01-3.11,0.1-4.69,0.16l-4.75,0.18l-9.49,0.31
		c-6.33,0.18-12.67,0.33-19,0.41c-3.17,0.04-6.34,0.07-9.51,0.07c-3.17,0-6.35-0.02-9.56-0.15c-0.8-0.04-1.61-0.08-2.44-0.15
		l-0.64-0.07l-0.32-0.04l-0.36-0.06l-0.36-0.07c-0.17-0.05-0.36-0.11-0.54-0.17l-0.28-0.11l-0.07-0.03l-0.11-0.03
		c-0.69-0.21-1.4-0.38-2.11-0.51c-0.75-0.15-1.51-0.28-2.28-0.41c-3.07-0.49-6.2-0.88-9.32-1.2c-3.12-0.32-6.25-0.57-9.37-0.73
		c-1.56-0.08-3.12-0.13-4.67-0.15c-1.55-0.02-3.09,0-4.57,0.13c-0.36,0.03-0.73,0.07-1.09,0.12l-1.24,0.15
		c-0.42,0.05-0.84,0.08-1.26,0.1c-0.43,0.03-0.84,0.06-1.27,0.05c-1.72,0.03-3.43-0.13-5.11-0.49c-3.43-0.71-6.61-2.3-9.23-4.62
		c-0.64-0.58-1.25-1.19-1.82-1.85c-0.3-0.32-0.56-0.66-0.83-1l-0.4-0.51c-0.13-0.18-0.25-0.36-0.38-0.57
		c-1.06-1.55-1.75-3.32-2.03-5.18c-0.25-1.83-0.13-3.69,0.34-5.47c0.44-1.69,1.1-3.32,1.96-4.85c0.2-0.36,0.42-0.73,0.63-1.09
		l0.33-0.54l0.08-0.13c0.03-0.03,0.05-0.07,0.07-0.11l0.09-0.17c0.26-0.48,0.41-1.01,0.46-1.55c0.09-0.66,0.15-1.49,0.24-2.3
		c0.09-0.81,0.2-1.66,0.36-2.48c0.6-3.23,1.46-6.4,2.59-9.48c0.53-1.53,1.12-3.02,1.69-4.52c0.58-1.5,1.21-3,1.9-4.47
		c1.34-2.95,2.83-5.82,4.47-8.62c3.31-5.55,7.1-10.8,11.31-15.7c4.2-4.89,8.77-9.46,13.66-13.66c2.45-2.1,4.98-4.11,7.63-5.99
		c1.32-0.94,2.68-1.85,4.07-2.72c1.42-0.9,2.89-1.71,4.41-2.42c0.41-0.18,0.8-0.36,1.24-0.52c0.22-0.08,0.44-0.16,0.65-0.24
		l0.63-0.19c0.43-0.14,0.84-0.24,1.25-0.34c0.41-0.11,0.82-0.2,1.23-0.28c1.64-0.36,3.25-0.61,4.86-0.83
		c3.21-0.43,6.4-0.73,9.58-0.96c6.36-0.48,12.7-0.75,18.98-1.15c1.57-0.1,3.13-0.21,4.67-0.36c0.77-0.07,1.53-0.15,2.28-0.24
		c0.74-0.09,1.45-0.21,2.11-0.36l0.43-0.11l0.53-0.16l1.09-0.36c0.73-0.24,1.46-0.49,2.21-0.75c1.45-0.51,2.94-1.05,4.4-1.6
		c5.86-2.21,11.63-4.65,17.2-7.4c2.77-1.4,5.51-2.85,8.09-4.48c1.3-0.8,2.54-1.66,3.73-2.54c1.16-0.85,2.24-1.81,3.24-2.85
		c0.25-0.25,0.44-0.51,0.67-0.76l0.8-0.96c0.28-0.35,0.57-0.64,0.85-0.96c0.28-0.32,0.58-0.62,0.87-0.91
		c1.16-1.2,2.37-2.3,3.58-3.38c2.44-2.15,4.95-4.17,7.52-6.1c10.27-7.68,21.24-14.38,32.77-19.99c2.88-1.41,5.82-2.72,8.78-3.95
		c2.96-1.24,5.98-2.38,9.03-3.4c1.52-0.53,3.07-0.99,4.62-1.45c1.54-0.47,3.11-0.87,4.7-1.23c3.14-0.73,6.27-1.38,9.45-1.92
		c6.36-1.11,12.81-1.65,19.26-1.59c3.26,0.04,6.51,0.32,9.73,0.85c3.26,0.52,6.45,1.41,9.51,2.65c1.55,0.63,3.04,1.39,4.46,2.25
		c1.44,0.86,2.8,1.86,4.06,2.98c2.53,2.24,4.58,4.95,6.04,8c1.41,2.96,2.45,6.08,3.1,9.3c0.67,3.17,1.04,6.39,1.13,9.63
		c0.18,6.44-0.69,12.96-3.06,18.98c-1.15,3.01-2.75,5.83-4.75,8.36c-2,2.52-4.45,4.64-7.24,6.25c-0.09,0.05-0.2,0.02-0.25-0.07
		c-0.05-0.08-0.02-0.19,0.06-0.24l0,0c2.61-1.73,4.88-3.93,6.69-6.49c1.79-2.55,3.19-5.35,4.17-8.3c0.99-2.95,1.64-5.99,1.96-9.09
		c0.67-6.18,0.25-12.42-1.25-18.45c-0.36-1.49-0.84-2.96-1.34-4.4c-0.52-1.43-1.12-2.82-1.82-4.17c-1.37-2.64-3.25-4.98-5.54-6.88
		c-1.14-0.96-2.36-1.8-3.66-2.52c-1.3-0.74-2.66-1.37-4.06-1.89c-2.84-1.06-5.79-1.81-8.8-2.22c-3.04-0.42-6.11-0.62-9.18-0.59
		c-6.18,0.03-12.36,0.81-18.48,1.93c-3.06,0.57-6.13,1.24-9.13,2c-1.5,0.36-2.98,0.81-4.47,1.25c-1.49,0.43-2.95,0.93-4.42,1.45
		c-2.93,1.02-5.83,2.15-8.69,3.39c-1.44,0.6-2.85,1.26-4.27,1.9s-2.82,1.33-4.22,2.03c-2.8,1.38-5.57,2.83-8.3,4.36
		c-2.73,1.52-5.45,3.1-8.09,4.75c-5.33,3.27-10.54,6.78-15.49,10.54c-2.48,1.88-4.91,3.83-7.23,5.86c-1.14,1.02-2.28,2.06-3.32,3.13
		c-0.27,0.27-0.53,0.53-0.77,0.81c-0.24,0.27-0.51,0.54-0.73,0.81l-0.73,0.86c-0.3,0.35-0.59,0.73-0.9,1.03
		c-1.19,1.25-2.49,2.39-3.88,3.41c-1.34,1.01-2.71,1.94-4.1,2.8c-2.78,1.74-5.64,3.25-8.53,4.69c-5.78,2.85-11.68,5.32-17.67,7.57
		c-1.5,0.56-3,1.1-4.52,1.63c-0.76,0.26-1.52,0.52-2.29,0.77l-1.17,0.36l-0.6,0.18l-0.73,0.19c-0.91,0.19-1.76,0.32-2.58,0.42
		c-0.82,0.1-1.64,0.19-2.44,0.25c-1.61,0.15-3.21,0.26-4.8,0.36c-6.36,0.39-12.66,0.65-18.93,1.09c-3.13,0.23-6.24,0.5-9.31,0.89
		c-1.53,0.2-3.05,0.43-4.51,0.73c-0.36,0.08-0.73,0.15-1.09,0.24c-0.36,0.09-0.73,0.17-1.04,0.28l-0.5,0.15l-0.47,0.17
		c-0.31,0.1-0.63,0.25-0.95,0.39c-1.35,0.63-2.65,1.34-3.91,2.13c-1.3,0.79-2.58,1.64-3.84,2.54c-2.52,1.77-4.97,3.68-7.33,5.68
		c-4.74,4.02-9.17,8.39-13.25,13.08c-4.07,4.68-7.73,9.7-10.95,15.01c-1.58,2.67-3.04,5.39-4.36,8.18
		c-0.66,1.39-1.25,2.82-1.85,4.25s-1.17,2.91-1.68,4.36c-1.08,2.85-1.92,5.79-2.51,8.78c-0.14,0.73-0.24,1.45-0.33,2.22
		c-0.09,0.76-0.15,1.51-0.28,2.42c-0.02,0.21-0.08,0.47-0.12,0.71c-0.05,0.25-0.11,0.51-0.19,0.75c-0.07,0.26-0.17,0.52-0.28,0.76
		c-0.05,0.13-0.11,0.25-0.16,0.36l-0.2,0.36l-0.2,0.36l-0.09,0.14l-0.08,0.12l-0.29,0.47c-0.19,0.32-0.39,0.63-0.56,0.95
		c-1.44,2.53-2.28,5.29-1.94,7.84c0.18,1.29,0.64,2.52,1.37,3.59c0.09,0.14,0.17,0.28,0.27,0.42l0.33,0.43
		c0.22,0.28,0.43,0.57,0.68,0.84c0.47,0.54,0.97,1.05,1.49,1.54c2.12,1.92,4.7,3.25,7.49,3.85c1.42,0.3,2.88,0.44,4.33,0.41
		c0.36,0,0.73,0,1.09-0.03c0.36-0.03,0.73-0.03,1.09-0.08l1.12-0.12c0.43-0.05,0.86-0.1,1.27-0.13c1.68-0.12,3.3-0.12,4.92-0.09
		c1.62,0.03,3.22,0.12,4.82,0.22c3.19,0.21,6.37,0.52,9.54,0.89c3.17,0.37,6.33,0.81,9.49,1.37c0.79,0.14,1.58,0.29,2.38,0.46
		c0.84,0.17,1.67,0.39,2.49,0.65l0.17,0.06l0.21,0.09l0.21,0.09c0.1,0.05,0.04,0,0.07,0.02h0.03l0.23,0.02l0.23,0.04l0.27,0.03
		l0.54,0.07c0.75,0.07,1.52,0.13,2.29,0.17c3.11,0.17,6.27,0.24,9.42,0.28c3.15,0.05,6.31,0.07,9.47,0.07
		c6.32,0,12.64-0.03,18.97,0.04h9.49l4.72-0.35c1.58-0.02,3.13-0.11,4.8-0.07c1.67,0.04,3.22,0.19,4.8,0.33l4.72,0.47
		c3.14,0.32,6.28,0.61,9.42,0.84c6.27,0.49,12.57,0.48,18.84-0.04c6.25-0.59,12.47-1.8,18.35-4l1.09-0.41
		c0.36-0.15,0.73-0.31,1.09-0.46l1.09-0.47l0.54-0.23l0.53-0.26l2.11-1.04l2.06-1.16c2.71-1.61,5.27-3.45,7.66-5.51l0,0
		c0.08-0.06,0.19-0.05,0.26,0.03c0.06,0.07,0.05,0.18-0.02,0.24L244.84,248.12z"/>
	<path class="st0" d="M178.26,234.29c1.62-1.67,3.2-3.38,4.77-5.09l4.72-5.13c1.59-1.7,3.22-3.38,4.89-5.01
		c1.68-1.63,3.41-3.21,5.24-4.69c1.84-1.5,3.81-2.83,5.9-3.97c1.06-0.57,2.17-1.06,3.31-1.45c1.16-0.39,2.36-0.66,3.58-0.8
		c1.24-0.12,2.49-0.08,3.72,0.14l0.93,0.21c0.3,0.08,0.59,0.2,0.89,0.3l0.44,0.16l0.42,0.19c0.28,0.13,0.57,0.25,0.84,0.4
		c2.12,1.17,4.07,2.62,5.8,4.31c1.71,1.64,3.31,3.39,4.8,5.23c1.5,1.82,2.91,3.71,4.24,5.63c2.69,3.84,5.19,7.79,7.6,11.78
		c1.22,1.98,2.4,4,3.63,5.91c0.31,0.48,0.63,0.96,0.96,1.41l1.04,1.4c0.71,0.97,1.35,1.98,1.92,3.03c0.59,1.07,1.04,2.2,1.34,3.39
		c0.3,1.2,0.39,2.44,0.24,3.67c-0.17,1.2-0.55,2.37-1.12,3.45l-0.43,0.79l-0.5,0.73c-0.16,0.25-0.34,0.5-0.53,0.73l-0.55,0.69
		l0.04-0.09l0,0c-0.01,1.66,0.14,3.33,0.45,4.96c0.3,1.64,0.69,3.26,1.17,4.85c0.94,3.19,2.2,6.28,3.75,9.22
		c1.59,2.91,3.5,5.66,6.02,7.76c1.24,1.05,2.68,1.86,4.22,2.38c1.57,0.5,3.24,0.6,4.86,0.31c0.1-0.02,0.2,0.04,0.22,0.14
		c0.02,0.1-0.04,0.2-0.14,0.22c-1.68,0.46-3.45,0.49-5.14,0.06c-1.69-0.44-3.28-1.23-4.65-2.31c-1.36-1.07-2.57-2.3-3.62-3.67
		c-1.06-1.35-2-2.79-2.82-4.3c-0.82-1.5-1.54-3.05-2.16-4.65c-0.62-1.59-1.15-3.21-1.58-4.86c-0.43-1.65-0.74-3.33-0.94-5.03
		c-0.21-1.7-0.21-3.42,0.02-5.12l0,0v-0.03l0.04-0.06l0.47-0.73c0.16-0.23,0.3-0.48,0.44-0.73l0.4-0.76l0.34-0.78
		c0.43-1.03,0.69-2.12,0.77-3.23c0.1-2.21-0.67-4.34-1.85-6.24c-0.58-0.97-1.24-1.89-1.95-2.77c-0.36-0.45-0.73-0.86-1.09-1.36
		c-0.36-0.49-0.73-0.96-1.06-1.45c-1.35-1.93-2.61-3.89-3.86-5.86c-2.52-3.91-4.98-7.84-7.65-11.61c-2.67-3.77-5.45-7.46-8.7-10.64
		c-1.58-1.59-3.35-2.97-5.28-4.12c-0.24-0.13-0.49-0.24-0.73-0.36l-0.36-0.18l-0.36-0.14c-0.25-0.09-0.5-0.2-0.75-0.27l-0.77-0.2
		c-1.06-0.21-2.15-0.28-3.23-0.2c-1.1,0.1-2.18,0.31-3.23,0.64c-1.07,0.34-2.11,0.77-3.11,1.28c-2.03,1.04-3.96,2.28-5.76,3.68
		c-3.66,2.79-6.99,6.04-10.29,9.3l-4.92,4.95c-1.65,1.64-3.31,3.27-5.01,4.87c-0.07,0.07-0.18,0.07-0.25,0c0,0,0,0,0,0
		C178.22,234.49,178.2,234.38,178.26,234.29C178.26,234.29,178.26,234.29,178.26,234.29z"/>
	<path class="st0" d="M251.34,260.9c-0.12,0.9-0.16,1.81-0.1,2.71c0.07,0.9,0.21,1.8,0.41,2.68c0.43,1.77,1.04,3.49,1.82,5.13
		c0.39,0.83,0.8,1.64,1.25,2.43c0.44,0.8,0.93,1.57,1.4,2.38c0.94,1.62,1.74,3.3,2.7,4.82c0.92,1.53,2.11,2.89,3.52,4
		c0.71,0.56,1.45,1.04,2.23,1.58c0.77,0.54,1.52,1.09,2.26,1.66c1.45,1.13,2.88,2.33,4.39,3.34c0.74,0.51,1.53,0.93,2.37,1.25
		c0.83,0.31,1.73,0.4,2.61,0.25l0,0c0.1-0.02,0.2,0.05,0.22,0.15c0.02,0.1-0.05,0.2-0.15,0.22l0,0l-0.73,0.14
		c-0.24,0.03-0.48,0.03-0.73,0.04s-0.48-0.05-0.73-0.07c-0.25-0.02-0.47-0.11-0.71-0.16c-0.91-0.28-1.79-0.66-2.61-1.15
		c-1.62-0.97-3.1-2.1-4.59-3.18c-0.73-0.54-1.5-1.06-2.26-1.56c-0.76-0.5-1.58-1-2.33-1.58c-0.76-0.59-1.46-1.24-2.11-1.95
		c-0.63-0.72-1.21-1.49-1.72-2.3c-1-1.62-1.79-3.27-2.69-4.88c-0.44-0.79-0.93-1.6-1.36-2.43c-0.23-0.41-0.43-0.84-0.64-1.26
		s-0.4-0.85-0.57-1.28c-0.75-1.74-1.29-3.55-1.62-5.42c-0.15-0.93-0.23-1.87-0.24-2.82c0-0.94,0.11-1.89,0.33-2.81
		c0.02-0.1,0.12-0.16,0.22-0.13c0.09,0.02,0.15,0.11,0.14,0.2L251.34,260.9z"/>
	<path class="st0" d="M256.14,264.44c1.11,1.31,2.35,2.5,3.71,3.56c0.33,0.27,0.68,0.53,1.01,0.79c0.34,0.27,0.69,0.51,1.04,0.76
		l2.12,1.53c0.73,0.52,1.41,1.07,2.09,1.68l0.5,0.48c0.16,0.16,0.31,0.36,0.47,0.53c0.16,0.19,0.3,0.38,0.43,0.59
		c0.15,0.21,0.24,0.36,0.36,0.57c0.82,1.47,1.84,2.82,3.04,4c1.25,1.12,2.66,2.06,4.18,2.77l1.17,0.58c0.4,0.19,0.78,0.4,1.17,0.61
		c0.77,0.42,1.54,0.84,2.3,1.26c1.49,0.87,3.02,1.66,4.6,2.34c0.79,0.31,1.6,0.55,2.44,0.73c0.84,0.16,1.69,0.2,2.54,0.13l0,0
		c0.1-0.01,0.19,0.07,0.2,0.17c0,0,0,0,0,0c0.01,0.09-0.06,0.18-0.15,0.19c-0.88,0.16-1.78,0.19-2.67,0.09
		c-0.89-0.12-1.76-0.32-2.61-0.6c-1.66-0.59-3.29-1.31-4.85-2.13l-2.33-1.17c-0.39-0.18-0.77-0.36-1.17-0.55l-1.19-0.54
		c-1.66-0.74-3.2-1.72-4.56-2.91c-1.38-1.22-2.4-2.78-3.31-4.26c-0.21-0.35-0.44-0.68-0.69-0.99c-0.13-0.15-0.26-0.3-0.4-0.45
		l-0.43-0.44c-0.61-0.56-1.28-1.09-1.96-1.62s-1.37-1.07-2.06-1.62s-1.36-1.13-2-1.75c-1.3-1.21-2.42-2.61-3.31-4.15
		c-0.04-0.09,0-0.2,0.09-0.25c0.07-0.03,0.16-0.02,0.21,0.04L256.14,264.44z"/>
	<path class="st0" d="M259.82,258.7c1.02,1.34,2.41,2.36,3.82,3.3s2.91,1.77,4.42,2.6l4.56,2.44c1.52,0.82,3.04,1.67,4.52,2.62
		l1.09,0.73l1.04,0.67l1.09,0.61l1.13,0.55c1.55,0.69,3.14,1.29,4.75,1.82c1.62,0.56,3.27,1.06,4.9,1.64
		c1.63,0.58,3.31,1.18,4.72,2.27c0.08,0.06,0.1,0.17,0.04,0.25c-0.05,0.08-0.16,0.1-0.24,0.05l0,0c-1.47-0.81-3.14-1.23-4.79-1.67
		c-1.65-0.44-3.34-0.85-5.01-1.33c-1.69-0.47-3.34-1.06-4.95-1.75l-1.2-0.57l-1.17-0.64l-1.13-0.73l-1.05-0.73
		c-2.85-1.84-5.91-3.45-8.88-5.25c-1.5-0.89-2.95-1.86-4.34-2.91l-0.52-0.4l-0.5-0.41c-0.17-0.14-0.34-0.28-0.5-0.43l-0.47-0.47
		c-0.63-0.62-1.18-1.32-1.64-2.08c-0.05-0.09-0.03-0.2,0.06-0.25c0,0,0,0,0,0C259.65,258.6,259.75,258.62,259.82,258.7L259.82,258.7
		z"/>
	<path class="st0" d="M101.2,166.84c0.15-0.54,0.25-1.09,0.31-1.64c0.04-0.56,0.02-1.12-0.05-1.68c-0.17-1.12-0.45-2.21-0.85-3.27
		L99.49,157c-0.46-1.02-1.01-2-1.64-2.93c-1.25-1.92-2.6-3.79-3.89-5.73c-0.66-0.98-1.26-1.99-1.82-3.03
		c-0.32-0.58-0.55-1.2-0.67-1.85c-0.04-0.23-0.04-0.46,0-0.68c0.07-0.33,0.26-0.61,0.53-0.81c0.23-0.15,0.5-0.24,0.78-0.25
		c0.1-0.01,0.21-0.01,0.31,0l0.3,0.03c0.66,0.15,1.28,0.4,1.85,0.76c0.52,0.32,1.02,0.66,1.5,1.04c0.94,0.73,1.82,1.5,2.69,2.29
		c1.71,1.59,3.34,3.24,4.97,4.87l4.88,4.87c0.81,0.81,1.63,1.6,2.47,2.36c0.82,0.77,1.73,1.43,2.71,1.98l0,0
		c0.09,0.04,0.13,0.15,0.09,0.24c-0.04,0.08-0.13,0.12-0.21,0.1c-1.17-0.28-2.28-0.78-3.27-1.48c-0.98-0.65-1.92-1.36-2.81-2.13
		c-1.78-1.52-3.42-3.16-5.05-4.8c-1.62-1.65-3.23-3.29-4.9-4.86c-0.84-0.78-1.68-1.55-2.54-2.24c-0.43-0.34-0.87-0.66-1.33-0.96
		c-0.4-0.27-0.85-0.46-1.32-0.59c-0.08,0-0.2-0.04-0.25-0.03c-0.06,0.01-0.09,0.02-0.05,0s0.09-0.11,0.07-0.09
		c-0.01,0.06-0.01,0.12,0,0.17c0.1,0.49,0.27,0.96,0.5,1.4c0.51,1.01,1.07,1.99,1.68,2.94c1.22,1.94,2.51,3.86,3.7,5.87
		c0.63,1.01,1.17,2.07,1.6,3.18l0.96,3.36c0.35,1.13,0.58,2.29,0.7,3.46c0.08,1.19-0.09,2.38-0.5,3.5c-0.03,0.1-0.13,0.16-0.23,0.13
		c-0.1-0.03-0.16-0.13-0.13-0.23L101.2,166.84z"/>
	<path class="st0" d="M152.26,204.52c20.57-31.13,5.75-43.25,0-44.39c-5.75-1.14-8.97,1.15-16.56,6.76
		c-7.59,5.61-5.98,21.76-0.92,28.66c0,0-1.96-27.6,13.57-24.38c15.52,3.22,1.61,11.15,2.3,14.37c0.69,3.22,5.98,5.52,5.4,7.59
		C156.63,196.24,151.8,205.21,152.26,204.52z"/>
	<path class="st0" d="M90.01,206.07c-1.48,0.68-2.7,1.79-3.52,3.2c-0.83,1.39-1.43,2.92-1.75,4.51c-0.34,1.59-0.48,3.22-0.4,4.84
		c0.03,1.6,0.38,3.17,1.04,4.63c0.7,1.44,1.59,2.78,2.65,3.97c1.03,1.19,2.26,2.2,3.63,2.97c0.67,0.36,1.39,0.62,2.13,0.79
		c0.72,0.16,1.47,0.17,2.2,0.05c0.18-0.02,0.36-0.08,0.53-0.12c0.17-0.04,0.36-0.11,0.53-0.17c0.36-0.15,0.73-0.29,1.09-0.46
		c0.72-0.32,1.42-0.69,2.08-1.12c1.32-0.84,2.49-1.9,3.45-3.13c0.94-1.25,1.65-2.66,2.1-4.16c0.43-1.53,0.68-3.11,0.73-4.7
		c0-0.4,0.03-0.8,0.03-1.2s-0.03-0.78-0.08-1.17c-0.09-0.78-0.27-1.54-0.53-2.28c-1.03-2.96-3.53-5.35-6.51-6.5
		C96.38,204.82,93.02,204.84,90.01,206.07z M89.78,205.71c3.11-1.4,6.64-1.53,9.84-0.36c1.61,0.56,3.09,1.43,4.36,2.58
		c1.29,1.16,2.29,2.6,2.93,4.21c0.61,1.62,0.89,3.34,0.81,5.07c0,1.71-0.22,3.41-0.67,5.06c-0.46,1.67-1.24,3.24-2.28,4.63
		c-1.05,1.38-2.35,2.56-3.83,3.47c-0.73,0.46-1.49,0.86-2.27,1.21c-0.39,0.17-0.79,0.32-1.18,0.48c-0.21,0.07-0.43,0.14-0.65,0.2
		c-0.22,0.06-0.44,0.11-0.67,0.14c-0.9,0.13-1.82,0.1-2.71-0.11c-0.86-0.21-1.69-0.54-2.46-0.99c-1.48-0.88-2.79-2.02-3.88-3.35
		c-1.09-1.3-1.99-2.75-2.67-4.31c-0.17-0.39-0.32-0.8-0.44-1.21c-0.12-0.41-0.21-0.83-0.28-1.25c-0.14-0.84-0.21-1.68-0.21-2.53
		c-0.02-1.68,0.18-3.35,0.59-4.98c0.39-1.63,1.05-3.19,1.96-4.6c0.92-1.43,2.2-2.57,3.73-3.32V205.71z"/>
	<path class="st0" d="M287.45,267.38c-0.04-1.01,0.03-2.02,0.19-3.02c0.14-0.98,0.35-1.94,0.63-2.89c0.13-0.47,0.27-0.94,0.43-1.4
		c0.16-0.46,0.34-0.91,0.52-1.36c0.36-0.9,0.77-1.78,1.23-2.63c1.88-3.39,3.97-6.66,6.26-9.79c4.57-6.29,9.96-11.95,16.03-16.82
		c6.09-4.84,12.96-8.83,20.44-11.31c3.75-1.25,7.63-2.08,11.56-2.48c3.95-0.39,7.93-0.29,11.86,0.28l0.73,0.1l0.73,0.12l1.42,0.25
		l1.42,0.25l1.41,0.29c1.88,0.36,3.75,0.82,5.63,1.27c3.73,0.94,7.43,2.05,11.06,3.36c7.27,2.61,14.29,6.01,20.68,10.48
		c6.39,4.47,12.09,10.02,16.35,16.63c2.16,3.29,3.91,6.83,5.23,10.54c1.31,3.71,2.19,7.55,2.63,11.46c0.05,0.49,0.12,0.97,0.15,1.47
		c0.03,0.51,0.08,1,0.09,1.5l0.03,0.75v0.75c0,0.5,0,0.99-0.03,1.49c-0.09,1.97-0.31,3.94-0.67,5.88
		c-0.72,3.85-1.85,7.61-3.38,11.22c-1.51,3.59-3.34,7.02-5.48,10.27c-2.13,3.26-4.56,6.3-7.27,9.09c-2.71,2.81-5.74,5.3-9.02,7.42
		c-3.31,2.15-6.94,3.76-10.75,4.78c-3.86,1.02-7.9,1.2-11.84,0.52c-3.9-0.72-7.62-2.24-10.9-4.47c-6.38-4.37-11.87-9.92-16.17-16.35
		c-2.15-3.21-3.9-6.67-5.21-10.31c-0.64-1.83-1.13-3.72-1.45-5.63c-0.32-1.93-0.41-3.89-0.28-5.85c0.13-1.98,0.59-3.92,1.36-5.74
		c0.79-1.82,1.92-3.48,3.34-4.87c1.42-1.36,3.05-2.48,4.83-3.31c1.75-0.82,3.59-1.43,5.49-1.82c1.88-0.39,3.78-0.64,5.7-0.73
		c1.9-0.1,3.81-0.1,5.71,0c3.79,0.24,7.55,0.73,11.27,1.49c0.1,0.02,0.16,0.11,0.14,0.21c0,0,0,0,0,0.01
		c-0.02,0.1-0.11,0.16-0.21,0.14c-3.71-0.64-7.47-1.02-11.23-1.14c-1.88-0.05-3.75,0-5.62,0.15c-1.86,0.14-3.71,0.44-5.52,0.88
		c-1.8,0.42-3.55,1.05-5.2,1.87c-1.63,0.82-3.12,1.89-4.41,3.18c-1.25,1.3-2.24,2.83-2.91,4.5c-0.67,1.68-1.05,3.46-1.13,5.27
		c-0.17,3.63,0.61,7.3,1.9,10.74c1.33,3.46,3.07,6.74,5.19,9.77c4.25,6.09,9.63,11.31,15.84,15.4c3.02,1.98,6.42,3.3,9.98,3.9
		c3.55,0.55,7.18,0.34,10.64-0.64c3.49-0.99,6.8-2.53,9.81-4.56c3.05-2.04,5.85-4.41,8.36-7.09c5.04-5.37,9.05-11.62,11.83-18.45
		c1.39-3.38,2.41-6.9,3.03-10.49c0.64-3.55,0.73-7.17,0.28-10.75c-0.44-3.61-1.3-7.15-2.54-10.56c-1.27-3.4-2.94-6.63-4.95-9.65
		c-4-6.07-9.34-11.22-15.37-15.38c-6.04-4.15-12.76-7.37-19.74-9.81c-3.49-1.23-7.05-2.27-10.65-3.16
		c-1.82-0.42-3.63-0.84-5.45-1.18l-1.37-0.27l-1.37-0.24l-1.37-0.24l-0.69-0.12l-0.67-0.09c-7.17-1-14.47-0.29-21.31,2.06
		c-6.87,2.26-13.28,5.99-18.98,10.57c-5.73,4.62-10.82,9.99-15.13,15.96c-2.16,2.98-4.15,6.09-5.95,9.3
		c-0.47,0.8-0.96,1.57-1.45,2.36s-1.04,1.54-1.57,2.32c-1.11,1.6-2.37,3.1-3.75,4.48c-0.08,0.08-0.2,0.08-0.28,0c0,0,0,0,0,0
		C287.48,267.48,287.45,267.43,287.45,267.38z"/>
	<path class="st0" d="M283.36,280.67c-0.27-0.58-0.4-1.22-0.36-1.86c0.03-0.58,0.14-1.16,0.33-1.72c0.18-0.56,0.4-1.11,0.68-1.63
		c0.28-0.55,0.64-1.05,1.07-1.5c0.08-0.08,0.21-0.08,0.29,0c0.03,0.03,0.05,0.07,0.06,0.11c0.1,0.6,0.14,1.21,0.1,1.82
		c-0.03,0.57-0.1,1.14-0.21,1.71c-0.09,0.56-0.25,1.11-0.48,1.64c-0.25,0.58-0.62,1.09-1.09,1.51c-0.09,0.08-0.24,0.07-0.32-0.02
		c0,0,0,0-0.01-0.01C283.4,280.71,283.38,280.69,283.36,280.67z"/>
	<path class="st0" d="M388.55,182.46l3.18,4.47l3.27,4.4l3.37,4.33c1.15,1.42,2.27,2.86,3.43,4.28c2.31,2.84,4.64,5.66,7,8.46
		c2.34,2.81,4.7,5.62,6.99,8.5c2.28,2.88,4.5,5.82,6.54,8.9l0.76,1.17c0.25,0.39,0.51,0.77,0.73,1.17l1.41,2.4
		c0.86,1.64,1.75,3.27,2.46,5l0.56,1.28c0.19,0.43,0.33,0.86,0.51,1.29l0.98,2.59c0.34,0.86,0.61,1.74,0.9,2.62l0.86,2.64l0.75,2.67
		c0.24,0.89,0.51,1.78,0.7,2.68l0.63,2.7l0.15,0.68l0.13,0.68l0.25,1.37c0.68,3.64,1.15,7.32,1.42,11.01
		c0.1,1.85,0.24,3.69,0.25,5.55c0,0.92,0.05,1.85,0.04,2.77l-0.05,2.77c-0.11,3.7-0.36,7.39-0.75,11.05
		c-0.39,3.66-0.88,7.32-1.45,10.96c-0.51,3.69-1.26,7.34-2.25,10.93l-0.83,2.68c-0.31,0.88-0.65,1.76-0.97,2.63
		c-0.32,0.88-0.73,1.73-1.09,2.59l-0.56,1.29l-0.63,1.26c-3.3,6.75-7.93,12.79-13.31,17.99c-5.42,5.17-11.56,9.53-18.23,12.93
		c-6.64,3.44-13.72,5.97-21.03,7.54c-3.66,0.79-7.38,1.31-11.11,1.55c-0.93,0.08-1.88,0.08-2.81,0.13c-0.94,0.04-1.92,0-2.86-0.03
		c-1.88-0.1-3.76-0.31-5.62-0.63c-3.7-0.64-7.35-1.57-10.9-2.78c-3.53-1.2-6.99-2.6-10.36-4.19c-3.37-1.59-6.64-3.34-9.83-5.26
		c-3.19-1.91-6.29-3.97-9.27-6.2c-2.99-2.22-5.85-4.6-8.59-7.12c-2.72-2.54-5.29-5.25-7.69-8.1c-2.42-2.85-4.6-5.89-6.54-9.09
		c-0.96-1.61-1.88-3.23-2.68-4.92c-0.81-1.69-1.54-3.41-2.18-5.17c-0.63-1.76-1.16-3.56-1.58-5.38c-0.41-1.82-0.7-3.67-0.87-5.53
		c-0.3-3.7-0.11-7.42,0.56-11.06c0.02-0.1,0.11-0.17,0.21-0.15c0,0,0,0,0,0c0.09,0.01,0.16,0.1,0.15,0.19
		c-0.19,3.65-0.15,7.3,0.48,10.85c0.3,1.77,0.71,3.52,1.22,5.24c0.53,1.72,1.14,3.41,1.84,5.06s1.5,3.27,2.36,4.83
		c0.86,1.56,1.79,3.11,2.78,4.6c2,2.98,4.2,5.83,6.59,8.51c1.18,1.35,2.43,2.65,3.7,3.93c1.26,1.28,2.59,2.5,3.93,3.7
		c2.67,2.41,5.48,4.67,8.38,6.81c5.8,4.29,12,8.01,18.51,11.12c3.25,1.54,6.59,2.9,10,4.06c3.38,1.17,6.84,2.06,10.36,2.67
		c1.74,0.3,3.49,0.5,5.26,0.59c0.88,0.04,1.74,0.06,2.62,0.03s1.78-0.04,2.67-0.11c3.57-0.23,7.12-0.71,10.62-1.45
		c7.03-1.48,13.84-3.88,20.25-7.13c6.42-3.22,12.34-7.36,17.56-12.28c5.22-4.91,9.55-10.68,12.82-17.06l0.61-1.19l0.55-1.22
		c0.36-0.82,0.76-1.62,1.06-2.46c0.3-0.84,0.65-1.66,0.95-2.5l0.83-2.54c0.99-3.46,1.75-6.98,2.28-10.54
		c0.58-3.6,1.13-7.2,1.53-10.81c0.23-1.82,0.36-3.61,0.54-5.42c0.09-0.9,0.12-1.82,0.18-2.71c0.06-0.9,0.13-1.82,0.14-2.71
		l0.08-2.72c0.03-0.9,0-1.82,0-2.71c0.02-1.82-0.09-3.63-0.16-5.43c-0.21-3.61-0.62-7.21-1.23-10.78l-0.23-1.34l-0.12-0.67
		l-0.14-0.67l-0.57-2.66c-0.17-0.89-0.42-1.76-0.65-2.64l-0.69-2.63l-0.8-2.6c-0.27-0.86-0.52-1.74-0.84-2.59l-0.91-2.57
		c-0.16-0.43-0.29-0.86-0.47-1.28l-0.52-1.25c-0.65-1.68-1.48-3.27-2.29-4.9l-1.32-2.37c-0.21-0.4-0.46-0.78-0.7-1.17l-0.73-1.15
		c-1.94-3.07-4.06-6.03-6.28-8.92c-2.23-2.89-4.51-5.75-6.8-8.61c-2.29-2.86-4.58-5.72-6.83-8.61c-4.51-5.78-8.79-11.73-12.83-17.86
		c-0.05-0.09-0.03-0.2,0.06-0.25c0.08-0.05,0.18-0.03,0.24,0.04L388.55,182.46z"/>
	<path class="st0" d="M365.06,140.97c2.04,2.47,3.93,5.06,5.67,7.76c1.74,2.68,3.37,5.43,4.9,8.24c1.53,2.8,2.96,5.66,4.24,8.59
		c0.65,1.45,1.25,2.91,1.88,4.36c0.62,1.45,1.24,2.93,1.79,4.45l0,0c0.03,0.1-0.01,0.2-0.11,0.24c-0.07,0.03-0.16,0.01-0.21-0.05
		c-2.02-2.5-3.82-5.17-5.39-7.97c-1.6-2.75-3.11-5.54-4.6-8.33s-2.95-5.61-4.38-8.45c-1.43-2.83-2.82-5.7-4.1-8.64
		c-0.04-0.09,0-0.2,0.09-0.24C364.92,140.88,365.01,140.9,365.06,140.97z"/>
	<path class="st0" d="M334.7,107.49c0.77-0.11,1.56-0.07,2.32,0.11c0.75,0.17,1.48,0.41,2.18,0.73c1.39,0.62,2.7,1.38,3.93,2.27
		c2.39,1.75,4.58,3.76,6.54,5.98c1.96,2.17,3.73,4.51,5.28,6.99c0.78,1.23,1.5,2.5,2.16,3.81c0.67,1.31,1.26,2.67,1.74,4.07
		c0.03,0.1-0.02,0.21-0.12,0.24c-0.06,0.02-0.13,0.01-0.18-0.04c-1.16-0.94-2.18-1.97-3.22-2.99c-1.04-1.02-2.01-2.06-2.97-3.12
		c-1.94-2.1-3.77-4.26-5.61-6.38c-1.84-2.13-3.69-4.24-5.61-6.24c-0.97-1-1.94-1.98-2.99-2.87c-1.02-0.93-2.2-1.67-3.48-2.18l0,0
		c-0.1-0.04-0.14-0.14-0.11-0.24C334.57,107.55,334.63,107.5,334.7,107.49z"/>
	<path class="st0" d="M322,156.86c-1.2,0.07-2.4,0.16-3.59,0.29s-2.38,0.3-3.56,0.49c-2.35,0.37-4.65,0.98-6.88,1.8
		c-1.09,0.41-2.14,0.92-3.13,1.54c-0.97,0.58-1.84,1.32-2.58,2.18c-0.71,0.85-1.22,1.84-1.5,2.91c-0.07,0.27-0.1,0.54-0.16,0.81
		c-0.05,0.27-0.07,0.58-0.1,0.87c-0.05,0.58-0.08,1.17-0.09,1.75c-0.02,1.15,0.11,2.31,0.36,3.43c0.23,1.09,0.7,2.12,1.38,3.01
		c0.67,0.85,1.62,1.44,2.67,1.69c1.1,0.22,2.23,0.16,3.3-0.16c0.55-0.16,1.09-0.37,1.61-0.62l0.39-0.18
		c0.13-0.07,0.25-0.15,0.36-0.21l0.36-0.22l0.19-0.11l0.17-0.13c0.95-0.64,1.73-1.5,2.29-2.5c0.55-1.01,0.82-2.15,0.77-3.3
		c-0.02-0.29-0.05-0.57-0.1-0.86l-0.11-0.42l-0.05-0.21l-0.08-0.2l-0.15-0.41c-0.07-0.13-0.13-0.25-0.2-0.39l-0.1-0.19
		c-0.04-0.06-0.08-0.12-0.12-0.18l-0.25-0.36l0,0c-0.05-0.09-0.02-0.2,0.07-0.25c0.07-0.04,0.16-0.03,0.21,0.02
		c0.85,0.94,1.37,2.14,1.49,3.4c0.12,1.27-0.11,2.55-0.67,3.7c-0.56,1.15-1.4,2.15-2.44,2.91l-0.19,0.15l-0.2,0.13l-0.4,0.25
		c-0.13,0.08-0.27,0.17-0.4,0.25l-0.42,0.21c-0.56,0.29-1.14,0.54-1.74,0.73c-1.24,0.42-2.56,0.52-3.85,0.3
		c-0.66-0.13-1.29-0.38-1.87-0.73c-0.57-0.35-1.09-0.79-1.52-1.31c-0.82-1.02-1.4-2.21-1.69-3.49c-0.3-1.23-0.44-2.49-0.43-3.75
		c0-0.63,0.03-1.25,0.08-1.86c0.03-0.31,0.06-0.61,0.1-0.93c0.04-0.32,0.1-0.65,0.18-0.96c0.31-1.28,0.92-2.46,1.77-3.46
		c0.83-0.97,1.81-1.81,2.91-2.46c1.08-0.63,2.21-1.16,3.39-1.57c1.16-0.41,2.35-0.74,3.56-0.98c1.2-0.25,2.41-0.44,3.63-0.57
		c1.21-0.14,2.43-0.21,3.63-0.25s2.43-0.04,3.63,0.03c0.1,0.01,0.18,0.09,0.17,0.19c0,0,0,0,0,0
		C322.16,156.75,322.09,156.84,322,156.86z"/>
	<path class="st0" d="M281.11,260.87c-0.22-0.48-0.41-0.98-0.57-1.49c-0.1-0.24-0.19-0.48-0.27-0.73c-0.04-0.12-0.08-0.24-0.12-0.36
		c-0.04-0.13-0.09-0.23-0.14-0.36c-0.19-0.47-0.31-0.94-0.5-1.41c-0.19-0.47-0.32-0.94-0.51-1.41c-0.77-1.89-1.66-3.73-2.69-5.5
		c-1.01-1.82-2.11-3.58-3.13-5.45c-0.24-0.48-0.51-0.94-0.73-1.45l-0.36-0.73l-0.31-0.79c-0.36-1.03-0.67-2.02-0.99-3.03
		c-1.23-4.02-2.33-8.07-3.31-12.16c-0.48-2.05-0.93-4.11-1.3-6.18c-0.41-2.1-0.65-4.24-0.71-6.38c-0.01-0.56,0.02-1.13,0.09-1.69
		c0.07-0.66,0.29-1.3,0.65-1.86c0.06-0.08,0.12-0.16,0.19-0.23l0.14-0.15l0.28-0.29l0.56-0.56l1.11-1.11l4.47-4.41l8.97-8.78
		c2.99-2.91,5.99-5.84,8.96-8.78c1.49-1.47,2.97-2.95,4.43-4.43c0.73-0.73,1.45-1.48,2.18-2.24c0.36-0.36,0.73-0.76,1.09-1.14
		c0.35-0.36,0.67-0.75,0.96-1.17l0.02-0.03c0.05-0.08,0.15-0.11,0.24-0.06c0,0,0.01,0,0.01,0.01c0.08,0.05,0.11,0.16,0.06,0.24
		c-0.28,0.46-0.61,0.9-0.96,1.3c-0.34,0.4-0.68,0.8-1.03,1.19c-0.69,0.79-1.4,1.56-2.1,2.34c-1.42,1.54-2.85,3.07-4.3,4.58
		c-2.88,3.03-5.77,6.05-8.68,9.06l-8.76,8.99l-4.39,4.48l-1.09,1.12l-0.54,0.56l-0.26,0.28l-0.13,0.14
		c-0.04,0.05-0.04,0.05-0.06,0.08c-0.18,0.34-0.29,0.71-0.32,1.09c-0.05,0.48-0.07,0.97-0.05,1.45c0.1,2.04,0.36,4.07,0.77,6.07
		c0.39,2.03,0.85,4.06,1.34,6.07c1,4.04,2.15,8.04,3.39,12.02c0.31,0.98,0.62,2,0.97,2.94l0.26,0.68l0.32,0.68
		c0.2,0.45,0.46,0.9,0.69,1.35c0.98,1.8,2.09,3.58,3.13,5.42c1.08,1.85,2.03,3.77,2.84,5.75c0.43,1.01,0.72,2.08,0.86,3.17
		c0.04,0.28,0.06,0.55,0.05,0.83c0,0.28,0,0.56-0.02,0.84c-0.06,0.56-0.18,1.11-0.36,1.64c-0.04,0.1-0.14,0.15-0.24,0.12
		c-0.05-0.02-0.09-0.05-0.11-0.09L281.11,260.87z"/>
	<path class="st1" d="M311.42,165.88c2.87-2.76,8.62-7.71,10.58-8.28"/>
	<path class="st0" d="M301.02,178.38c0,0.61,0.12,1.22,0.33,1.79c0.21,0.58,0.47,1.15,0.78,1.69c0.31,0.54,0.65,1.07,1.03,1.56
		c0.37,0.5,0.77,0.98,1.2,1.43c1.71,1.81,3.8,3.21,6.13,4.1c2.32,0.87,4.8,1.24,7.27,1.09c1.23-0.06,2.45-0.27,3.63-0.64
		c1.17-0.39,2.29-0.91,3.35-1.55c0.53-0.31,1.04-0.68,1.54-1.03c0.51-0.36,0.98-0.77,1.43-1.2c0.92-0.84,1.77-1.75,2.54-2.73
		c0.77-0.98,1.48-2.02,2.1-3.1c0.62-1.09,1.17-2.22,1.63-3.38c0.45-1.17,0.8-2.37,1.06-3.6c0.25-1.23,0.38-2.48,0.41-3.73
		c0.07-2.52-0.51-5.03-1.67-7.27l0,0c-0.05-0.09-0.02-0.2,0.07-0.25c0.09-0.05,0.2-0.02,0.25,0.07c1.32,2.26,2.02,4.82,2.05,7.43
		c0.03,2.61-0.42,5.21-1.33,7.66c-0.89,2.45-2.15,4.75-3.75,6.82c-0.8,1.03-1.68,2-2.65,2.88c-0.47,0.45-0.99,0.86-1.5,1.27
		c-0.51,0.41-1.06,0.77-1.63,1.11c-1.12,0.7-2.32,1.26-3.58,1.68c-1.26,0.41-2.58,0.65-3.91,0.71c-1.31,0.06-2.63,0-3.93-0.2
		c-1.3-0.2-2.58-0.56-3.81-1.05c-1.22-0.49-2.38-1.13-3.45-1.9c-1.07-0.76-2.05-1.65-2.91-2.64c-0.87-0.99-1.61-2.09-2.18-3.27
		c-0.29-0.58-0.54-1.19-0.73-1.82c-0.2-0.64-0.27-1.31-0.21-1.98c0.01-0.1,0.1-0.18,0.2-0.17c0.1,0.01,0.18,0.1,0.17,0.2l0,0
		L301.02,178.38z"/>
	<path class="st0" d="M332.78,175.87c-0.96,0.68-1.95,1.3-2.96,1.89c-1.02,0.6-2.09,1.12-3.18,1.57c-1.12,0.47-2.29,0.77-3.5,0.9
		c-1.2,0.11-2.4,0.02-3.57-0.26c-0.1-0.03-0.16-0.13-0.13-0.23c0.02-0.07,0.08-0.13,0.16-0.14c1.17-0.11,2.3-0.19,3.41-0.4
		c1.11-0.2,2.19-0.5,3.24-0.9c2.13-0.79,4.2-1.86,6.36-2.76c0.09-0.04,0.2,0.01,0.24,0.1C332.87,175.73,332.85,175.82,332.78,175.87
		z"/>
	<path class="st0" d="M326.16,185.72c-1.06,0.33-2.15,0.61-3.24,0.81c-1.11,0.22-2.23,0.35-3.36,0.39c-1.16,0.04-2.31-0.1-3.43-0.41
		c-1.1-0.32-2.14-0.82-3.07-1.49c-0.08-0.06-0.1-0.17-0.04-0.26c0.05-0.06,0.13-0.09,0.2-0.07c1.09,0.28,2.12,0.55,3.17,0.73
		c1.04,0.16,2.1,0.23,3.15,0.21c1.06,0,2.15-0.09,3.25-0.16c1.1-0.06,2.2-0.13,3.33-0.1c0.1,0,0.18,0.08,0.18,0.19c0,0,0,0,0,0
		C326.28,185.63,326.23,185.7,326.16,185.72z"/>
	<path class="st0" d="M171.56,298.48c-0.68-0.64-1.17-1.46-1.41-2.36c-0.12-0.49-0.11-1,0.03-1.48c0.15-0.49,0.45-0.93,0.86-1.25
		c0.09-0.08,0.2-0.16,0.3-0.22l0.16-0.11l0.14-0.09l0.55-0.36c0.18-0.12,0.36-0.23,0.55-0.36l0.53-0.36l0.53-0.36l0.51-0.4l0.51-0.4
		l0.48-0.43c1.29-1.15,2.45-2.43,3.48-3.81c1.03-1.39,1.94-2.86,2.73-4.39c1.56-3.11,2.78-6.37,3.63-9.74
		c0.45-1.7,0.86-3.39,1.21-5.09c0.36-1.72,0.69-3.45,1.06-5.18c0.02-0.1,0.12-0.16,0.21-0.14c0,0,0,0,0,0
		c0.09,0.02,0.15,0.1,0.15,0.19c-0.1,3.56-0.54,7.1-1.32,10.57c-0.79,3.5-2.03,6.89-3.7,10.07c-0.85,1.59-1.84,3.11-2.95,4.52
		c-1.12,1.42-2.39,2.71-3.79,3.86l-0.53,0.43l-0.55,0.39l-0.55,0.39l-0.57,0.36c-0.38,0.25-0.76,0.48-1.16,0.69l-0.59,0.32
		l-0.15,0.08l-0.12,0.07c-0.08,0.04-0.16,0.09-0.24,0.15c-0.63,0.45-0.94,1.23-0.78,1.99c0.16,0.83,0.53,1.6,1.09,2.23l0,0
		c0.06,0.08,0.05,0.19-0.03,0.26c-0.07,0.06-0.18,0.05-0.24-0.01L171.56,298.48z"/>
	<path class="st0" d="M178.6,291.61c-2.14,2.54-4.47,4.89-6.61,7.35c-0.53,0.62-1.05,1.24-1.53,1.86c-0.23,0.3-0.45,0.62-0.65,0.94
		c-0.17,0.24-0.29,0.51-0.36,0.8c-0.1,0.66-0.02,1.34,0.23,1.97c0.28,0.67,0.67,1.29,1.14,1.85c0.49,0.61,1.03,1.18,1.6,1.71
		l0.44,0.41c0.16,0.15,0.32,0.29,0.48,0.45c0.31,0.29,0.6,0.6,0.88,0.9c1.06,1.2,2.22,2.31,3.47,3.31c1.19,0.96,2.65,1.52,4.18,1.62
		c1.53,0.07,3.09-0.45,4.55-1.17l0,0c0.09-0.04,0.2-0.01,0.24,0.08c0,0,0,0,0,0c0.04,0.08,0.02,0.17-0.05,0.23
		c-1.35,1.09-2.99,1.77-4.72,1.94c-1.8,0.09-3.58-0.42-5.06-1.45c-1.49-0.94-2.69-2.18-3.87-3.32l-0.87-0.84
		c-0.14-0.14-0.29-0.27-0.43-0.4l-0.47-0.43c-0.65-0.58-1.25-1.21-1.82-1.88c-0.6-0.7-1.08-1.5-1.41-2.37
		c-0.35-0.93-0.45-1.93-0.29-2.91c0.03-0.15,0.07-0.3,0.12-0.45c0.05-0.12,0.1-0.25,0.16-0.36c0.06-0.12,0.12-0.23,0.18-0.33
		s0.12-0.2,0.19-0.3c0.25-0.37,0.51-0.72,0.8-1.06c0.55-0.67,1.12-1.28,1.72-1.87c2.37-2.32,4.87-4.5,7.49-6.54l0,0
		c0.08-0.06,0.19-0.04,0.25,0.04c0.05,0.07,0.05,0.15,0,0.22L178.6,291.61z"/>
	<path class="st0" d="M185.6,295.74c-1.25,1.05-2.49,2.1-3.67,3.21c-0.59,0.55-1.15,1.13-1.68,1.73c-0.54,0.57-0.98,1.23-1.32,1.93
		c-0.15,0.31-0.2,0.67-0.12,1.01c0.1,0.35,0.28,0.67,0.53,0.95c0.54,0.6,1.11,1.16,1.72,1.68c0.63,0.54,1.21,1.13,1.74,1.77
		c0.55,0.65,0.95,1.42,1.14,2.25c0.02,0.1-0.05,0.19-0.15,0.21c-0.09,0.02-0.19-0.04-0.21-0.13c-0.21-0.76-0.6-1.46-1.14-2.04
		c-0.54-0.6-1.12-1.15-1.74-1.67c-0.65-0.52-1.26-1.09-1.82-1.7c-0.3-0.34-0.52-0.74-0.65-1.17c-0.07-0.24-0.08-0.48-0.04-0.73
		c0.03-0.23,0.09-0.45,0.18-0.66c0.36-0.77,0.83-1.49,1.41-2.11c0.55-0.61,1.14-1.2,1.75-1.76c1.22-1.1,2.5-2.12,3.84-3.08
		c0.08-0.06,0.2-0.03,0.25,0.05C185.68,295.57,185.67,295.67,185.6,295.74L185.6,295.74z"/>
	<path class="st0" d="M184.64,287.67c-0.3,1.13-0.27,2.32,0.09,3.43c0.43,1.09,1.06,2.09,1.85,2.95c0.36,0.45,0.79,0.89,1.19,1.33
		c0.4,0.44,0.8,0.9,1.2,1.34c0.79,0.9,1.59,1.78,2.42,2.63c1.62,1.73,3.45,3.25,5.45,4.52c1,0.62,2.08,1.1,3.21,1.44
		c1.13,0.34,2.31,0.45,3.47,0.33l0,0c0.1-0.01,0.19,0.06,0.2,0.16c0.01,0.1-0.06,0.19-0.16,0.2c-1.21,0.17-2.45,0.09-3.63-0.22
		c-1.18-0.32-2.31-0.8-3.36-1.42c-2.06-1.27-3.95-2.81-5.61-4.58c-0.84-0.86-1.64-1.77-2.43-2.67c-0.4-0.45-0.79-0.9-1.19-1.34
		c-0.4-0.44-0.8-0.89-1.18-1.37c-0.82-0.92-1.46-1.99-1.88-3.15c-0.19-0.6-0.28-1.22-0.26-1.84c0.02-0.61,0.11-1.22,0.27-1.82
		c0.03-0.1,0.12-0.15,0.22-0.13C184.6,287.49,184.66,287.58,184.64,287.67L184.64,287.67z"/>
	<path class="st0" d="M203.27,262.5c0.18,0.43,0.31,0.89,0.36,1.36c0.07,0.45,0.11,0.9,0.15,1.35c0.07,0.9,0.09,1.82,0.09,2.7
		c0,1.82-0.09,3.59-0.27,5.39c-0.17,1.8-0.44,3.58-0.81,5.35c-0.19,0.89-0.43,1.77-0.73,2.63c-0.15,0.44-0.33,0.87-0.53,1.29
		c-0.21,0.44-0.47,0.85-0.79,1.21c-1.16,1.3-2.1,2.79-2.79,4.39c-0.69,1.58-0.94,3.32-0.73,5.03c0.28,1.72,0.98,3.34,2.04,4.72
		c1.07,1.4,2.32,2.66,3.71,3.75l0,0c0.08,0.06,0.09,0.17,0.03,0.25c0,0,0,0,0,0c-0.06,0.07-0.17,0.09-0.25,0.03
		c-1.48-1.04-2.82-2.28-3.97-3.68c-1.18-1.43-1.97-3.14-2.3-4.96c-0.29-1.84-0.06-3.73,0.65-5.45c0.72-1.69,1.7-3.26,2.91-4.64
		c0.51-0.67,0.89-1.42,1.13-2.22c0.27-0.83,0.5-1.68,0.68-2.54c0.36-1.72,0.64-3.48,0.85-5.24c0.21-1.76,0.36-3.53,0.45-5.31
		c0.03-0.89,0.06-1.78,0.05-2.66c0-0.44,0-0.88-0.05-1.32c-0.02-0.43-0.09-0.85-0.21-1.26l0,0c-0.04-0.09,0.01-0.2,0.1-0.24
		c0.09-0.04,0.2,0.01,0.24,0.1L203.27,262.5z"/>
	<path class="st0" d="M188.2,315.16c0.9,0.27,1.81,0.48,2.74,0.63c1.82,0.3,3.68,0.09,5.39-0.61c0.86-0.35,1.7-0.76,2.52-1.22l0,0
		c0.08-0.05,0.19-0.02,0.24,0.06c0,0,0,0,0,0.01c0.04,0.08,0.03,0.17-0.04,0.23c-0.73,0.64-1.55,1.18-2.44,1.6
		c-0.9,0.42-1.86,0.69-2.85,0.79c-0.99,0.09-1.98,0.03-2.95-0.19c-0.95-0.22-1.87-0.54-2.74-0.96c-0.09-0.04-0.13-0.15-0.09-0.24
		C188.02,315.17,188.12,315.13,188.2,315.16z"/>
	<path class="st0" d="M192.69,310.14c0.58,0.14,1.14,0.35,1.67,0.61c0.53,0.26,1.04,0.56,1.52,0.9c0.43,0.33,0.91,0.58,1.42,0.77
		c0.53,0.14,1.08,0.22,1.64,0.24l0,0c0.1,0.01,0.18,0.09,0.17,0.19c-0.01,0.08-0.07,0.15-0.15,0.17c-1.22,0.31-2.51,0.03-3.5-0.75
		c-0.48-0.33-0.94-0.65-1.42-0.94c-0.48-0.29-0.98-0.56-1.49-0.85l0,0c-0.09-0.05-0.12-0.16-0.07-0.24c0,0,0,0,0,0
		C192.53,310.16,192.61,310.13,192.69,310.14z"/>
	<path class="st2" d="M271.17,218.78c15.63-12.65,34.03-32.5,34.03-32.5"/>
	<path class="st2" d="M316.71,176.19c0,0,24.38-24.29,37.26-24.81c4.48,0.58,7.59-5.86,7.36-8.85c4.26-2.87,30.01-21.73,30.01-21.73
		"/>
	<path class="st2" d="M330.34,149.93c0,0,9.36-6.13,10.63-9.24s3.11-13.23,16.67-8.17c0.47-0.1,0.94-0.23,1.45-0.36
		c11.78-3.61,29.38-20.79,29.38-20.79"/>
	<path class="st2" d="M273.54,242.66c0,0,76.17-47.6,82.04-56.39c5.87-8.78,14.84-4.1,14.84-4.1s58.3-36.77,66.58-59.54"/>
	<path class="st2" d="M277.72,250.07c0,0,78.89-52.22,85.44-51.19c6.55,1.04,7.93-4.39,11.39-8.23s52.78-32.13,72.45-61.79"/>
	<path class="st2" d="M92.16,396.22c0,0,78.14-72.89,93.33-79.91c7.13-3.43,7.25-8.61,16.22-10.41"/>
	<path class="st2" d="M203.55,300.31c7.82-5.87,37.83-27.01,42.32-28.68"/>
	<path class="st2" d="M81.3,392.08c7.25-9.66,82.02-80.5,90.97-82.92"/>
	<path class="st2" d="M201.71,289.96c5.52-4.47,39.79-27.73,44.62-28.4"/>
	<path class="st2" d="M224.71,268.45c-3.34,4.26-15.96,16.69-21.21,20.13"/>
	<path class="st2" d="M103.28,400.7c9.76-11.39,61.72-64.08,65.24-72.23"/>
	<path class="st2" d="M107.19,413.12c9.99-11.04,74.16-77.28,82.79-94.86"/>
	<path class="st0" d="M94.99,205.82c-5.92,0-10.73,5.45-10.73,12.14s4.8,12.14,10.73,12.14c5.92,0,10.73-5.45,10.73-12.14
		S100.92,205.82,94.99,205.82z M96.68,217.16c-2.14-2.45-5.82-3.53-7.21-3.53s-1.61-1.57-1.23-2.91c0.38-1.33,5.06-3.68,8.44-2.61
		C100.05,209.2,104.41,215.67,96.68,217.16z"/>
	<path class="st0" d="M261.83,272.77c0.96,1.41,1.71,2.93,2.57,4.26c0.22,0.33,0.43,0.65,0.67,0.95c0.23,0.3,0.49,0.58,0.73,0.86
		c0.47,0.58,0.99,1.12,1.56,1.6c0.15,0.12,0.32,0.21,0.48,0.32c0.16,0.11,0.36,0.22,0.56,0.33c0.19,0.11,0.36,0.24,0.56,0.36
		c0.18,0.12,0.36,0.25,0.53,0.4c0.69,0.54,1.3,1.18,1.82,1.89c0.52,0.7,0.92,1.48,1.2,2.31c0.28,0.82,0.4,1.68,0.34,2.54
		c0,0.1-0.08,0.18-0.18,0.18c-0.1,0-0.18-0.08-0.18-0.18l0,0c-0.02-0.8-0.2-1.6-0.53-2.33c-0.34-0.72-0.78-1.39-1.32-1.98
		c-0.54-0.58-1.15-1.09-1.82-1.51c-0.16-0.11-0.33-0.21-0.51-0.29c-0.17-0.09-0.34-0.19-0.52-0.26l-0.55-0.25l-0.63-0.27
		c-0.86-0.36-1.64-0.89-2.28-1.57c-0.3-0.35-0.57-0.73-0.8-1.13c-0.23-0.38-0.43-0.78-0.61-1.19c-0.35-0.79-0.63-1.61-0.85-2.44
		c-0.23-0.82-0.41-1.64-0.57-2.47c-0.02-0.1,0.05-0.2,0.15-0.22c0,0,0,0,0,0C261.7,272.68,261.78,272.71,261.83,272.77z"/>
	<path class="st0" d="M270.25,268.36c1.25,1.49,2.58,2.91,3.98,4.25c1.39,1.35,2.81,2.68,4.24,3.98c1.44,1.3,2.89,2.58,4.36,3.85
		c1.48,1.26,2.97,2.5,4.51,3.73l0,0c0.08,0.06,0.1,0.17,0.04,0.25c-0.05,0.07-0.14,0.09-0.22,0.06c-1.84-0.77-3.59-1.74-5.21-2.91
		c-3.25-2.29-6.19-4.99-8.76-8.03c-1.31-1.51-2.41-3.19-3.27-5c-0.05-0.09-0.03-0.2,0.06-0.25c0.09-0.05,0.2-0.03,0.25,0.06l0,0
		L270.25,268.36z"/>
	<path class="st0" d="M282.2,262.36c0.46-0.11,0.94-0.1,1.4,0.04c0.43,0.13,0.84,0.31,1.22,0.55c0.71,0.46,1.35,1.02,1.91,1.65
		c1.1,1.2,2.13,2.45,3.1,3.76c0.49,0.63,0.96,1.28,1.43,1.93l1.42,1.92c0.48,0.63,0.95,1.26,1.45,1.84c0.47,0.6,1.05,1.11,1.7,1.51
		l0,0c0.09,0.05,0.12,0.16,0.08,0.24c-0.04,0.08-0.12,0.11-0.21,0.09c-0.81-0.25-1.55-0.67-2.18-1.23c-0.63-0.52-1.23-1.08-1.8-1.67
		c-0.57-0.58-1.12-1.17-1.64-1.78c-0.53-0.6-1.06-1.2-1.57-1.82c-1.04-1.21-2.07-2.41-3.14-3.53c-0.54-0.56-1.09-1.09-1.6-1.61
		l-0.77-0.79c-0.27-0.26-0.56-0.5-0.86-0.73h-0.02c-0.09-0.06-0.11-0.19-0.04-0.27c0,0,0,0,0,0
		C282.11,262.4,282.15,262.37,282.2,262.36z"/>
	<path class="st0" d="M380.63,252.28c6.59,5.37,11.8,33.15-1.09,35.36c-12.89,2.21-22.53-12.42-31.43-11.54
		c-8.9,0.88-6.56,21.73,4.17,34.3c5.99,8.16,17.38,17.92,36.82,12.95c19.45-4.98,31.41-31.32,30.49-35.7
		C418.68,283.25,401.81,247.83,380.63,252.28z"/>
	<path class="st0" d="M127.34,182.18c-2.76,0.34-20.08-0.89-15.63,32.38s15.72,18.94,12.88,4.22c-2.74-14.6,0-17.55,7.21-23.84
		C133,187.17,127.34,182.18,127.34,182.18z"/>
	<path class="st3" d="M55.47,240.13c1.34-1.06,7.09,1.94,7.44,4.81c0.35,2.87-0.29,7.68-3.02,8.27
		C57.16,253.79,52.52,242.44,55.47,240.13z"/>
	<path class="st0" d="M93.51,144.95c1.17-1.16,14.11,16.02,12.23,18.99l-3.82,2.57C103.92,162.3,93.06,145.38,93.51,144.95z"/>
	<path class="st0" d="M150.19,205.82c-3.06-0.13-2.3,11.12-7.13,12.96s-2.99-4.83-5.06-4.6c-2.07,0.23-10.64,8.62-7.51,15.92
		c3.14,7.31,21.31-2.36,24.99-11.32C159.16,209.81,153.64,205.97,150.19,205.82z"/>
	<path class="st0" d="M176.18,223.83c3.45-9.2,18.86-28.52,27.37-28.06s26.76,9.78,30.13,23.47s-9.2-6.46-21.62-9.45
		c-12.42-2.99-22.53,15.63-26.57,15.41S176.18,223.83,176.18,223.83z"/>
	<path class="st0" d="M241.04,202.53c0.52,3.33,7.59,7.74,7.59,11.19c0,3.45,1.38,18.17,0,22.77c-1.38,4.6,8.28,9.36,11.04,10.09
		s-5.52-15.84-4.83-19.52s-3.45-18.54-5.52-21.24c-2.07-2.7-2.99-11.63,6.67-16.35c3.68-7.27,10.35-15.21,19.09-3.18
		c2.65,0,1.84-9.36,4.6-9.59c2.76-0.23,4.15,2.07,4.72-5.06s3.97-31.05-2.22-37.03C276,128.63,238.97,189.26,241.04,202.53z"/>
</g>
</svg>
