<svg id="Layer_1" data-name="Layer 1" xmlns="http://www.w3.org/2000/svg" viewBox="0 0 370.85 449.83"><defs><style>.cls-1{isolation:isolate;font-size:134.44px;font-family:AppleJuiced, Applejuiced;}.cls-2{fill:#1d1d1b;}.cls-3,.cls-4,.cls-5{fill:none;stroke-linecap:round;stroke-miterlimit:10;}.cls-3,.cls-4{stroke:#000;}.cls-4,.cls-5{stroke-width:3px;}.cls-5{stroke:#1d1d1b;}</style></defs><text class="cls-1" transform="translate(2.4 422.32)">Gliridae</text><path class="cls-2" d="M244.51,184.76a50.73,50.73,0,0,1-7,5.34l-1.9,1.14-2,1-.49.26-.5.23-1,.47-1,.46-1,.41a64.26,64.26,0,0,1-17.19,4.2,110.15,110.15,0,0,1-17.7.44c-2.95-.14-5.89-.37-8.82-.61l-4.38-.35c-1.46-.11-2.91-.21-4.34-.22s-2.88.09-4.35.14l-4.41.17-8.8.28q-8.82.25-17.63.39c-2.94,0-5.88.06-8.82.06s-5.9,0-8.87-.14c-.75,0-1.5-.07-2.27-.14l-.59-.06-.3,0-.33-.05-.34-.06-.5-.16-.26-.1-.06,0-.1,0a19.25,19.25,0,0,0-2-.47c-.7-.14-1.4-.26-2.12-.38-2.85-.46-5.75-.81-8.64-1.11s-5.8-.53-8.7-.68c-1.45-.07-2.89-.12-4.33-.14a42.24,42.24,0,0,0-4.24.13c-.34,0-.67.07-1,.11l-1.15.13c-.39.05-.78.07-1.17.1s-.79.05-1.18,0a20.47,20.47,0,0,1-4.75-.46,18.44,18.44,0,0,1-8.56-4.29A18.09,18.09,0,0,1,70,189.06a9.74,9.74,0,0,1-.77-.93l-.37-.46c-.13-.17-.24-.34-.36-.53a11.61,11.61,0,0,1-1.88-4.8,13,13,0,0,1,.32-5.08,19.27,19.27,0,0,1,1.81-4.5c.19-.34.39-.67.59-1l.3-.5.08-.13a.21.21,0,0,0,.06-.1l.09-.16a3.58,3.58,0,0,0,.42-1.44c.09-.61.14-1.38.22-2.13s.19-1.54.34-2.3a54.8,54.8,0,0,1,2.4-8.8c.49-1.42,1-2.8,1.57-4.19s1.12-2.78,1.76-4.14a87.75,87.75,0,0,1,4.15-8A103.6,103.6,0,0,1,91.25,125.3a117.59,117.59,0,0,1,12.67-12.68c2.27-1.94,4.62-3.81,7.08-5.55q1.83-1.32,3.78-2.52a36.16,36.16,0,0,1,4.09-2.25c.38-.17.74-.34,1.15-.49l.61-.22.58-.17c.4-.13.78-.22,1.17-.32s.76-.18,1.14-.26c1.52-.34,3-.57,4.51-.77,3-.4,5.93-.67,8.88-.89,5.91-.44,11.79-.7,17.61-1.07,1.45-.09,2.9-.2,4.33-.34.71-.06,1.42-.13,2.11-.22s1.35-.2,1.95-.34l.4-.1.49-.15,1-.34,2-.69c1.35-.48,2.73-1,4.09-1.48,5.43-2,10.79-4.32,16-6.87,2.58-1.3,5.12-2.65,7.51-4.16,1.21-.74,2.36-1.53,3.47-2.36a22.77,22.77,0,0,0,3-2.64c.23-.23.41-.47.62-.7l.74-.9c.26-.32.53-.59.79-.88s.54-.58.81-.85C204.92,74,206,73,207.16,72c2.26-2,4.59-3.86,7-5.66a187.25,187.25,0,0,1,30.4-18.54c2.67-1.31,5.39-2.52,8.14-3.67s5.54-2.21,8.38-3.16c1.41-.49,2.85-.91,4.28-1.35s2.89-.8,4.36-1.14c2.91-.67,5.81-1.28,8.76-1.78a98.19,98.19,0,0,1,17.87-1.47,59.4,59.4,0,0,1,9,.79,40.42,40.42,0,0,1,8.82,2.46,28.17,28.17,0,0,1,4.14,2.09,24.9,24.9,0,0,1,3.76,2.76,23.57,23.57,0,0,1,5.61,7.42,38.07,38.07,0,0,1,2.88,8.63,49.7,49.7,0,0,1,1.05,8.93,44.94,44.94,0,0,1-2.84,17.61,29.73,29.73,0,0,1-4.4,7.75,23.91,23.91,0,0,1-6.71,5.8.19.19,0,0,1-.24-.07.17.17,0,0,1,.06-.22h0a23.67,23.67,0,0,0,6.2-6,29.29,29.29,0,0,0,3.87-7.7A38.54,38.54,0,0,0,329.38,77a49.11,49.11,0,0,0-1.16-17.12c-.34-1.38-.78-2.74-1.25-4.08a33.86,33.86,0,0,0-1.68-3.86,20.57,20.57,0,0,0-5.14-6.39,21.84,21.84,0,0,0-3.4-2.34A26.3,26.3,0,0,0,313,41.44a38.16,38.16,0,0,0-8.16-2.07,57.64,57.64,0,0,0-8.51-.54,98.34,98.34,0,0,0-17.15,1.79c-2.84.53-5.68,1.15-8.47,1.86-1.39.33-2.76.75-4.14,1.15s-2.75.87-4.1,1.35q-4.08,1.43-8.07,3.15c-1.33.56-2.64,1.17-4,1.76s-2.62,1.23-3.91,1.88q-3.9,1.92-7.7,4c-2.53,1.41-5.06,2.88-7.51,4.41-4.94,3-9.77,6.29-14.37,9.77-2.3,1.75-4.55,3.56-6.7,5.44-1.06.94-2.12,1.91-3.08,2.9-.25.25-.49.49-.72.75s-.47.49-.67.75l-.67.79c-.28.32-.55.68-.84,1a27.8,27.8,0,0,1-3.6,3.16c-1.24.94-2.51,1.8-3.8,2.6-2.58,1.61-5.23,3-7.91,4.35-5.36,2.64-10.84,4.94-16.4,7-1.39.51-2.79,1-4.19,1.51-.71.24-1.41.48-2.13.71l-1.08.34-.56.17-.67.17c-.85.18-1.63.3-2.39.39s-1.52.18-2.27.24c-1.5.13-3,.24-4.45.34-5.9.36-11.75.6-17.56,1-2.91.21-5.8.46-8.64.82-1.42.19-2.83.41-4.18.68l-1,.22c-.34.09-.68.16-1,.26l-.46.14-.43.15c-.29.09-.59.24-.88.36a33.62,33.62,0,0,0-3.64,2c-1.2.74-2.39,1.52-3.56,2.36-2.34,1.64-4.6,3.42-6.8,5.28A112.7,112.7,0,0,0,94.38,128a100.37,100.37,0,0,0-10.16,13.92c-1.47,2.47-2.81,5-4,7.59-.62,1.29-1.16,2.62-1.72,3.94s-1.08,2.7-1.56,4.05a51.22,51.22,0,0,0-2.33,8.15c-.12.67-.22,1.35-.3,2.06s-.14,1.39-.26,2.24c0,.19-.07.43-.11.65s-.11.47-.18.7a4.66,4.66,0,0,1-.26.71l-.15.33-.18.34-.19.34-.08.13-.07.11-.27.44c-.18.29-.36.58-.52.88a11.92,11.92,0,0,0-1.8,7.27,7.89,7.89,0,0,0,1.28,3.34,4.25,4.25,0,0,0,.25.39L72,186a9.65,9.65,0,0,0,.62.78c.44.5.9,1,1.38,1.43A15.13,15.13,0,0,0,81,191.74a17.51,17.51,0,0,0,4,.38c.34,0,.68,0,1,0s.68,0,1-.07l1-.11c.4,0,.79-.09,1.18-.11,1.55-.11,3.06-.12,4.56-.09s3,.11,4.47.2q4.44.3,8.85.83c2.93.34,5.87.75,8.8,1.27.74.12,1.47.26,2.21.42a22.54,22.54,0,0,1,2.32.6l.16.06.19.08.19.08c.09.05,0,0,.06,0h0l.22,0,.21,0,.25,0,.5.06c.69.07,1.41.12,2.13.17,2.89.15,5.82.22,8.74.26s5.86.06,8.79.06c5.86,0,11.72,0,17.59,0h8.8l4.39-.33c1.47,0,2.9-.1,4.45-.06s3,.17,4.45.31l4.39.44c2.91.29,5.82.57,8.74.77a108.53,108.53,0,0,0,17.48,0,66.38,66.38,0,0,0,17-3.71l1-.38,1-.43,1-.43.5-.22.49-.24,2-1,1.9-1.07a49.61,49.61,0,0,0,7.11-5.11h0a.17.17,0,0,1,.24,0,.17.17,0,0,1,0,.23Z" transform="translate(-64.58 -35.17)"/><path class="cls-2" d="M182.74,171.93c1.51-1.55,3-3.13,4.43-4.72l4.38-4.76c1.48-1.58,3-3.13,4.54-4.64s3.16-3,4.86-4.36a36.6,36.6,0,0,1,5.47-3.68,22,22,0,0,1,3.07-1.35,16.43,16.43,0,0,1,3.32-.74,12.87,12.87,0,0,1,3.45.13l.87.2c.28.07.54.18.82.27l.41.15.39.18c.26.12.53.23.79.37a24.65,24.65,0,0,1,5.37,4,54,54,0,0,1,4.46,4.86c1.39,1.68,2.7,3.44,3.93,5.22,2.49,3.57,4.81,7.23,7,10.93,1.13,1.83,2.23,3.71,3.37,5.48.29.44.59.88.89,1.3l1,1.3a26.68,26.68,0,0,1,1.79,2.81A12.75,12.75,0,0,1,248.6,188a9.27,9.27,0,0,1,.22,3.4,9.78,9.78,0,0,1-1,3.2l-.4.72-.46.68a8.22,8.22,0,0,1-.49.67l-.52.64,0-.08h0a23.72,23.72,0,0,0,.42,4.6,41,41,0,0,0,1.09,4.5,46.33,46.33,0,0,0,3.48,8.55,24.49,24.49,0,0,0,5.58,7.2,11.94,11.94,0,0,0,3.92,2.2,9.44,9.44,0,0,0,4.51.29.17.17,0,0,1,.07.33,9.4,9.4,0,0,1-4.77.06,11.79,11.79,0,0,1-4.31-2.14,19,19,0,0,1-3.36-3.4,28.27,28.27,0,0,1-2.62-4,38.46,38.46,0,0,1-2-4.32,41.6,41.6,0,0,1-1.46-4.51,33.54,33.54,0,0,1-.87-4.66,18.42,18.42,0,0,1,0-4.75h0v0l0-.05.44-.68a7.41,7.41,0,0,0,.4-.67l.37-.7.32-.72a9.74,9.74,0,0,0,.72-3,10.16,10.16,0,0,0-1.72-5.78,23.26,23.26,0,0,0-1.81-2.57c-.34-.42-.67-.8-1-1.26s-.68-.88-1-1.35c-1.25-1.79-2.41-3.61-3.57-5.43-2.34-3.63-4.62-7.27-7.1-10.77a71.58,71.58,0,0,0-8.07-9.87,24.55,24.55,0,0,0-4.9-3.82c-.22-.12-.45-.22-.67-.33l-.34-.17-.33-.13c-.24-.09-.47-.19-.7-.26l-.71-.18a11.2,11.2,0,0,0-3-.18,14.49,14.49,0,0,0-3,.59,20.19,20.19,0,0,0-2.89,1.19,33.56,33.56,0,0,0-5.34,3.41,100.82,100.82,0,0,0-9.54,8.63l-4.57,4.58c-1.53,1.53-3.07,3-4.65,4.52a.16.16,0,0,1-.23,0h0a.16.16,0,0,1,0-.23Z" transform="translate(-64.58 -35.17)"/><path class="cls-2" d="M250.54,196.62a12.51,12.51,0,0,0-.1,2.52,17.43,17.43,0,0,0,.39,2.49,24.49,24.49,0,0,0,1.68,4.76c.36.77.75,1.51,1.16,2.25s.86,1.46,1.3,2.21c.87,1.5,1.61,3.06,2.5,4.47a13.8,13.8,0,0,0,3.27,3.71c.65.52,1.35,1,2.06,1.46s1.42,1,2.1,1.54c1.35,1.06,2.67,2.16,4.07,3.1a10.5,10.5,0,0,0,2.2,1.16,4.64,4.64,0,0,0,2.42.23h0a.18.18,0,0,1,.2.14.17.17,0,0,1-.14.2h0L273,227c-.22,0-.45,0-.68,0a3.88,3.88,0,0,1-.67-.06c-.23,0-.43-.1-.65-.14a11.14,11.14,0,0,1-2.42-1.07c-1.51-.9-2.88-2-4.26-2.95-.67-.5-1.39-1-2.09-1.45s-1.47-.93-2.16-1.47a14.61,14.61,0,0,1-2-1.81,15.82,15.82,0,0,1-1.59-2.14c-.93-1.5-1.66-3-2.49-4.53-.41-.73-.86-1.48-1.26-2.25-.21-.38-.4-.77-.59-1.17a12.75,12.75,0,0,1-.54-1.19,23,23,0,0,1-1.5-5,16.33,16.33,0,0,1-.23-2.61,11.5,11.5,0,0,1,.31-2.61.16.16,0,0,1,.2-.12.17.17,0,0,1,.13.18Z" transform="translate(-64.58 -35.17)"/><path class="cls-2" d="M255,199.91a23.86,23.86,0,0,0,3.44,3.3l.94.74c.31.24.64.47,1,.7l2,1.42a20.38,20.38,0,0,1,1.94,1.56l.47.45c.15.14.28.33.43.48s.28.36.4.55a6,6,0,0,1,.34.53,16.69,16.69,0,0,0,2.82,3.71,15.92,15.92,0,0,0,3.88,2.56l1.09.54c.36.18.72.38,1.09.56.71.39,1.43.78,2.13,1.18a39.8,39.8,0,0,0,4.27,2.17,13.68,13.68,0,0,0,2.26.68,9.33,9.33,0,0,0,2.36.12h0a.17.17,0,0,1,.18.15h0a.16.16,0,0,1-.14.18,8.59,8.59,0,0,1-2.48.09,13.48,13.48,0,0,1-2.42-.56,34.64,34.64,0,0,1-4.5-2L274.25,218l-1.08-.51-1.1-.5a16.93,16.93,0,0,1-4.24-2.69,17.28,17.28,0,0,1-3.07-4,9.47,9.47,0,0,0-.64-.92c-.13-.13-.24-.28-.37-.41l-.4-.41c-.57-.52-1.19-1-1.82-1.5s-1.27-1-1.91-1.51-1.25-1.05-1.85-1.62a16.57,16.57,0,0,1-3.07-3.85.16.16,0,0,1,.08-.22.17.17,0,0,1,.2,0Z" transform="translate(-64.58 -35.17)"/><path class="cls-2" d="M258.41,194.58a14.26,14.26,0,0,0,3.54,3.06c1.31.87,2.69,1.64,4.1,2.41l4.23,2.26c1.41.76,2.82,1.55,4.19,2.43l1,.67,1,.63,1,.56,1.05.51a46.05,46.05,0,0,0,4.41,1.69c1.5.52,3,1,4.54,1.52a15.2,15.2,0,0,1,4.39,2.11.17.17,0,0,1-.18.28h0a19.88,19.88,0,0,0-4.45-1.55c-1.54-.41-3.1-.78-4.65-1.23a37.45,37.45,0,0,1-4.6-1.62l-1.11-.53-1.09-.6-1-.67-1-.68c-2.65-1.7-5.48-3.2-8.23-4.87a43.44,43.44,0,0,1-4-2.69l-.48-.37-.47-.38-.46-.4-.44-.43a9.88,9.88,0,0,1-1.52-1.93.17.17,0,0,1,.06-.23h0a.18.18,0,0,1,.22,0Z" transform="translate(-64.58 -35.17)"/><path class="cls-2" d="M111.25,109.35a8.51,8.51,0,0,0,.29-1.52,9,9,0,0,0-.05-1.56,15.18,15.18,0,0,0-.79-3l-1-3a18.54,18.54,0,0,0-1.52-2.72c-1.16-1.79-2.41-3.52-3.6-5.32a32.17,32.17,0,0,1-1.69-2.81,5.63,5.63,0,0,1-.62-1.72,1.67,1.67,0,0,1,0-.63,1.23,1.23,0,0,1,.49-.75,1.4,1.4,0,0,1,.72-.23h.29l.27,0a5.64,5.64,0,0,1,1.72.71,13.21,13.21,0,0,1,1.39,1c.88.67,1.69,1.39,2.49,2.13,1.59,1.47,3.1,3,4.62,4.52l4.52,4.52c.75.75,1.51,1.48,2.29,2.19a13.34,13.34,0,0,0,2.52,1.84h0a.17.17,0,0,1,.08.22.16.16,0,0,1-.19.09,8.79,8.79,0,0,1-3-1.37,26.11,26.11,0,0,1-2.6-2c-1.66-1.4-3.18-2.93-4.69-4.46s-3-3-4.54-4.5c-.78-.72-1.56-1.44-2.36-2.08-.4-.32-.81-.61-1.24-.89a4.17,4.17,0,0,0-1.22-.54c-.08,0-.18,0-.24,0s-.08,0,0,0,.08-.1.07-.08a.43.43,0,0,0,0,.16,4.69,4.69,0,0,0,.46,1.3,30.47,30.47,0,0,0,1.55,2.73c1.13,1.8,2.33,3.58,3.44,5.45a18.86,18.86,0,0,1,1.49,2.94l.89,3.12a16.61,16.61,0,0,1,.65,3.21,8,8,0,0,1-.46,3.25.19.19,0,0,1-.22.12.18.18,0,0,1-.12-.22Z" transform="translate(-64.58 -35.17)"/><path class="cls-2" d="M158.62,144.31c19.09-28.88,5.33-40.12,0-41.18s-8.32,1.07-15.36,6.27-5.55,20.19-.86,26.59c0,0-1.81-25.6,12.59-22.62s1.49,10.35,2.14,13.34,5.54,5.12,5,7C162.67,136.63,158.19,145,158.62,144.31Z" transform="translate(-64.58 -35.17)"/><path class="cls-2" d="M100.87,145.76a7.27,7.27,0,0,0-3.27,3A13.4,13.4,0,0,0,96,152.9a17.41,17.41,0,0,0-.38,4.49,11.14,11.14,0,0,0,1,4.3A16.25,16.25,0,0,0,99,165.37a12.48,12.48,0,0,0,3.37,2.76,8.14,8.14,0,0,0,2,.74,5.38,5.38,0,0,0,2,0,4,4,0,0,0,.5-.11,3.49,3.49,0,0,0,.49-.16l1-.42a16.33,16.33,0,0,0,1.93-1,12.47,12.47,0,0,0,3.2-2.9,12,12,0,0,0,2-3.86,17.92,17.92,0,0,0,.67-4.36c0-.37,0-.75,0-1.12a7.73,7.73,0,0,0-.08-1.08,9.52,9.52,0,0,0-.49-2.11,10.36,10.36,0,0,0-6-6A11.61,11.61,0,0,0,100.87,145.76Zm-.22-.34a12.13,12.13,0,0,1,9.13-.34,11.86,11.86,0,0,1,4,2.39,10.44,10.44,0,0,1,2.71,3.91,11.73,11.73,0,0,1,.76,4.7,17.73,17.73,0,0,1-.63,4.69,12.73,12.73,0,0,1-2.11,4.29,13.13,13.13,0,0,1-3.55,3.22,15.79,15.79,0,0,1-2.11,1.12c-.36.16-.74.29-1.1.44l-.61.19a6.19,6.19,0,0,1-.62.13,6.83,6.83,0,0,1-2.51-.1,8.86,8.86,0,0,1-2.28-.92,13.58,13.58,0,0,1-3.6-3.11,16,16,0,0,1-2.48-4,11.57,11.57,0,0,1-.41-1.12c-.1-.38-.19-.77-.26-1.17a15.18,15.18,0,0,1-.19-2.34,18.42,18.42,0,0,1,.54-4.62,13.67,13.67,0,0,1,1.82-4.27,8.62,8.62,0,0,1,3.45-3.08Z" transform="translate(-64.58 -35.17)"/><path class="cls-2" d="M284,202.63a14.64,14.64,0,0,1,.18-2.8,19,19,0,0,1,.58-2.67c.12-.44.24-.88.39-1.3s.32-.85.49-1.26a21.8,21.8,0,0,1,1.14-2.45,83.7,83.7,0,0,1,5.81-9.08,81.18,81.18,0,0,1,14.87-15.61,62,62,0,0,1,19-10.49,49.61,49.61,0,0,1,10.72-2.3,45.49,45.49,0,0,1,11,.26l.68.1.67.11,1.32.24,1.31.23,1.31.27c1.75.34,3.49.77,5.22,1.18q5.21,1.31,10.26,3.12a81.26,81.26,0,0,1,19.18,9.72,56.26,56.26,0,0,1,15.17,15.43,46.22,46.22,0,0,1,4.86,9.78,48.51,48.51,0,0,1,2.44,10.63c.05.45.12.9.14,1.37s.07.93.08,1.39l0,.69v.69c0,.46,0,.92,0,1.39a41.51,41.51,0,0,1-.62,5.45,50.57,50.57,0,0,1-3.14,10.41,58.87,58.87,0,0,1-5.08,9.53,56.38,56.38,0,0,1-6.74,8.43,47.76,47.76,0,0,1-8.38,6.88,34.43,34.43,0,0,1-10,4.43,25.8,25.8,0,0,1-11,.48,26.62,26.62,0,0,1-10.11-4.15,56.24,56.24,0,0,1-15-15.17A43.61,43.61,0,0,1,336,228a32.39,32.39,0,0,1-1.35-5.23,24,24,0,0,1-.26-5.43,16.81,16.81,0,0,1,1.26-5.32,14.32,14.32,0,0,1,3.09-4.52,16.75,16.75,0,0,1,4.48-3.07,23,23,0,0,1,5.09-1.69,33.57,33.57,0,0,1,5.29-.67,46.68,46.68,0,0,1,5.29,0,76.59,76.59,0,0,1,10.46,1.38.16.16,0,0,1,.13.19h0a.18.18,0,0,1-.19.13,76,76,0,0,0-10.43-1.06,47.64,47.64,0,0,0-5.21.14,31.84,31.84,0,0,0-5.13.81,21.69,21.69,0,0,0-4.82,1.74,15.3,15.3,0,0,0-4.09,3,12.84,12.84,0,0,0-2.7,4.18,14.92,14.92,0,0,0-1.05,4.89,25.14,25.14,0,0,0,1.76,10,42,42,0,0,0,4.82,9.07,54.25,54.25,0,0,0,14.69,14.28,24,24,0,0,0,9.26,3.62,23,23,0,0,0,9.87-.59,31.57,31.57,0,0,0,9.1-4.22,44.76,44.76,0,0,0,7.76-6.58,55.37,55.37,0,0,0,11-17.12,47,47,0,0,0,2.82-9.73,33,33,0,0,0,.25-10,44.19,44.19,0,0,0-2.36-9.8,43.73,43.73,0,0,0-4.59-8.95,52.87,52.87,0,0,0-14.26-14.26A77.2,77.2,0,0,0,367.59,164c-3.23-1.14-6.54-2.1-9.88-2.93-1.68-.38-3.37-.78-5.06-1.1l-1.26-.25-1.28-.22-1.27-.22-.64-.11-.62-.08A42.67,42.67,0,0,0,327.81,161a56.86,56.86,0,0,0-17.61,9.8,76.94,76.94,0,0,0-14,14.8,87.62,87.62,0,0,0-5.52,8.63c-.43.74-.89,1.46-1.35,2.2s-1,1.43-1.45,2.14a30.09,30.09,0,0,1-3.48,4.16.19.19,0,0,1-.26,0h0A.16.16,0,0,1,284,202.63Z" transform="translate(-64.58 -35.17)"/><path class="cls-2" d="M280.25,215a3.67,3.67,0,0,1-.34-1.73,5.75,5.75,0,0,1,.31-1.59,10,10,0,0,1,.63-1.51,6.26,6.26,0,0,1,1-1.39.2.2,0,0,1,.27,0,.21.21,0,0,1,.06.1,8,8,0,0,1,.09,1.69,10.5,10.5,0,0,1-.2,1.58,5.89,5.89,0,0,1-.45,1.52,3.78,3.78,0,0,1-1,1.4.2.2,0,0,1-.29,0h0Z" transform="translate(-64.58 -35.17)"/><path class="cls-2" d="M377.84,123.85l3,4.15,3,4.08,3.12,4c1.07,1.32,2.11,2.66,3.18,4q3.21,4,6.5,7.85c2.17,2.61,4.36,5.21,6.48,7.88s4.18,5.4,6.07,8.26l.7,1.09c.23.36.47.71.67,1.09l1.31,2.22c.79,1.53,1.62,3,2.28,4.64l.52,1.19c.18.39.31.8.47,1.2l.91,2.4c.31.8.56,1.62.83,2.43l.79,2.45.7,2.48c.22.82.47,1.65.64,2.49l.58,2.51.14.63.12.63.24,1.26A90.08,90.08,0,0,1,421.38,203c.09,1.71.23,3.43.23,5.15,0,.85.05,1.71,0,2.57l0,2.57c-.1,3.43-.33,6.86-.69,10.26s-.82,6.79-1.35,10.16a79.64,79.64,0,0,1-2.09,10.14l-.77,2.48c-.29.82-.61,1.63-.9,2.45s-.68,1.61-1,2.41l-.53,1.19-.58,1.17a60.09,60.09,0,0,1-12.34,16.69,71.45,71.45,0,0,1-16.92,12,78.27,78.27,0,0,1-19.51,7,71.64,71.64,0,0,1-10.31,1.44c-.87.07-1.74.07-2.61.12s-1.78,0-2.66,0a45.38,45.38,0,0,1-5.21-.59A65.28,65.28,0,0,1,334,287.58a90.66,90.66,0,0,1-9.61-3.89q-4.68-2.22-9.12-4.88a103,103,0,0,1-8.6-5.75,96.65,96.65,0,0,1-8-6.61,87.38,87.38,0,0,1-7.14-7.51,65.52,65.52,0,0,1-6.07-8.43c-.88-1.49-1.74-3-2.48-4.57a51.69,51.69,0,0,1-2-4.79,45.92,45.92,0,0,1-1.46-5,40.83,40.83,0,0,1-.81-5.13,38.87,38.87,0,0,1,.52-10.27.16.16,0,0,1,.19-.13h0a.16.16,0,0,1,.14.17,44.4,44.4,0,0,0,.45,10.06,38.63,38.63,0,0,0,1.13,4.87c.5,1.59,1.06,3.16,1.7,4.69s1.4,3,2.19,4.48,1.67,2.88,2.58,4.27a73,73,0,0,0,6.11,7.9c1.1,1.25,2.25,2.45,3.43,3.64s2.4,2.32,3.64,3.43c2.48,2.24,5.09,4.34,7.78,6.32a105.22,105.22,0,0,0,17.17,10.32,85.77,85.77,0,0,0,9.28,3.76,62.19,62.19,0,0,0,9.61,2.48,41.94,41.94,0,0,0,4.87.55c.82,0,1.61.05,2.44,0s1.65-.05,2.48-.11a68.21,68.21,0,0,0,9.85-1.35,76,76,0,0,0,18.79-6.61,68.81,68.81,0,0,0,16.29-11.4,58.09,58.09,0,0,0,11.89-15.82l.57-1.11.51-1.13c.34-.76.7-1.51,1-2.29s.61-1.54.89-2.32l.76-2.36a77.79,77.79,0,0,0,2.12-9.78c.54-3.34,1.05-6.68,1.42-10,.21-1.68.33-3.35.5-5,.08-.84.11-1.69.17-2.52s.12-1.69.13-2.52l.07-2.52c0-.84,0-1.69,0-2.52,0-1.69-.08-3.37-.15-5a88.45,88.45,0,0,0-1.14-10l-.21-1.25-.11-.62-.13-.61-.53-2.47c-.16-.82-.39-1.63-.6-2.45l-.64-2.43-.74-2.41c-.26-.81-.49-1.62-.79-2.4l-.84-2.39c-.14-.39-.27-.8-.43-1.18l-.49-1.16c-.6-1.55-1.37-3-2.12-4.54l-1.22-2.2c-.2-.37-.43-.72-.66-1.08l-.67-1.07c-1.8-2.84-3.76-5.59-5.83-8.27s-4.18-5.34-6.3-8-4.25-5.31-6.34-8q-6.29-8-11.9-16.57a.16.16,0,0,1,.05-.23.16.16,0,0,1,.22,0Z" transform="translate(-64.58 -35.17)"/><path class="cls-2" d="M356,85.36a75.79,75.79,0,0,1,5.26,7.2c1.62,2.48,3.12,5,4.54,7.64s2.75,5.25,3.94,8c.6,1.35,1.16,2.7,1.74,4s1.14,2.72,1.66,4.13h0a.18.18,0,0,1-.1.22.17.17,0,0,1-.19-.06,52.16,52.16,0,0,1-5-7.39c-1.48-2.55-2.88-5.14-4.26-7.73s-2.74-5.21-4.06-7.84-2.62-5.28-3.81-8a.18.18,0,0,1,.09-.23A.17.17,0,0,1,356,85.36Z" transform="translate(-64.58 -35.17)"/><path class="cls-2" d="M327.88,54.3a5.77,5.77,0,0,1,2.15.09,11.16,11.16,0,0,1,2,.68,20.25,20.25,0,0,1,3.64,2.1,38.07,38.07,0,0,1,6.07,5.55,46.79,46.79,0,0,1,4.9,6.49,39.62,39.62,0,0,1,2,3.53,30,30,0,0,1,1.61,3.78.18.18,0,0,1-.11.22.17.17,0,0,1-.17,0c-1.07-.88-2-1.83-3-2.77S345.14,72,344.25,71c-1.8-2-3.49-4-5.2-5.92s-3.42-3.93-5.21-5.79a36.72,36.72,0,0,0-2.78-2.66,10.48,10.48,0,0,0-3.22-2h0a.19.19,0,0,1-.11-.23A.19.19,0,0,1,327.88,54.3Z" transform="translate(-64.58 -35.17)"/><path d="M316.09,100.1q-1.68.09-3.33.27c-1.11.12-2.21.28-3.31.46a32.75,32.75,0,0,0-6.38,1.67,16.57,16.57,0,0,0-2.9,1.42,9.87,9.87,0,0,0-2.39,2,7,7,0,0,0-1.39,2.7c-.07.25-.1.5-.15.76s-.06.54-.09.81c0,.54-.08,1.08-.08,1.62a13.07,13.07,0,0,0,.33,3.18,7.18,7.18,0,0,0,1.28,2.79,4.4,4.4,0,0,0,2.48,1.56,6.1,6.1,0,0,0,3.06-.15,8.75,8.75,0,0,0,1.5-.57l.36-.17c.12-.06.23-.14.34-.2l.34-.21.17-.1.16-.12a6.83,6.83,0,0,0,2.12-2.32,5.82,5.82,0,0,0,.72-3.06c0-.26-.05-.53-.09-.79l-.1-.39-.05-.2-.07-.19-.14-.37-.19-.36-.1-.18a.91.91,0,0,0-.11-.16l-.23-.34h0a.16.16,0,0,1,.06-.23.17.17,0,0,1,.2,0,5.54,5.54,0,0,1,1.38,3.16,6.55,6.55,0,0,1-.62,3.43,7.3,7.3,0,0,1-2.26,2.7l-.18.14-.18.11-.37.24-.38.23-.39.2a9.53,9.53,0,0,1-1.62.67,7.17,7.17,0,0,1-3.56.28,5.42,5.42,0,0,1-1.74-.67,5.88,5.88,0,0,1-1.41-1.22,8.16,8.16,0,0,1-1.56-3.23,13.62,13.62,0,0,1-.4-3.48c0-.58,0-1.16.08-1.73,0-.29.05-.57.09-.86a7.12,7.12,0,0,1,.17-.9,7.85,7.85,0,0,1,1.64-3.21,11,11,0,0,1,2.7-2.29,17.64,17.64,0,0,1,3.15-1.46,24.91,24.91,0,0,1,3.31-.91,31.51,31.51,0,0,1,3.37-.53c1.12-.14,2.25-.2,3.37-.24s2.25,0,3.37,0a.18.18,0,0,1,.16.18h0A.18.18,0,0,1,316.09,100.1Z" transform="translate(-64.58 -35.17)"/><path d="M278.16,196.59a11.6,11.6,0,0,1-.54-1.38c-.09-.22-.17-.44-.25-.68s-.07-.21-.11-.33-.08-.22-.12-.34c-.18-.43-.29-.87-.47-1.3s-.29-.88-.47-1.31a40.13,40.13,0,0,0-2.5-5.1c-.94-1.69-1.95-3.33-2.9-5.06-.22-.45-.47-.87-.67-1.35l-.34-.67-.28-.73c-.34-1-.62-1.87-.92-2.81q-1.71-5.59-3.07-11.29c-.45-1.9-.86-3.81-1.21-5.73a35.63,35.63,0,0,1-.65-5.92,11.65,11.65,0,0,1,.08-1.56,4,4,0,0,1,.61-1.73,1.81,1.81,0,0,1,.18-.21l.12-.14.26-.26.52-.53,1-1,4.15-4.09,8.32-8.15q4.17-4,8.31-8.14c1.38-1.36,2.75-2.74,4.12-4.11l2-2.08c.34-.33.67-.7,1-1a9.4,9.4,0,0,0,.89-1.09l0,0a.17.17,0,0,1,.22-.06h0a.16.16,0,0,1,.06.22,8.83,8.83,0,0,1-.9,1.21l-.95,1.11c-.64.73-1.3,1.45-1.95,2.17q-2,2.13-4,4.25-4,4.22-8.06,8.41l-8.13,8.34-4.07,4.15-1,1-.5.53-.24.26-.12.13a.23.23,0,0,0-.05.07,2.36,2.36,0,0,0-.29,1,10.17,10.17,0,0,0-.06,1.35,38.19,38.19,0,0,0,.72,5.63c.35,1.88.78,3.76,1.24,5.63.93,3.75,2,7.46,3.15,11.15.29.91.57,1.86.89,2.72l.25.63.29.63c.18.42.43.83.64,1.25.91,1.66,1.93,3.32,2.9,5a41.85,41.85,0,0,1,2.63,5.33,11.15,11.15,0,0,1,.8,2.94,5,5,0,0,1,0,.77c0,.26,0,.52,0,.78a7.12,7.12,0,0,1-.34,1.52.18.18,0,0,1-.23.11.15.15,0,0,1-.1-.09Z" transform="translate(-64.58 -35.17)"/><path class="cls-3" d="M306.28,108.46c2.66-2.56,8-7.14,9.81-7.68" transform="translate(-64.58 -35.17)"/><path d="M296.63,120.06a4.49,4.49,0,0,0,.31,1.66,9.26,9.26,0,0,0,.72,1.57,12.46,12.46,0,0,0,.95,1.45,15.76,15.76,0,0,0,1.12,1.33,15.2,15.2,0,0,0,5.68,3.8,16.49,16.49,0,0,0,6.75,1,14.35,14.35,0,0,0,3.37-.59,15.32,15.32,0,0,0,3.1-1.44c.5-.29,1-.63,1.44-1a11.58,11.58,0,0,0,1.32-1.11,19.49,19.49,0,0,0,2.36-2.53,24.74,24.74,0,0,0,2-2.88,23.26,23.26,0,0,0,1.51-3.14,24,24,0,0,0,1-3.33,20.13,20.13,0,0,0,.38-3.46,13.87,13.87,0,0,0-1.55-6.75h0a.17.17,0,0,1,.06-.23.19.19,0,0,1,.24.07,13.9,13.9,0,0,1,1.89,6.89,19.36,19.36,0,0,1-1.23,7.11,23,23,0,0,1-3.48,6.33,21.37,21.37,0,0,1-2.45,2.67c-.44.42-.92.8-1.39,1.18a13.87,13.87,0,0,1-1.51,1,16.48,16.48,0,0,1-3.32,1.56,14,14,0,0,1-3.63.66,17.71,17.71,0,0,1-3.64-.19,16.15,16.15,0,0,1-3.54-1,15.08,15.08,0,0,1-3.19-1.77,15.7,15.7,0,0,1-2.7-2.45,13.57,13.57,0,0,1-2-3,11.7,11.7,0,0,1-.68-1.69,5,5,0,0,1-.19-1.84.17.17,0,0,1,.18-.15.16.16,0,0,1,.16.18h0Z" transform="translate(-64.58 -35.17)"/><path d="M326.09,117.74c-.89.63-1.8,1.2-2.74,1.75a23.23,23.23,0,0,1-3,1.46,11.3,11.3,0,0,1-3.24.84,10,10,0,0,1-3.31-.25.17.17,0,0,1-.13-.21.16.16,0,0,1,.15-.12c1.09-.11,2.14-.18,3.16-.38a16.58,16.58,0,0,0,3-.83c2-.73,3.9-1.72,5.9-2.56a.18.18,0,0,1,.22.09A.18.18,0,0,1,326.09,117.74Z" transform="translate(-64.58 -35.17)"/><path d="M320,126.87a28,28,0,0,1-3,.76,20.42,20.42,0,0,1-3.12.36,10.09,10.09,0,0,1-3.18-.39,9.29,9.29,0,0,1-2.85-1.38.19.19,0,0,1,0-.24.18.18,0,0,1,.19-.06c1,.25,2,.51,2.93.67a19.15,19.15,0,0,0,2.93.2c1,0,2-.09,3-.15s2.05-.12,3.09-.09a.17.17,0,0,1,.16.17h0A.16.16,0,0,1,320,126.87Z" transform="translate(-64.58 -35.17)"/><path d="M176.53,231.48a4.63,4.63,0,0,1-1.32-2.19,2.65,2.65,0,0,1,0-1.37,2.35,2.35,0,0,1,.79-1.16,2.55,2.55,0,0,1,.28-.21l.15-.1.13-.08.51-.34q.26-.15.51-.33l.49-.34.49-.34.47-.37.47-.38.44-.4a23,23,0,0,0,3.23-3.53,28.58,28.58,0,0,0,2.53-4.08,44.09,44.09,0,0,0,3.37-9c.42-1.57.8-3.14,1.13-4.72s.64-3.19,1-4.8a.19.19,0,0,1,.2-.14h0a.16.16,0,0,1,.13.17,51.31,51.31,0,0,1-1.22,9.8,38.06,38.06,0,0,1-3.44,9.35,28.14,28.14,0,0,1-2.73,4.19,22.92,22.92,0,0,1-3.52,3.58l-.49.4-.5.36-.51.36-.53.34c-.35.23-.71.44-1.08.64l-.55.3-.14.07-.11.07a1.09,1.09,0,0,0-.23.14,1.8,1.8,0,0,0-.72,1.84,4.24,4.24,0,0,0,1,2.07h0a.16.16,0,0,1,0,.24.17.17,0,0,1-.22,0Z" transform="translate(-64.58 -35.17)"/><path d="M183.06,225.11c-2,2.36-4.14,4.54-6.13,6.82-.49.58-1,1.15-1.42,1.73a7.58,7.58,0,0,0-.6.88,2.17,2.17,0,0,0-.34.74,3.54,3.54,0,0,0,.21,1.82,6.94,6.94,0,0,0,1.06,1.72,15.91,15.91,0,0,0,1.49,1.58l.41.38c.15.14.3.27.44.42s.55.56.81.84a26.69,26.69,0,0,0,3.22,3.07,6.88,6.88,0,0,0,3.88,1.5,8.79,8.79,0,0,0,4.22-1.09h0a.18.18,0,0,1,.23.08h0a.19.19,0,0,1,0,.21,8.34,8.34,0,0,1-4.38,1.8,7.54,7.54,0,0,1-4.69-1.35,23,23,0,0,1-3.59-3.08l-.81-.78-.4-.36-.44-.4a18.53,18.53,0,0,1-1.69-1.74,7.72,7.72,0,0,1-1.31-2.19,5.18,5.18,0,0,1-.27-2.7,3.25,3.25,0,0,1,.11-.42l.15-.34c.06-.1.11-.21.17-.3s.11-.19.18-.28a10.06,10.06,0,0,1,.74-1,21.88,21.88,0,0,1,1.59-1.73,81.83,81.83,0,0,1,7-6.07h0a.16.16,0,0,1,.23,0,.17.17,0,0,1,0,.21Z" transform="translate(-64.58 -35.17)"/><path d="M189.55,228.94c-1.15,1-2.31,1.95-3.4,3a21.52,21.52,0,0,0-1.56,1.61,7,7,0,0,0-1.22,1.79,1.53,1.53,0,0,0-.12.94,2.38,2.38,0,0,0,.49.88,15.7,15.7,0,0,0,1.6,1.56,14.76,14.76,0,0,1,1.62,1.64,5,5,0,0,1,1.06,2.09.19.19,0,0,1-.14.2.17.17,0,0,1-.19-.13,4.67,4.67,0,0,0-1.06-1.89,14.75,14.75,0,0,0-1.62-1.54,15.79,15.79,0,0,1-1.68-1.59,2.83,2.83,0,0,1-.61-1.08,1.56,1.56,0,0,1,0-.68,2.61,2.61,0,0,1,.16-.61,7.39,7.39,0,0,1,1.31-2,22.79,22.79,0,0,1,1.63-1.63,40.75,40.75,0,0,1,3.56-2.85.16.16,0,0,1,.23,0,.16.16,0,0,1,0,.22Z" transform="translate(-64.58 -35.17)"/><path d="M188.66,221.46a5.64,5.64,0,0,0,.08,3.18,9.08,9.08,0,0,0,1.71,2.74c.34.41.74.82,1.11,1.23s.74.83,1.11,1.24c.74.84,1.48,1.66,2.25,2.45a26.11,26.11,0,0,0,5.06,4.19,11.49,11.49,0,0,0,3,1.33,8.16,8.16,0,0,0,3.22.31h0a.17.17,0,1,1,0,.34,8.71,8.71,0,0,1-3.37-.21,12.4,12.4,0,0,1-3.12-1.32,25.58,25.58,0,0,1-5.2-4.25c-.78-.8-1.52-1.64-2.25-2.48l-1.1-1.24c-.37-.41-.75-.83-1.1-1.27a9.35,9.35,0,0,1-1.75-2.92,5.48,5.48,0,0,1-.24-1.71,7.42,7.42,0,0,1,.25-1.69.17.17,0,0,1,.33.08Z" transform="translate(-64.58 -35.17)"/><path d="M206,198.11a4.5,4.5,0,0,1,.33,1.26c.07.41.11.83.14,1.25.06.83.08,1.68.08,2.5,0,1.69-.09,3.34-.25,5a46,46,0,0,1-.75,5,22.59,22.59,0,0,1-.68,2.44,10.41,10.41,0,0,1-.49,1.2,5.2,5.2,0,0,1-.73,1.13,15.22,15.22,0,0,0-2.59,4.07,8.87,8.87,0,0,0-.67,4.66,9.86,9.86,0,0,0,1.89,4.39,19.21,19.21,0,0,0,3.45,3.47h0a.17.17,0,0,1,0,.23h0a.17.17,0,0,1-.23,0,18.59,18.59,0,0,1-3.68-3.41,10.15,10.15,0,0,1-2.14-4.6,9.52,9.52,0,0,1,.61-5.06,16.08,16.08,0,0,1,2.69-4.31,6.28,6.28,0,0,0,1.05-2.06,19.56,19.56,0,0,0,.63-2.36c.34-1.6.59-3.23.79-4.86s.34-3.28.42-4.93c0-.82,0-1.65,0-2.47a9.88,9.88,0,0,0,0-1.22,5.12,5.12,0,0,0-.2-1.17h0a.17.17,0,1,1,.31-.12Z" transform="translate(-64.58 -35.17)"/><path d="M192,247a20.13,20.13,0,0,0,2.53.58,9.28,9.28,0,0,0,5-.56,21.76,21.76,0,0,0,2.33-1.13h0a.17.17,0,0,1,.23.05h0a.17.17,0,0,1,0,.21,9.73,9.73,0,0,1-2.26,1.49,8.17,8.17,0,0,1-2.65.73,8.35,8.35,0,0,1-2.73-.18,12,12,0,0,1-2.55-.89A.17.17,0,0,1,192,247Z" transform="translate(-64.58 -35.17)"/><path d="M196.13,242.31a8,8,0,0,1,1.55.56,10.08,10.08,0,0,1,1.41.84,4.94,4.94,0,0,0,1.32.71,7,7,0,0,0,1.51.22h0a.18.18,0,0,1,.16.18.17.17,0,0,1-.14.16,3.71,3.71,0,0,1-3.24-.7c-.45-.31-.87-.6-1.32-.87s-.91-.52-1.38-.79h0a.17.17,0,0,1-.06-.23h0A.16.16,0,0,1,196.13,242.31Z" transform="translate(-64.58 -35.17)"/><path class="cls-4" d="M268.93,157.54c14.5-11.73,31.57-30.15,31.57-30.15" transform="translate(-64.58 -35.17)"/><path class="cls-4" d="M311.18,118S333.8,95.5,345.75,95c4.16.53,7-5.44,6.83-8.22,3.95-2.66,27.84-20.16,27.84-20.16" transform="translate(-64.58 -35.17)"/><path class="cls-4" d="M323.83,93.67s8.69-5.69,9.86-8.57,2.88-12.27,15.47-7.58c.44-.09.88-.21,1.35-.34,10.93-3.34,27.26-19.28,27.26-19.28" transform="translate(-64.58 -35.17)"/><path class="cls-5" d="M271.13,179.7s70.67-44.16,76.11-52.31S361,123.58,361,123.58s54.09-34.11,61.77-55.23" transform="translate(-64.58 -35.17)"/><path class="cls-5" d="M275,186.57s73.18-48.45,79.26-47.49,7.36-4.07,10.57-7.63,49-29.81,67.21-57.32" transform="translate(-64.58 -35.17)"/><path class="cls-5" d="M102.87,322.16s72.49-67.62,86.58-74.14c6.62-3.19,6.72-8,15.05-9.65" transform="translate(-64.58 -35.17)"/><path class="cls-5" d="M206.2,233.18c7.26-5.44,35.1-25.05,39.26-26.61" transform="translate(-64.58 -35.17)"/><path class="cls-5" d="M92.79,318.32c6.73-9,76.09-74.68,84.39-76.92" transform="translate(-64.58 -35.17)"/><path class="cls-5" d="M204.5,223.58c5.12-4.14,36.91-25.72,41.39-26.35" transform="translate(-64.58 -35.17)"/><path class="cls-5" d="M225.84,203.63c-3.1,4-14.81,15.48-19.68,18.67" transform="translate(-64.58 -35.17)"/><path class="cls-5" d="M113.18,326.32c9.06-10.56,57.26-59.45,60.52-67" transform="translate(-64.58 -35.17)"/><path class="cls-5" d="M116.81,337.84c9.27-10.24,68.8-71.69,76.8-88" transform="translate(-64.58 -35.17)"/><path class="cls-2" d="M105.49,145.52c-5.49,0-9.95,5.06-9.95,11.26s4.46,11.27,9.95,11.27,10-5.06,10-11.27S111,145.52,105.49,145.52Zm1.56,10.53a10.63,10.63,0,0,0-6.68-3.27c-1.29,0-1.5-1.46-1.14-2.7s4.7-3.41,7.82-2.42S114.23,154.66,107.05,156.05Z" transform="translate(-64.58 -35.17)"/><path class="cls-2" d="M260.27,207.63c.89,1.31,1.59,2.72,2.38,4,.2.31.4.61.62.89s.45.53.67.79a10.68,10.68,0,0,0,1.45,1.48c.14.12.3.2.44.31s.34.2.52.3.34.22.52.34a4.2,4.2,0,0,1,.49.37,8.45,8.45,0,0,1,1.68,1.75,8,8,0,0,1,1.12,2.14,6.11,6.11,0,0,1,.32,2.36.17.17,0,0,1-.34,0h0a5.17,5.17,0,0,0-.5-2.15,7.27,7.27,0,0,0-1.22-1.84,8.39,8.39,0,0,0-1.69-1.4,4.39,4.39,0,0,0-.47-.27,4.44,4.44,0,0,0-.49-.24l-.51-.23-.58-.25a6.17,6.17,0,0,1-2.11-1.45,6.87,6.87,0,0,1-.74-1,8.2,8.2,0,0,1-.57-1.1,15.25,15.25,0,0,1-.79-2.27c-.21-.76-.38-1.52-.53-2.29a.19.19,0,0,1,.14-.2h0A.17.17,0,0,1,260.27,207.63Z" transform="translate(-64.58 -35.17)"/><path class="cls-2" d="M268.08,203.54a51,51,0,0,0,3.69,4c1.29,1.25,2.61,2.48,3.94,3.69s2.68,2.4,4.05,3.57,2.75,2.32,4.18,3.45h0a.17.17,0,0,1,0,.24.16.16,0,0,1-.2.05,24.38,24.38,0,0,1-4.84-2.69,43.5,43.5,0,0,1-8.12-7.45,20,20,0,0,1-3-4.64.17.17,0,0,1,.28-.18h0Z" transform="translate(-64.58 -35.17)"/><path class="cls-2" d="M279.17,198a2.46,2.46,0,0,1,1.29,0,4.24,4.24,0,0,1,1.13.5,8.68,8.68,0,0,1,1.78,1.53,41.55,41.55,0,0,1,2.87,3.49c.46.59.89,1.19,1.33,1.79l1.31,1.77c.45.58.88,1.17,1.35,1.71a5.87,5.87,0,0,0,1.58,1.4h0a.18.18,0,0,1,.07.23.17.17,0,0,1-.19.09,5.4,5.4,0,0,1-2-1.14,20.54,20.54,0,0,1-1.67-1.56c-.53-.53-1-1.08-1.52-1.64s-1-1.12-1.46-1.69c-1-1.12-1.93-2.24-2.91-3.28-.5-.51-1-1-1.49-1.49l-.71-.74a8.47,8.47,0,0,0-.79-.67h0a.18.18,0,0,1,0-.26h0A.15.15,0,0,1,279.17,198Z" transform="translate(-64.58 -35.17)"/><path class="cls-2" d="M370.49,188.62c6.11,5,10.95,30.75-1,32.8s-20.91-11.52-29.16-10.71-6.09,20.16,3.87,31.83c5.55,7.57,16.12,16.62,34.16,12s29.14-29.06,28.29-33.13S390.13,184.5,370.49,188.62Z" transform="translate(-64.58 -35.17)"/><path class="cls-2" d="M135.5,123.59c-2.56.31-18.63-.83-14.5,30s14.58,17.57,11.95,3.91,0-16.29,6.69-22.12A13.88,13.88,0,0,0,135.5,123.59Z" transform="translate(-64.58 -35.17)"/><path class="cls-2" d="M68.82,177.35c1.25-1,6.58,1.8,6.9,4.46s-.27,7.13-2.8,7.67S66.08,179.5,68.82,177.35Z" transform="translate(-64.58 -35.17)"/><path class="cls-2" d="M104.12,89.05c1.08-1.08,13.09,14.86,11.34,17.62l-3.54,2.38C113.77,105.15,103.7,89.45,104.12,89.05Z" transform="translate(-64.58 -35.17)"/><path class="cls-2" d="M156.7,145.52c-2.84-.13-2.13,10.31-6.62,12s-2.77-4.48-4.69-4.27-9.87,8-7,14.78,19.76-2.19,23.18-10.51S159.9,145.66,156.7,145.52Z" transform="translate(-64.58 -35.17)"/><path class="cls-2" d="M180.81,162.23c3.2-8.53,17.5-26.46,25.39-26s24.82,9.07,28,21.78-8.53-6-20.05-8.77-20.91,14.5-24.65,14.3A65.24,65.24,0,0,1,180.81,162.23Z" transform="translate(-64.58 -35.17)"/><path class="cls-2" d="M241,142.46c.48,3.09,7,7.19,7,10.39s1.28,16.85,0,21.12,7.69,8.68,10.24,9.36-5.12-14.69-4.48-18.11-3.2-17.2-5.12-19.7-2.77-10.79,6.19-15.17c3.41-6.75,9.6-14.12,17.71-2.95,2.46,0,1.71-8.69,4.27-8.9s3.85,1.92,4.38-4.7,3.69-28.8-2-34.35S239.06,130.16,241,142.46Z" transform="translate(-64.58 -35.17)"/></svg>