<?xml version="1.0" encoding="utf-8"?>
<!-- Generator: Adobe Illustrator 25.2.3, SVG Export Plug-In . SVG Version: 6.00 Build 0)  -->
<svg version="1.1" id="Layer_1" xmlns="http://www.w3.org/2000/svg" xmlns:xlink="http://www.w3.org/1999/xlink" x="0px" y="0px"
	 viewBox="0 0 500 500" style="enable-background:new 0 0 500 500;" xml:space="preserve">
<style type="text/css">
	.st0{fill:#FFFFFF;}
	.st1{fill:#FFFFFF;stroke:#FFFFFF;stroke-miterlimit:10;}
	.st2{fill:none;stroke:#FFFFFF;stroke-linecap:round;stroke-miterlimit:10;}
	.st3{fill:none;stroke:#FFFFFF;stroke-width:3;stroke-linecap:round;stroke-miterlimit:10;}
</style>
<g>
	<path class="st0" d="M244.34,247.94c-2.58,2.34-5.36,4.45-8.31,6.3l-2.25,1.34l-2.31,1.22l-0.58,0.31l-0.59,0.27l-1.19,0.55
		c-0.4,0.18-0.8,0.37-1.19,0.54l-1.19,0.49c-6.47,2.66-13.37,4.16-20.31,4.96c-6.94,0.8-13.94,0.84-20.91,0.51
		c-3.48-0.16-6.95-0.43-10.41-0.72l-5.18-0.42c-1.72-0.12-3.44-0.24-5.12-0.26c-1.68-0.02-3.41,0.11-5.14,0.17l-5.21,0.2l-10.4,0.33
		c-6.94,0.2-13.88,0.37-20.82,0.45c-3.47,0.04-6.95,0.08-10.42,0.08s-6.96-0.02-10.47-0.17c-0.88-0.04-1.77-0.09-2.67-0.16
		l-0.7-0.08l-0.35-0.04l-0.4-0.07l-0.4-0.07c-0.19-0.05-0.4-0.12-0.59-0.19l-0.31-0.12l-0.07-0.03l-0.12-0.04
		c-0.76-0.23-1.53-0.41-2.31-0.56c-0.82-0.16-1.66-0.31-2.5-0.45c-3.37-0.54-6.79-0.96-10.21-1.31c-3.42-0.35-6.85-0.63-10.27-0.8
		c-1.71-0.09-3.42-0.15-5.12-0.17c-1.7-0.02-3.39,0-5.01,0.15c-0.4,0.03-0.8,0.08-1.19,0.13l-1.36,0.16
		c-0.46,0.06-0.92,0.08-1.39,0.11c-0.47,0.03-0.92,0.06-1.39,0.05c-1.88,0.04-3.76-0.14-5.6-0.54c-3.76-0.77-7.24-2.52-10.11-5.07
		c-0.7-0.63-1.37-1.31-1.99-2.02c-0.33-0.35-0.62-0.72-0.91-1.1l-0.44-0.55c-0.14-0.2-0.28-0.4-0.42-0.63
		c-1.16-1.7-1.92-3.64-2.22-5.67c-0.27-2-0.14-4.04,0.37-6c0.49-1.85,1.21-3.64,2.14-5.31c0.22-0.4,0.46-0.8,0.69-1.19l0.36-0.59
		l0.09-0.15c0.03-0.04,0.05-0.08,0.07-0.12l0.1-0.19c0.28-0.53,0.45-1.11,0.5-1.7c0.1-0.72,0.16-1.63,0.26-2.52
		c0.1-0.89,0.22-1.82,0.4-2.72c0.66-3.54,1.6-7.01,2.84-10.39c0.58-1.68,1.22-3.31,1.86-4.95c0.63-1.64,1.33-3.29,2.08-4.89
		c1.47-3.23,3.1-6.38,4.89-9.44c3.63-6.08,7.78-11.83,12.39-17.2c4.6-5.36,9.61-10.36,14.97-14.97c2.68-2.3,5.46-4.5,8.36-6.56
		c1.44-1.04,2.93-2.03,4.46-2.98c1.55-0.98,3.17-1.87,4.83-2.66c0.45-0.2,0.88-0.4,1.36-0.57c0.24-0.09,0.48-0.18,0.71-0.26
		l0.69-0.21c0.47-0.15,0.92-0.26,1.37-0.37c0.45-0.12,0.9-0.22,1.35-0.31c1.79-0.4,3.56-0.67,5.32-0.9c3.52-0.47,7.01-0.8,10.5-1.05
		c6.97-0.53,13.92-0.82,20.79-1.26c1.72-0.11,3.43-0.23,5.11-0.4c0.84-0.08,1.68-0.16,2.49-0.27c0.81-0.1,1.59-0.23,2.31-0.4
		l0.47-0.12l0.59-0.18l1.19-0.4c0.8-0.27,1.6-0.54,2.42-0.82c1.59-0.56,3.22-1.15,4.82-1.75c6.42-2.42,12.74-5.09,18.85-8.11
		c3.04-1.53,6.04-3.13,8.87-4.91c1.42-0.88,2.79-1.82,4.09-2.79c1.27-0.93,2.46-1.98,3.55-3.12c0.27-0.27,0.48-0.56,0.73-0.83
		l0.88-1.06c0.3-0.38,0.62-0.7,0.93-1.05c0.31-0.35,0.63-0.68,0.95-1c1.27-1.31,2.59-2.52,3.93-3.71c2.67-2.36,5.42-4.56,8.24-6.68
		c11.25-8.42,23.27-15.76,35.91-21.9c3.15-1.55,6.37-2.98,9.62-4.33c3.25-1.35,6.55-2.6,9.9-3.73c1.67-0.58,3.37-1.08,5.06-1.59
		c1.69-0.51,3.41-0.95,5.15-1.35c3.44-0.8,6.87-1.51,10.35-2.1c6.97-1.22,14.03-1.8,21.11-1.74c3.57,0.04,7.14,0.35,10.66,0.93
		c3.57,0.57,7.07,1.55,10.42,2.91c1.69,0.69,3.33,1.52,4.89,2.47c1.58,0.95,3.07,2.04,4.44,3.27c2.77,2.45,5.02,5.43,6.62,8.76
		c1.54,3.25,2.68,6.67,3.4,10.19c0.73,3.47,1.14,7.01,1.24,10.55c0.2,7.06-0.76,14.2-3.35,20.79c-1.26,3.3-3.02,6.39-5.2,9.16
		c-2.19,2.76-4.88,5.08-7.93,6.85c-0.1,0.05-0.22,0.02-0.27-0.08c-0.05-0.09-0.02-0.21,0.06-0.26l0,0c2.86-1.9,5.35-4.31,7.33-7.11
		c1.96-2.79,3.5-5.86,4.57-9.1c1.08-3.23,1.8-6.57,2.15-9.96c0.74-6.77,0.27-13.61-1.37-20.22c-0.4-1.64-0.92-3.24-1.47-4.82
		c-0.56-1.56-1.23-3.09-1.99-4.56c-1.5-2.9-3.56-5.46-6.07-7.54c-1.25-1.05-2.59-1.97-4.01-2.76c-1.42-0.81-2.91-1.51-4.45-2.07
		c-3.11-1.17-6.35-1.98-9.64-2.44c-3.33-0.47-6.69-0.68-10.06-0.64c-6.77,0.03-13.54,0.88-20.26,2.11c-3.35,0.62-6.71,1.36-10,2.19
		c-1.64,0.4-3.27,0.89-4.9,1.37s-3.24,1.02-4.84,1.59c-3.22,1.12-6.39,2.36-9.53,3.72c-1.57,0.66-3.13,1.38-4.68,2.08
		s-3.09,1.45-4.62,2.22c-3.07,1.51-6.1,3.11-9.09,4.78c-2.99,1.67-5.97,3.4-8.87,5.21c-5.84,3.58-11.55,7.43-16.97,11.55
		c-2.72,2.06-5.38,4.19-7.92,6.42c-1.25,1.12-2.5,2.25-3.64,3.43c-0.29,0.29-0.58,0.59-0.84,0.88c-0.26,0.3-0.56,0.59-0.8,0.89
		l-0.8,0.94c-0.33,0.38-0.64,0.8-0.98,1.13c-1.3,1.37-2.73,2.62-4.25,3.74c-1.47,1.11-2.97,2.13-4.5,3.07
		c-3.05,1.91-6.18,3.56-9.34,5.14c-6.33,3.12-12.8,5.83-19.37,8.3c-1.64,0.61-3.29,1.21-4.95,1.79c-0.83,0.29-1.66,0.57-2.51,0.84
		l-1.28,0.4l-0.66,0.2l-0.8,0.2c-1,0.21-1.92,0.35-2.82,0.46s-1.79,0.2-2.68,0.28c-1.77,0.16-3.52,0.28-5.26,0.4
		c-6.97,0.43-13.88,0.71-20.74,1.19c-3.43,0.25-6.84,0.55-10.2,0.98c-1.68,0.22-3.34,0.47-4.94,0.8c-0.4,0.08-0.8,0.16-1.19,0.26
		s-0.8,0.19-1.14,0.3l-0.55,0.16l-0.51,0.18c-0.33,0.11-0.69,0.28-1.04,0.43c-1.48,0.69-2.91,1.47-4.29,2.33
		c-1.42,0.87-2.83,1.8-4.21,2.79c-2.76,1.94-5.44,4.03-8.04,6.23c-5.2,4.4-10.05,9.2-14.52,14.34c-4.46,5.13-8.47,10.63-12,16.45
		c-1.74,2.92-3.33,5.91-4.78,8.96c-0.72,1.53-1.37,3.09-2.03,4.66c-0.66,1.57-1.28,3.19-1.84,4.78c-1.18,3.13-2.1,6.35-2.75,9.63
		c-0.15,0.8-0.27,1.59-0.36,2.43s-0.16,1.65-0.3,2.65c-0.02,0.23-0.09,0.51-0.14,0.77c-0.05,0.28-0.12,0.55-0.21,0.82
		c-0.08,0.29-0.18,0.57-0.31,0.84c-0.06,0.14-0.12,0.28-0.18,0.4l-0.22,0.4l-0.22,0.4l-0.1,0.16l-0.08,0.13l-0.32,0.51
		c-0.21,0.35-0.42,0.69-0.61,1.04c-1.57,2.77-2.5,5.8-2.12,8.59c0.19,1.41,0.71,2.76,1.5,3.94c0.1,0.15,0.19,0.31,0.3,0.46
		l0.36,0.47c0.24,0.31,0.47,0.63,0.74,0.92c0.51,0.59,1.06,1.15,1.63,1.68c2.32,2.1,5.15,3.56,8.21,4.22
		c1.56,0.33,3.15,0.49,4.75,0.45c0.4,0,0.8,0,1.19-0.04s0.8-0.03,1.19-0.08l1.23-0.13c0.47-0.06,0.94-0.11,1.39-0.14
		c1.84-0.13,3.62-0.14,5.39-0.1c1.77,0.03,3.52,0.13,5.28,0.24c3.5,0.23,6.98,0.57,10.45,0.97c3.47,0.41,6.93,0.88,10.4,1.5
		c0.87,0.15,1.74,0.32,2.61,0.5c0.92,0.19,1.84,0.43,2.73,0.71l0.19,0.06l0.23,0.1l0.23,0.1c0.11,0.05,0.05,0,0.07,0.03h0.03
		l0.25,0.02l0.25,0.05l0.29,0.04l0.59,0.08c0.82,0.08,1.66,0.14,2.51,0.19c3.41,0.19,6.87,0.26,10.33,0.31
		c3.45,0.05,6.92,0.07,10.38,0.08c6.92,0,13.85-0.03,20.79,0.04h10.39l5.18-0.38c1.74-0.02,3.43-0.12,5.26-0.07
		c1.83,0.05,3.52,0.2,5.26,0.36l5.18,0.52c3.44,0.35,6.88,0.67,10.33,0.92c6.87,0.54,13.78,0.53,20.65-0.04
		c6.85-0.64,13.66-1.97,20.1-4.38l1.19-0.45c0.4-0.16,0.8-0.33,1.19-0.5l1.19-0.51l0.59-0.25l0.58-0.29l2.31-1.14l2.25-1.27
		c2.97-1.77,5.78-3.78,8.4-6.03l0,0c0.09-0.07,0.21-0.06,0.28,0.03c0.06,0.08,0.06,0.2-0.02,0.27L244.34,247.94z"/>
	<path class="st0" d="M171.39,232.78c1.78-1.83,3.5-3.7,5.23-5.58l5.18-5.62c1.74-1.86,3.52-3.7,5.36-5.49s3.74-3.52,5.75-5.14
		c2.01-1.65,4.18-3.1,6.46-4.35c1.16-0.62,2.38-1.16,3.62-1.59c1.27-0.43,2.59-0.72,3.92-0.87c1.36-0.14,2.73-0.09,4.07,0.15
		l1.02,0.23c0.33,0.09,0.65,0.22,0.98,0.33l0.49,0.17l0.46,0.21c0.31,0.14,0.62,0.28,0.92,0.43c2.32,1.28,4.46,2.87,6.35,4.72
		c1.87,1.8,3.63,3.72,5.26,5.73c1.64,1.99,3.19,4.07,4.64,6.17c2.94,4.21,5.69,8.54,8.33,12.9c1.34,2.17,2.63,4.38,3.98,6.47
		c0.34,0.53,0.69,1.05,1.05,1.54l1.14,1.53c0.78,1.06,1.48,2.17,2.11,3.33c0.65,1.17,1.14,2.42,1.47,3.71
		c0.33,1.31,0.42,2.67,0.26,4.02c-0.19,1.32-0.6,2.6-1.23,3.78l-0.47,0.86l-0.55,0.8c-0.18,0.28-0.37,0.54-0.58,0.8l-0.61,0.75
		l0.04-0.1l0,0c-0.01,1.82,0.15,3.65,0.5,5.44c0.33,1.79,0.76,3.57,1.29,5.31c1.03,3.5,2.41,6.88,4.11,10.1
		c1.74,3.19,3.84,6.2,6.6,8.5c1.36,1.16,2.93,2.04,4.63,2.6c1.72,0.54,3.55,0.66,5.32,0.34c0.11-0.02,0.22,0.05,0.24,0.16
		c0.02,0.11-0.05,0.22-0.16,0.24c-1.84,0.51-3.78,0.53-5.63,0.07c-1.86-0.49-3.59-1.35-5.1-2.53c-1.49-1.17-2.82-2.52-3.97-4.02
		c-1.16-1.48-2.2-3.06-3.09-4.71c-0.9-1.65-1.69-3.35-2.37-5.09c-0.68-1.74-1.26-3.52-1.73-5.33c-0.47-1.81-0.81-3.65-1.03-5.51
		c-0.23-1.86-0.23-3.75,0.02-5.61l0,0v-0.04l0.04-0.06l0.51-0.8c0.17-0.26,0.33-0.52,0.48-0.8l0.44-0.83l0.37-0.85
		c0.47-1.13,0.76-2.33,0.84-3.54c0.11-2.42-0.73-4.76-2.03-6.84c-0.64-1.06-1.35-2.07-2.13-3.03c-0.4-0.49-0.8-0.94-1.19-1.49
		c-0.4-0.54-0.8-1.05-1.16-1.59c-1.48-2.12-2.86-4.27-4.23-6.42c-2.76-4.29-5.46-8.59-8.38-12.72c-2.93-4.13-5.97-8.17-9.53-11.66
		c-1.73-1.74-3.67-3.26-5.78-4.51c-0.26-0.14-0.53-0.26-0.8-0.4l-0.4-0.2l-0.4-0.16c-0.27-0.1-0.55-0.22-0.82-0.3l-0.84-0.22
		c-1.17-0.23-2.36-0.3-3.54-0.22c-1.2,0.11-2.39,0.34-3.54,0.7c-1.17,0.38-2.31,0.85-3.41,1.4c-2.22,1.14-4.34,2.49-6.31,4.03
		c-4.01,3.06-7.65,6.62-11.27,10.19l-5.39,5.42c-1.81,1.8-3.63,3.58-5.49,5.34c-0.08,0.08-0.2,0.08-0.28,0c0,0,0,0,0,0
		C171.34,233,171.32,232.88,171.39,232.78C171.39,232.79,171.39,232.78,171.39,232.78z"/>
	<path class="st0" d="M251.46,261.95c-0.13,0.99-0.17,1.98-0.11,2.98c0.08,0.99,0.23,1.97,0.45,2.94c0.47,1.94,1.14,3.82,1.99,5.62
		c0.42,0.91,0.88,1.79,1.37,2.66s1.02,1.72,1.54,2.61c1.03,1.77,1.9,3.61,2.96,5.28c1.01,1.68,2.32,3.16,3.86,4.38
		c0.77,0.62,1.59,1.14,2.44,1.73s1.67,1.19,2.47,1.82c1.59,1.24,3.16,2.55,4.81,3.66c0.81,0.56,1.68,1.02,2.6,1.37
		c0.91,0.34,1.9,0.44,2.86,0.28l0,0c0.11-0.02,0.22,0.05,0.24,0.16c0.02,0.11-0.05,0.22-0.16,0.24l0,0l-0.8,0.16
		c-0.26,0.03-0.53,0.03-0.8,0.04c-0.27,0.01-0.53-0.05-0.8-0.08s-0.51-0.12-0.77-0.17c-1-0.3-1.96-0.73-2.86-1.26
		c-1.78-1.06-3.39-2.31-5.03-3.48c-0.8-0.59-1.64-1.17-2.47-1.71s-1.73-1.1-2.55-1.73c-0.83-0.64-1.6-1.36-2.31-2.14
		c-0.69-0.79-1.32-1.63-1.88-2.52c-1.1-1.77-1.96-3.58-2.94-5.35c-0.48-0.87-1.02-1.75-1.49-2.66c-0.25-0.45-0.47-0.92-0.7-1.38
		c-0.23-0.46-0.44-0.93-0.63-1.41c-0.82-1.9-1.41-3.89-1.78-5.93c-0.17-1.02-0.26-2.05-0.26-3.09c0-1.04,0.12-2.07,0.36-3.07
		c0.03-0.11,0.13-0.17,0.24-0.15c0.1,0.02,0.16,0.12,0.15,0.22L251.46,261.95z"/>
	<path class="st0" d="M256.73,265.83c1.22,1.43,2.58,2.74,4.06,3.9c0.36,0.29,0.74,0.58,1.11,0.87c0.37,0.29,0.76,0.56,1.14,0.83
		l2.32,1.67c0.8,0.57,1.55,1.17,2.29,1.84l0.55,0.53c0.18,0.18,0.34,0.4,0.51,0.58c0.17,0.2,0.33,0.42,0.47,0.64
		c0.17,0.23,0.26,0.4,0.4,0.63c0.9,1.61,2.02,3.09,3.33,4.38c1.37,1.23,2.91,2.25,4.58,3.03l1.29,0.64
		c0.43,0.21,0.86,0.44,1.29,0.67c0.85,0.46,1.69,0.92,2.52,1.39c1.63,0.96,3.31,1.82,5.05,2.57c0.86,0.34,1.76,0.61,2.67,0.8
		c0.92,0.17,1.86,0.22,2.79,0.14l0,0c0.11-0.01,0.21,0.07,0.21,0.18c0,0,0,0,0,0c0.01,0.1-0.06,0.19-0.16,0.21
		c-0.97,0.17-1.95,0.21-2.93,0.1c-0.97-0.13-1.93-0.35-2.86-0.66c-1.82-0.65-3.6-1.43-5.32-2.33l-2.55-1.28
		c-0.43-0.2-0.85-0.4-1.28-0.6l-1.31-0.59c-1.82-0.81-3.5-1.88-5-3.19c-1.51-1.34-2.63-3.04-3.63-4.67
		c-0.23-0.38-0.48-0.74-0.76-1.09c-0.15-0.16-0.28-0.33-0.44-0.49l-0.47-0.48c-0.67-0.62-1.4-1.19-2.14-1.78
		c-0.74-0.59-1.51-1.17-2.25-1.78c-0.75-0.61-1.49-1.24-2.19-1.92c-1.43-1.33-2.65-2.86-3.63-4.54c-0.05-0.1,0-0.22,0.1-0.27
		c0.08-0.04,0.17-0.02,0.23,0.04L256.73,265.83z"/>
	<path class="st0" d="M260.76,259.53c1.12,1.47,2.64,2.59,4.18,3.62c1.55,1.03,3.19,1.94,4.85,2.84l5,2.67
		c1.67,0.9,3.33,1.83,4.95,2.87l1.19,0.8l1.14,0.74l1.19,0.67l1.23,0.61c1.7,0.75,3.44,1.42,5.21,1.99c1.77,0.61,3.58,1.16,5.37,1.8
		c1.79,0.63,3.63,1.29,5.18,2.49c0.09,0.06,0.11,0.19,0.05,0.28c-0.06,0.08-0.17,0.11-0.26,0.06l0,0c-1.61-0.88-3.44-1.35-5.25-1.83
		c-1.81-0.48-3.66-0.93-5.49-1.45c-1.85-0.52-3.66-1.16-5.43-1.92l-1.32-0.63l-1.29-0.7l-1.23-0.8l-1.15-0.8
		c-3.13-2.02-6.48-3.78-9.73-5.75c-1.64-0.98-3.23-2.04-4.76-3.19l-0.57-0.44l-0.55-0.45c-0.18-0.16-0.37-0.31-0.55-0.47l-0.52-0.51
		c-0.69-0.68-1.3-1.44-1.8-2.27c-0.06-0.09-0.03-0.22,0.06-0.27c0,0,0,0,0,0C260.58,259.43,260.69,259.45,260.76,259.53
		L260.76,259.53z"/>
	<path class="st0" d="M86.95,158.87c0.17-0.59,0.28-1.19,0.33-1.8c0.04-0.61,0.02-1.23-0.06-1.84c-0.19-1.22-0.5-2.42-0.93-3.58
		l-1.23-3.56c-0.51-1.12-1.11-2.19-1.8-3.21c-1.37-2.1-2.85-4.15-4.26-6.28c-0.72-1.07-1.38-2.18-1.99-3.32
		c-0.35-0.63-0.6-1.31-0.74-2.02c-0.04-0.25-0.04-0.5,0-0.75c0.08-0.36,0.28-0.67,0.58-0.88c0.25-0.17,0.55-0.26,0.85-0.27
		c0.11-0.01,0.23-0.01,0.34,0l0.33,0.03c0.72,0.16,1.41,0.44,2.03,0.83c0.57,0.35,1.12,0.73,1.64,1.14c1.04,0.8,1.99,1.64,2.94,2.51
		c1.88,1.74,3.66,3.55,5.45,5.34l5.34,5.34c0.89,0.88,1.78,1.75,2.71,2.58c0.9,0.84,1.9,1.57,2.97,2.17l0,0
		c0.1,0.05,0.14,0.16,0.1,0.26c-0.04,0.09-0.14,0.13-0.23,0.11c-1.29-0.31-2.5-0.86-3.58-1.62c-1.07-0.71-2.1-1.49-3.08-2.33
		c-1.96-1.66-3.75-3.46-5.53-5.27s-3.54-3.61-5.37-5.32c-0.92-0.85-1.84-1.7-2.79-2.46c-0.47-0.38-0.96-0.73-1.46-1.05
		c-0.44-0.29-0.93-0.51-1.44-0.65c-0.09,0-0.22-0.04-0.28-0.03c-0.06,0.01-0.1,0.02-0.05,0s0.1-0.12,0.08-0.1
		c-0.01,0.06-0.01,0.13,0,0.19c0.11,0.54,0.29,1.05,0.55,1.54c0.56,1.11,1.17,2.18,1.84,3.23c1.33,2.13,2.75,4.23,4.06,6.43
		c0.69,1.1,1.28,2.27,1.76,3.48l1.06,3.68c0.38,1.23,0.64,2.5,0.76,3.79c0.09,1.3-0.1,2.61-0.55,3.84
		c-0.03,0.11-0.15,0.17-0.26,0.14c-0.11-0.03-0.17-0.15-0.14-0.26L86.95,158.87z"/>
	<path class="st0" d="M142.89,200.16c22.55-34.12,6.3-47.39,0-48.64c-6.3-1.25-9.83,1.26-18.14,7.41
		c-8.32,6.15-6.56,23.84-1.01,31.4c0,0-2.14-30.24,14.87-26.72s1.76,12.22,2.52,15.75c0.76,3.53,6.55,6.05,5.92,8.32
		C147.68,191.09,142.39,200.92,142.89,200.16z"/>
	<path class="st0" d="M74.68,201.86c-1.62,0.74-2.96,1.97-3.86,3.5c-0.91,1.53-1.56,3.2-1.92,4.94c-0.37,1.74-0.52,3.52-0.44,5.3
		c0.03,1.75,0.42,3.47,1.14,5.07c0.76,1.58,1.74,3.04,2.91,4.35c1.13,1.31,2.48,2.41,3.98,3.26c0.74,0.39,1.52,0.68,2.34,0.87
		c0.79,0.17,1.61,0.19,2.41,0.06c0.2-0.02,0.4-0.09,0.59-0.13c0.19-0.04,0.4-0.12,0.58-0.19c0.4-0.17,0.8-0.32,1.19-0.5
		c0.79-0.35,1.55-0.76,2.28-1.22c1.45-0.92,2.73-2.08,3.78-3.43c1.03-1.37,1.81-2.91,2.3-4.56c0.48-1.68,0.74-3.4,0.8-5.15
		c0-0.44,0.03-0.88,0.03-1.32c0-0.44-0.03-0.86-0.09-1.28c-0.1-0.85-0.29-1.69-0.58-2.49c-1.13-3.25-3.86-5.86-7.14-7.12
		C81.67,200.5,77.98,200.51,74.68,201.86z M74.43,201.47c3.4-1.53,7.27-1.67,10.78-0.4c1.77,0.61,3.39,1.57,4.78,2.82
		c1.41,1.27,2.51,2.85,3.21,4.61c0.67,1.77,0.98,3.66,0.89,5.55c0,1.87-0.24,3.73-0.74,5.54c-0.51,1.83-1.36,3.56-2.5,5.07
		c-1.15,1.52-2.57,2.8-4.19,3.8c-0.8,0.5-1.63,0.94-2.49,1.32c-0.43,0.19-0.87,0.35-1.3,0.52c-0.23,0.08-0.47,0.16-0.72,0.22
		c-0.24,0.06-0.49,0.12-0.74,0.15c-0.99,0.15-1.99,0.11-2.97-0.12c-0.94-0.23-1.85-0.6-2.69-1.08c-1.62-0.97-3.06-2.21-4.25-3.67
		c-1.2-1.42-2.18-3.02-2.92-4.73c-0.19-0.43-0.35-0.88-0.48-1.33c-0.13-0.45-0.23-0.91-0.31-1.37c-0.15-0.92-0.23-1.84-0.23-2.77
		c-0.02-1.84,0.2-3.67,0.64-5.46c0.42-1.79,1.15-3.5,2.15-5.05c1-1.56,2.42-2.82,4.08-3.64V201.47z"/>
	<path class="st0" d="M291.04,269.05c-0.04-1.11,0.03-2.21,0.21-3.31c0.15-1.07,0.38-2.13,0.68-3.16c0.14-0.51,0.29-1.03,0.47-1.53
		c0.18-0.5,0.37-1,0.57-1.49c0.39-0.99,0.85-1.95,1.35-2.89c2.06-3.72,4.35-7.3,6.86-10.73c5.01-6.9,10.92-13.09,17.56-18.43
		c6.67-5.3,14.2-9.67,22.4-12.4c4.11-1.37,8.36-2.28,12.67-2.71c4.33-0.43,8.69-0.32,13,0.31l0.8,0.11l0.8,0.14l1.55,0.28l1.55,0.28
		l1.55,0.32c2.06,0.4,4.11,0.9,6.17,1.39c4.09,1.03,8.14,2.25,12.12,3.68c7.97,2.86,15.66,6.59,22.66,11.49
		c7,4.89,13.25,10.98,17.92,18.22c2.36,3.61,4.29,7.49,5.73,11.55c1.44,4.06,2.4,8.28,2.89,12.56c0.06,0.53,0.14,1.06,0.17,1.61
		s0.08,1.1,0.1,1.64l0.03,0.82v0.82c0,0.55,0,1.09-0.04,1.63c-0.1,2.16-0.34,4.32-0.73,6.44c-0.78,4.22-2.02,8.34-3.7,12.29
		c-1.65,3.93-3.66,7.7-6.01,11.26c-2.33,3.57-5,6.9-7.97,9.96c-2.97,3.08-6.29,5.81-9.89,8.13c-3.63,2.36-7.6,4.13-11.78,5.23
		c-4.23,1.12-8.66,1.31-12.97,0.57c-4.28-0.79-8.35-2.46-11.95-4.89c-6.99-4.79-13.01-10.88-17.72-17.92
		c-2.36-3.52-4.28-7.31-5.71-11.3c-0.71-2.01-1.24-4.07-1.59-6.17c-0.35-2.12-0.45-4.27-0.31-6.41c0.15-2.16,0.65-4.29,1.49-6.29
		c0.86-2,2.1-3.81,3.66-5.33c1.55-1.49,3.34-2.72,5.29-3.63c1.92-0.89,3.94-1.56,6.01-1.99c2.06-0.43,4.14-0.7,6.24-0.8
		c2.08-0.11,4.17-0.11,6.26,0c4.15,0.26,8.27,0.8,12.35,1.63c0.11,0.02,0.18,0.12,0.16,0.23c0,0,0,0.01,0,0.01
		c-0.02,0.11-0.12,0.17-0.23,0.16c-4.07-0.7-8.18-1.12-12.31-1.25c-2.06-0.05-4.11,0-6.16,0.17c-2.04,0.16-4.06,0.48-6.05,0.96
		c-1.97,0.46-3.89,1.15-5.7,2.05c-1.79,0.89-3.42,2.07-4.83,3.49c-1.37,1.42-2.45,3.1-3.19,4.93c-0.73,1.84-1.15,3.79-1.24,5.77
		c-0.19,3.98,0.67,8,2.08,11.77c1.45,3.79,3.36,7.39,5.69,10.71c4.66,6.67,10.55,12.4,17.35,16.87c3.31,2.17,7.03,3.62,10.93,4.28
		c3.89,0.61,7.87,0.37,11.66-0.7c3.83-1.08,7.46-2.77,10.75-4.99c3.34-2.23,6.41-4.84,9.16-7.77c5.53-5.88,9.92-12.74,12.96-20.22
		c1.52-3.7,2.64-7.56,3.33-11.5c0.7-3.89,0.8-7.86,0.3-11.78c-0.49-3.95-1.42-7.83-2.79-11.57c-1.39-3.72-3.22-7.27-5.43-10.57
		c-4.38-6.65-10.23-12.3-16.85-16.85c-6.62-4.55-13.98-8.07-21.63-10.75c-3.82-1.35-7.73-2.49-11.67-3.46
		c-1.99-0.46-3.98-0.92-5.97-1.3l-1.5-0.3l-1.51-0.26l-1.51-0.26l-0.75-0.13l-0.73-0.1c-7.85-1.09-15.86-0.32-23.35,2.26
		c-7.53,2.48-14.55,6.57-20.8,11.58c-6.28,5.07-11.85,10.95-16.58,17.48c-2.37,3.27-4.55,6.67-6.52,10.2
		c-0.51,0.87-1.05,1.72-1.59,2.59c-0.55,0.86-1.14,1.69-1.72,2.54c-1.22,1.76-2.59,3.4-4.11,4.91c-0.08,0.08-0.22,0.09-0.3,0
		c0,0,0,0,0,0C291.07,269.16,291.04,269.1,291.04,269.05z"/>
	<path class="st0" d="M286.56,283.61c-0.3-0.64-0.43-1.34-0.4-2.04c0.03-0.64,0.16-1.27,0.37-1.88c0.19-0.62,0.44-1.21,0.74-1.78
		c0.31-0.6,0.71-1.15,1.17-1.64c0.09-0.09,0.23-0.09,0.32,0c0.03,0.03,0.05,0.07,0.06,0.12c0.11,0.66,0.15,1.33,0.11,1.99
		c-0.03,0.63-0.11,1.25-0.23,1.87c-0.1,0.62-0.27,1.22-0.53,1.79c-0.27,0.63-0.68,1.2-1.19,1.66c-0.1,0.09-0.26,0.08-0.35-0.02
		c0,0,0,0-0.01-0.01C286.6,283.65,286.58,283.63,286.56,283.61z"/>
	<path class="st1" d="M401.83,175.99l3.48,4.9l3.58,4.82l3.69,4.75c1.26,1.56,2.49,3.14,3.76,4.69c2.53,3.11,5.08,6.2,7.67,9.27
		c2.57,3.08,5.15,6.16,7.65,9.31c2.5,3.15,4.93,6.37,7.17,9.75l0.83,1.29c0.27,0.43,0.56,0.84,0.8,1.29l1.54,2.63
		c0.94,1.8,1.92,3.58,2.7,5.48l0.61,1.4c0.21,0.47,0.37,0.94,0.55,1.41l1.07,2.84c0.37,0.94,0.67,1.91,0.98,2.87l0.94,2.89
		l0.82,2.93c0.27,0.98,0.56,1.95,0.76,2.94l0.68,2.96l0.17,0.74l0.14,0.74l0.27,1.5c0.74,3.99,1.26,8.02,1.56,12.07
		c0.11,2.02,0.27,4.05,0.27,6.08c0,1.01,0.06,2.03,0.04,3.04l-0.05,3.04c-0.12,4.05-0.4,8.1-0.82,12.11s-0.97,8.02-1.59,12.01
		c-0.56,4.04-1.38,8.04-2.47,11.97l-0.91,2.94c-0.33,0.97-0.71,1.92-1.06,2.89c-0.35,0.96-0.8,1.9-1.19,2.84l-0.62,1.41l-0.69,1.38
		c-3.61,7.39-8.69,14.02-14.58,19.71c-5.94,5.67-12.67,10.44-19.98,14.17c-7.28,3.77-15.03,6.54-23.04,8.26
		c-4.01,0.86-8.08,1.43-12.18,1.7c-1.02,0.08-2.06,0.09-3.08,0.14c-1.03,0.05-2.1,0-3.14-0.03c-2.06-0.11-4.12-0.34-6.16-0.69
		c-4.06-0.7-8.05-1.72-11.95-3.05c-3.87-1.31-7.66-2.85-11.35-4.6c-3.69-1.74-7.28-3.66-10.78-5.76c-3.5-2.09-6.89-4.36-10.16-6.79
		c-3.27-2.43-6.42-5.04-9.41-7.81c-2.98-2.79-5.8-5.75-8.43-8.87c-2.65-3.12-5.05-6.45-7.17-9.96c-1.05-1.76-2.06-3.54-2.94-5.4
		c-0.89-1.85-1.69-3.74-2.39-5.67c-0.69-1.93-1.27-3.9-1.73-5.89c-0.45-2-0.76-4.02-0.96-6.06c-0.33-4.05-0.12-8.13,0.61-12.12
		c0.02-0.11,0.12-0.18,0.23-0.16c0,0,0,0,0,0c0.1,0.02,0.17,0.11,0.16,0.21c-0.21,4-0.17,8,0.53,11.88
		c0.33,1.94,0.78,3.86,1.34,5.75c0.59,1.88,1.25,3.73,2.01,5.54c0.76,1.81,1.64,3.58,2.58,5.29s1.96,3.41,3.04,5.05
		c2.19,3.27,4.6,6.39,7.22,9.33c1.3,1.48,2.66,2.9,4.05,4.3c1.39,1.4,2.84,2.74,4.3,4.06c2.93,2.64,6.01,5.12,9.19,7.46
		c6.36,4.7,13.15,8.78,20.28,12.18c3.56,1.69,7.22,3.17,10.96,4.44c3.7,1.28,7.49,2.26,11.35,2.93c1.91,0.33,3.83,0.54,5.76,0.65
		c0.96,0.05,1.9,0.06,2.88,0.04s1.96-0.05,2.93-0.12c3.91-0.25,7.8-0.78,11.64-1.59c7.71-1.62,15.17-4.25,22.19-7.81
		c7.03-3.53,13.52-8.06,19.24-13.46c5.72-5.38,10.47-11.7,14.05-18.69l0.67-1.31l0.6-1.34c0.4-0.9,0.83-1.78,1.16-2.7
		c0.33-0.92,0.72-1.82,1.04-2.74l0.9-2.79c1.08-3.79,1.92-7.65,2.5-11.55c0.64-3.94,1.24-7.89,1.68-11.84
		c0.25-1.99,0.4-3.96,0.59-5.94c0.1-0.99,0.13-1.99,0.2-2.98c0.07-0.98,0.14-1.99,0.16-2.97l0.09-2.98c0.04-0.99,0-1.99,0-2.98
		c0.02-1.99-0.1-3.98-0.18-5.95c-0.23-3.96-0.68-7.91-1.35-11.82l-0.25-1.47l-0.13-0.73l-0.16-0.73l-0.63-2.91
		c-0.19-0.98-0.46-1.93-0.71-2.89l-0.76-2.88l-0.88-2.85c-0.3-0.95-0.57-1.9-0.92-2.84l-1-2.81c-0.17-0.47-0.32-0.95-0.51-1.4
		l-0.57-1.37c-0.71-1.84-1.62-3.58-2.51-5.37l-1.45-2.59c-0.23-0.44-0.51-0.86-0.77-1.28l-0.8-1.26c-2.13-3.36-4.44-6.61-6.89-9.78
		c-2.44-3.17-4.94-6.3-7.45-9.43s-5.02-6.26-7.49-9.43c-4.95-6.33-9.63-12.86-14.05-19.57c-0.06-0.09-0.03-0.22,0.06-0.27
		c0.09-0.05,0.2-0.03,0.26,0.05L401.83,175.99z"/>
	<path class="st0" d="M376.08,130.53c2.23,2.71,4.31,5.55,6.21,8.5c1.91,2.94,3.69,5.95,5.36,9.02c1.68,3.07,3.24,6.2,4.65,9.41
		c0.71,1.59,1.37,3.19,2.06,4.78s1.35,3.21,1.96,4.87l0,0c0.04,0.1-0.02,0.22-0.12,0.26c-0.08,0.03-0.17,0.01-0.23-0.06
		c-2.21-2.74-4.19-5.66-5.91-8.74c-1.75-3.01-3.41-6.07-5.04-9.13c-1.63-3.06-3.23-6.15-4.8-9.26c-1.57-3.11-3.09-6.24-4.49-9.47
		c-0.04-0.1,0-0.22,0.1-0.27C375.93,130.42,376.03,130.45,376.08,130.53z"/>
	<path class="st0" d="M342.82,93.84c0.85-0.12,1.71-0.08,2.54,0.12c0.82,0.19,1.62,0.45,2.39,0.8c1.52,0.68,2.96,1.51,4.31,2.49
		c2.62,1.92,5.02,4.12,7.17,6.56c2.15,2.38,4.08,4.94,5.79,7.66c0.86,1.35,1.65,2.74,2.37,4.18c0.74,1.44,1.38,2.93,1.9,4.46
		c0.04,0.11-0.02,0.23-0.13,0.26c-0.07,0.02-0.14,0.01-0.2-0.04c-1.27-1.04-2.39-2.15-3.53-3.27c-1.14-1.12-2.2-2.26-3.25-3.42
		c-2.12-2.3-4.13-4.66-6.15-6.99c-2.02-2.33-4.04-4.64-6.15-6.84c-1.06-1.09-2.13-2.17-3.28-3.14c-1.12-1.02-2.41-1.83-3.81-2.39
		l0,0c-0.1-0.04-0.16-0.16-0.12-0.26C342.67,93.91,342.74,93.85,342.82,93.84z"/>
	<path class="st0" d="M328.89,147.94c-1.32,0.08-2.63,0.18-3.94,0.32c-1.31,0.14-2.61,0.33-3.9,0.54c-2.57,0.41-5.1,1.07-7.54,1.97
		c-1.19,0.45-2.34,1.01-3.43,1.68c-1.06,0.64-2.02,1.45-2.82,2.39c-0.77,0.93-1.33,2.02-1.64,3.19c-0.08,0.29-0.11,0.59-0.17,0.89
		c-0.06,0.3-0.07,0.64-0.11,0.96c-0.05,0.64-0.09,1.28-0.1,1.92c-0.02,1.26,0.12,2.53,0.4,3.76c0.25,1.2,0.77,2.32,1.51,3.29
		c0.74,0.93,1.77,1.58,2.93,1.85c1.2,0.24,2.44,0.18,3.62-0.18c0.61-0.17,1.2-0.4,1.76-0.68l0.43-0.2c0.14-0.07,0.27-0.16,0.4-0.23
		l0.4-0.24l0.2-0.12l0.19-0.14c1.04-0.71,1.9-1.64,2.51-2.74c0.61-1.11,0.9-2.36,0.84-3.62c-0.02-0.31-0.06-0.63-0.11-0.94
		l-0.12-0.46l-0.06-0.23l-0.08-0.22l-0.17-0.45c-0.07-0.14-0.15-0.28-0.22-0.42l-0.11-0.21c-0.04-0.07-0.09-0.13-0.14-0.2l-0.27-0.4
		l0,0c-0.06-0.1-0.02-0.22,0.07-0.27c0.08-0.04,0.17-0.03,0.23,0.03c0.93,1.03,1.5,2.34,1.63,3.73c0.13,1.39-0.12,2.8-0.73,4.06
		c-0.62,1.26-1.53,2.36-2.67,3.19l-0.21,0.16l-0.22,0.14l-0.44,0.28c-0.15,0.09-0.29,0.19-0.44,0.27l-0.46,0.23
		c-0.61,0.32-1.25,0.59-1.91,0.8c-1.36,0.46-2.8,0.57-4.21,0.33c-0.72-0.14-1.42-0.41-2.05-0.8c-0.63-0.38-1.19-0.87-1.66-1.43
		c-0.9-1.12-1.53-2.42-1.85-3.82c-0.33-1.34-0.49-2.73-0.47-4.11c0-0.69,0.04-1.37,0.09-2.04c0.04-0.34,0.06-0.67,0.11-1.02
		c0.04-0.35,0.11-0.71,0.2-1.06c0.34-1.4,1.01-2.7,1.94-3.8c0.91-1.07,1.98-1.98,3.19-2.7c1.18-0.7,2.43-1.27,3.72-1.72
		c1.28-0.45,2.58-0.81,3.9-1.08c1.32-0.28,2.65-0.49,3.98-0.63c1.33-0.16,2.66-0.23,3.98-0.27c1.32-0.04,2.66-0.04,3.98,0.04
		c0.11,0.01,0.19,0.1,0.19,0.21c0,0,0,0,0,0C329.07,147.82,329,147.92,328.89,147.94z"/>
	<path class="st0" d="M284.09,261.91c-0.24-0.53-0.45-1.07-0.63-1.63c-0.11-0.26-0.21-0.52-0.29-0.8c-0.04-0.13-0.09-0.26-0.13-0.4
		c-0.04-0.14-0.1-0.25-0.15-0.4c-0.2-0.51-0.34-1.03-0.55-1.54s-0.35-1.04-0.56-1.55c-0.84-2.07-1.82-4.09-2.95-6.02
		c-1.11-1.99-2.31-3.93-3.43-5.97c-0.27-0.53-0.56-1.03-0.8-1.59l-0.4-0.8l-0.33-0.86c-0.4-1.13-0.73-2.21-1.08-3.32
		c-1.35-4.4-2.56-8.85-3.62-13.33c-0.53-2.25-1.02-4.5-1.43-6.77c-0.45-2.3-0.71-4.64-0.78-6.99c-0.01-0.62,0.03-1.24,0.1-1.85
		c0.07-0.73,0.32-1.43,0.72-2.04c0.06-0.09,0.13-0.17,0.21-0.25l0.15-0.16l0.31-0.31l0.61-0.62l1.22-1.22l4.89-4.83l9.83-9.62
		c3.28-3.19,6.56-6.4,9.82-9.62c1.63-1.61,3.25-3.23,4.86-4.86c0.8-0.8,1.59-1.62,2.39-2.45c0.4-0.4,0.8-0.83,1.19-1.25
		c0.38-0.4,0.73-0.83,1.05-1.28l0.02-0.04c0.05-0.09,0.17-0.12,0.26-0.07c0,0,0.01,0,0.01,0.01c0.09,0.06,0.12,0.17,0.07,0.26
		c-0.31,0.51-0.66,0.98-1.06,1.43c-0.37,0.44-0.74,0.88-1.13,1.31c-0.76,0.86-1.53,1.71-2.3,2.56c-1.56,1.69-3.13,3.36-4.71,5.02
		c-3.15,3.32-6.33,6.64-9.51,9.93l-9.6,9.85l-4.81,4.91l-1.19,1.23l-0.59,0.62l-0.29,0.31l-0.14,0.15
		c-0.05,0.06-0.04,0.06-0.06,0.08c-0.2,0.37-0.32,0.78-0.35,1.19c-0.06,0.53-0.08,1.06-0.06,1.59c0.11,2.23,0.39,4.46,0.84,6.65
		c0.42,2.23,0.93,4.44,1.47,6.65c1.1,4.42,2.36,8.81,3.71,13.17c0.34,1.08,0.68,2.19,1.06,3.22l0.29,0.74l0.35,0.74
		c0.22,0.49,0.51,0.98,0.75,1.48c1.08,1.97,2.29,3.92,3.43,5.94c1.18,2.03,2.22,4.13,3.11,6.3c0.47,1.11,0.79,2.28,0.94,3.47
		c0.05,0.3,0.07,0.61,0.06,0.91c0,0.31,0,0.61-0.02,0.92c-0.06,0.61-0.19,1.22-0.4,1.8c-0.04,0.11-0.16,0.17-0.27,0.13
		c-0.05-0.02-0.09-0.05-0.12-0.1L284.09,261.91z"/>
	<path class="st2" d="M317.3,157.82c3.15-3.02,9.45-8.44,11.59-9.07"/>
	<path class="st0" d="M305.9,171.52c0,0.67,0.13,1.33,0.37,1.96c0.23,0.64,0.52,1.26,0.86,1.85c0.33,0.6,0.71,1.17,1.13,1.71
		c0.41,0.55,0.85,1.07,1.31,1.57c1.87,1.99,4.16,3.52,6.71,4.49c2.54,0.95,5.26,1.36,7.97,1.19c1.35-0.07,2.69-0.3,3.98-0.7
		c1.28-0.43,2.51-0.99,3.67-1.7c0.59-0.34,1.14-0.74,1.69-1.13s1.07-0.84,1.57-1.31c1.01-0.92,1.94-1.92,2.79-2.99
		c0.85-1.08,1.62-2.21,2.31-3.4c0.68-1.19,1.28-2.43,1.78-3.71c0.49-1.28,0.88-2.6,1.17-3.94c0.27-1.35,0.42-2.71,0.45-4.09
		c0.07-2.77-0.56-5.51-1.83-7.97l0,0c-0.05-0.1-0.02-0.22,0.08-0.27c0.1-0.05,0.22-0.02,0.27,0.08c1.44,2.47,2.21,5.28,2.24,8.14
		c0.04,2.86-0.46,5.71-1.45,8.4c-0.97,2.69-2.36,5.21-4.11,7.47c-0.87,1.13-1.84,2.19-2.9,3.16c-0.52,0.49-1.08,0.94-1.64,1.39
		c-0.56,0.45-1.16,0.85-1.78,1.22c-1.23,0.76-2.55,1.38-3.92,1.84c-1.39,0.45-2.83,0.71-4.28,0.78c-1.44,0.07-2.88,0-4.31-0.22
		c-1.43-0.22-2.83-0.61-4.17-1.15c-1.34-0.54-2.61-1.24-3.78-2.09c-1.17-0.84-2.24-1.81-3.19-2.9c-0.96-1.08-1.76-2.29-2.39-3.58
		c-0.32-0.64-0.59-1.31-0.8-1.99c-0.22-0.7-0.29-1.44-0.23-2.17c0.01-0.11,0.11-0.19,0.22-0.18c0.11,0.01,0.19,0.11,0.18,0.22l0,0
		L305.9,171.52z"/>
	<path class="st0" d="M340.71,168.77c-1.05,0.74-2.13,1.43-3.25,2.07c-1.12,0.65-2.29,1.23-3.49,1.72
		c-1.22,0.51-2.51,0.85-3.83,0.98c-1.31,0.12-2.63,0.03-3.91-0.29c-0.11-0.03-0.17-0.14-0.14-0.25c0.02-0.08,0.09-0.14,0.18-0.15
		c1.28-0.12,2.52-0.21,3.73-0.44c1.21-0.22,2.4-0.55,3.55-0.98c2.33-0.87,4.6-2.04,6.97-3.03c0.1-0.04,0.22,0.01,0.26,0.11
		C340.81,168.61,340.78,168.71,340.71,168.77z"/>
	<path class="st0" d="M333.46,179.56c-1.17,0.37-2.35,0.66-3.55,0.89c-1.21,0.25-2.44,0.39-3.68,0.43c-1.27,0.05-2.54-0.1-3.76-0.45
		c-1.21-0.35-2.35-0.9-3.37-1.64c-0.09-0.06-0.11-0.19-0.05-0.28c0.05-0.07,0.14-0.1,0.22-0.08c1.19,0.3,2.32,0.61,3.47,0.8
		c1.14,0.17,2.3,0.25,3.46,0.23c1.17,0,2.35-0.1,3.56-0.17c1.2-0.07,2.41-0.14,3.64-0.11c0.11,0,0.2,0.09,0.2,0.2c0,0,0,0,0,0
		C333.59,179.47,333.54,179.54,333.46,179.56z"/>
	<path class="st0" d="M164.05,303.12c-0.75-0.7-1.28-1.6-1.55-2.59c-0.13-0.53-0.12-1.09,0.03-1.62c0.17-0.54,0.5-1.02,0.94-1.37
		c0.1-0.09,0.21-0.17,0.33-0.24l0.17-0.12l0.15-0.1l0.61-0.4c0.2-0.13,0.4-0.25,0.6-0.4l0.58-0.4l0.58-0.4l0.56-0.44l0.55-0.44
		l0.53-0.47c1.41-1.26,2.69-2.66,3.81-4.18c1.13-1.52,2.13-3.13,2.99-4.82c1.71-3.4,3.04-6.98,3.98-10.67
		c0.49-1.86,0.94-3.72,1.33-5.58c0.4-1.88,0.76-3.78,1.16-5.68c0.02-0.11,0.13-0.18,0.23-0.16c0,0,0,0,0,0
		c0.09,0.02,0.16,0.11,0.16,0.2c-0.11,3.9-0.59,7.78-1.45,11.58c-0.86,3.84-2.23,7.55-4.05,11.04c-0.93,1.74-2.01,3.4-3.23,4.96
		c-1.23,1.55-2.62,2.97-4.15,4.23l-0.58,0.47l-0.6,0.43l-0.6,0.43l-0.63,0.4c-0.41,0.27-0.84,0.52-1.27,0.75l-0.65,0.35l-0.16,0.09
		l-0.14,0.08c-0.09,0.05-0.18,0.1-0.26,0.17c-0.69,0.49-1.03,1.35-0.86,2.18c0.17,0.91,0.59,1.75,1.19,2.45l0,0
		c0.07,0.09,0.06,0.21-0.03,0.28c-0.08,0.06-0.19,0.06-0.26-0.01L164.05,303.12z"/>
	<path class="st0" d="M171.76,295.6c-2.35,2.79-4.89,5.36-7.24,8.05c-0.58,0.68-1.15,1.35-1.68,2.04c-0.26,0.33-0.49,0.68-0.71,1.04
		c-0.18,0.26-0.32,0.56-0.4,0.87c-0.11,0.73-0.02,1.47,0.25,2.15c0.31,0.74,0.73,1.42,1.25,2.03c0.54,0.66,1.13,1.29,1.76,1.87
		l0.48,0.45c0.18,0.16,0.35,0.32,0.52,0.49c0.34,0.32,0.65,0.66,0.96,0.99c1.16,1.32,2.43,2.53,3.8,3.63
		c1.31,1.05,2.91,1.67,4.58,1.77c1.68,0.08,3.39-0.49,4.99-1.28l0,0c0.1-0.05,0.22-0.01,0.27,0.09c0,0,0,0,0,0
		c0.04,0.08,0.02,0.19-0.06,0.25c-1.48,1.2-3.28,1.94-5.18,2.13c-1.97,0.09-3.92-0.47-5.54-1.59c-1.63-1.04-2.95-2.39-4.24-3.64
		l-0.96-0.92c-0.16-0.15-0.31-0.29-0.47-0.43l-0.52-0.47c-0.71-0.64-1.37-1.33-1.99-2.06c-0.66-0.77-1.18-1.65-1.55-2.59
		c-0.39-1.01-0.5-2.11-0.32-3.19c0.03-0.17,0.07-0.33,0.13-0.49c0.05-0.14,0.11-0.27,0.18-0.4c0.06-0.13,0.13-0.25,0.2-0.36
		c0.07-0.11,0.14-0.22,0.21-0.33c0.27-0.4,0.56-0.79,0.88-1.16c0.6-0.73,1.23-1.4,1.88-2.05c2.6-2.54,5.34-4.93,8.21-7.17l0,0
		c0.09-0.06,0.21-0.05,0.28,0.04c0.05,0.07,0.05,0.17,0,0.24L171.76,295.6z"/>
	<path class="st0" d="M179.44,300.12c-1.37,1.15-2.73,2.3-4.02,3.52c-0.65,0.6-1.26,1.23-1.84,1.9c-0.59,0.63-1.07,1.34-1.44,2.12
		c-0.17,0.34-0.22,0.74-0.14,1.11c0.11,0.38,0.31,0.74,0.58,1.04c0.59,0.65,1.22,1.27,1.89,1.84c0.69,0.59,1.33,1.24,1.91,1.94
		c0.61,0.71,1.04,1.56,1.25,2.47c0.02,0.11-0.05,0.21-0.16,0.23c-0.1,0.02-0.2-0.05-0.23-0.15c-0.23-0.83-0.66-1.6-1.25-2.23
		c-0.59-0.65-1.23-1.26-1.91-1.83c-0.71-0.57-1.38-1.2-1.99-1.87c-0.33-0.37-0.57-0.81-0.71-1.29c-0.07-0.26-0.09-0.53-0.04-0.8
		c0.04-0.25,0.1-0.49,0.2-0.72c0.39-0.85,0.91-1.63,1.55-2.31c0.61-0.67,1.25-1.32,1.92-1.92c1.34-1.2,2.74-2.33,4.21-3.37
		c0.09-0.06,0.21-0.04,0.28,0.05C179.52,299.93,179.51,300.05,179.44,300.12L179.44,300.12z"/>
	<path class="st0" d="M178.38,291.28c-0.33,1.24-0.29,2.54,0.1,3.76c0.47,1.19,1.16,2.29,2.02,3.23c0.4,0.49,0.86,0.97,1.3,1.45
		c0.44,0.48,0.88,0.98,1.32,1.47c0.87,0.98,1.74,1.96,2.65,2.89c1.77,1.9,3.78,3.56,5.97,4.95c1.1,0.68,2.28,1.21,3.51,1.57
		c1.23,0.37,2.53,0.49,3.81,0.36l0,0c0.11-0.01,0.21,0.07,0.22,0.18c0.01,0.11-0.07,0.21-0.18,0.22c-1.33,0.18-2.68,0.1-3.98-0.24
		c-1.29-0.35-2.53-0.88-3.68-1.56c-2.26-1.39-4.33-3.08-6.15-5.02c-0.92-0.95-1.8-1.94-2.66-2.92c-0.43-0.49-0.86-0.99-1.3-1.47
		c-0.44-0.48-0.88-0.98-1.3-1.5c-0.9-1.01-1.59-2.18-2.06-3.45c-0.21-0.65-0.31-1.33-0.29-2.02c0.02-0.67,0.12-1.34,0.29-1.99
		c0.03-0.11,0.14-0.17,0.24-0.14C178.33,291.08,178.4,291.18,178.38,291.28L178.38,291.28z"/>
	<path class="st0" d="M198.79,263.7c0.2,0.47,0.33,0.97,0.4,1.49c0.08,0.49,0.12,0.98,0.16,1.48c0.08,0.99,0.1,1.99,0.1,2.96
		c0,1.99-0.1,3.94-0.3,5.9c-0.18,1.97-0.48,3.92-0.88,5.86c-0.21,0.98-0.48,1.94-0.8,2.89c-0.17,0.48-0.36,0.95-0.58,1.41
		c-0.23,0.48-0.52,0.93-0.86,1.33c-1.27,1.43-2.3,3.05-3.06,4.81c-0.76,1.73-1.03,3.64-0.8,5.51c0.31,1.88,1.08,3.66,2.24,5.18
		c1.18,1.54,2.54,2.92,4.07,4.11l0,0c0.08,0.07,0.1,0.19,0.03,0.27c0,0,0,0,0,0c-0.07,0.08-0.19,0.1-0.27,0.04
		c-1.63-1.14-3.09-2.49-4.35-4.03c-1.29-1.57-2.16-3.44-2.52-5.43c-0.31-2.02-0.07-4.09,0.71-5.97c0.79-1.85,1.86-3.57,3.19-5.09
		c0.56-0.73,0.98-1.56,1.24-2.44c0.3-0.91,0.55-1.85,0.74-2.79c0.4-1.89,0.7-3.81,0.93-5.74c0.23-1.93,0.4-3.87,0.49-5.81
		c0.04-0.97,0.07-1.95,0.06-2.92c0-0.49,0-0.97-0.06-1.45c-0.02-0.47-0.1-0.93-0.23-1.38l0,0c-0.04-0.1,0.01-0.22,0.11-0.26
		c0.1-0.04,0.22,0.01,0.26,0.11L198.79,263.7z"/>
	<path class="st0" d="M182.28,321.4c0.98,0.3,1.98,0.53,3,0.69c1.99,0.33,4.03,0.1,5.9-0.67c0.95-0.38,1.87-0.83,2.76-1.33l0,0
		c0.09-0.05,0.21-0.02,0.27,0.07c0,0,0,0,0,0.01c0.05,0.08,0.03,0.19-0.04,0.25c-0.8,0.71-1.7,1.3-2.67,1.76
		c-0.99,0.46-2.04,0.75-3.13,0.86c-1.08,0.1-2.17,0.03-3.23-0.21c-1.04-0.24-2.05-0.59-3.01-1.06c-0.1-0.05-0.14-0.16-0.1-0.26
		C182.08,321.41,182.19,321.37,182.28,321.4z"/>
	<path class="st0" d="M187.2,315.91c0.63,0.16,1.25,0.38,1.83,0.67c0.58,0.29,1.14,0.62,1.67,0.99c0.47,0.36,1,0.64,1.55,0.84
		c0.59,0.15,1.19,0.24,1.79,0.26l0,0c0.11,0.01,0.19,0.1,0.19,0.21c-0.01,0.09-0.07,0.17-0.16,0.19c-1.34,0.34-2.75,0.03-3.83-0.82
		c-0.53-0.36-1.03-0.71-1.56-1.03c-0.53-0.32-1.08-0.62-1.63-0.93l0,0c-0.09-0.05-0.13-0.17-0.07-0.27c0,0,0,0,0-0.01
		C187.02,315.93,187.11,315.89,187.2,315.91z"/>
	<path class="st3" d="M273.19,215.78c17.13-13.86,37.29-35.61,37.29-35.61"/>
	<path class="st3" d="M323.1,169.12c0,0,26.72-26.62,40.83-27.19c4.91,0.63,8.32-6.42,8.06-9.7c4.66-3.15,32.89-23.82,32.89-23.82"
		/>
	<path class="st3" d="M338.04,140.34c0,0,10.26-6.72,11.65-10.12c1.39-3.4,3.41-14.49,18.27-8.95c0.51-0.11,1.04-0.25,1.59-0.4
		c12.91-3.95,32.2-22.78,32.2-22.78"/>
	<path class="st3" d="M275.79,241.96c0,0,83.47-52.16,89.9-61.79c6.43-9.63,16.26-4.49,16.26-4.49s63.89-40.29,72.96-65.24"/>
	<path class="st3" d="M280.38,250.07c0,0,86.45-57.23,93.63-56.09c7.18,1.14,8.69-4.81,12.48-9.02c3.78-4.21,57.84-35.21,79.39-67.7
		"/>
	<path class="st3" d="M77.04,410.23c0,0,85.63-79.87,102.27-87.57c7.81-3.76,7.94-9.43,17.77-11.4"/>
	<path class="st3" d="M199.1,305.13c8.57-6.43,41.46-29.59,46.37-31.43"/>
	<path class="st3" d="M65.14,405.69c7.94-10.59,89.88-88.21,99.68-90.86"/>
	<path class="st3" d="M197.08,293.79c6.05-4.89,43.6-30.38,48.89-31.12"/>
	<path class="st3" d="M222.29,270.22c-3.66,4.66-17.49,18.28-23.24,22.06"/>
	<path class="st3" d="M89.23,415.14c10.7-12.48,67.63-70.22,71.49-79.15"/>
	<path class="st3" d="M93.51,428.75c10.95-12.1,81.27-84.68,90.72-103.95"/>
	<path class="st0" d="M80.14,201.59c-6.49,0-11.76,5.97-11.76,13.31c0,7.33,5.27,13.3,11.76,13.3c6.49,0,11.76-5.97,11.76-13.3
		C91.9,207.56,86.64,201.59,80.14,201.59z M81.99,214.02c-2.35-2.69-6.37-3.86-7.9-3.86s-1.76-1.72-1.35-3.19s5.55-4.03,9.24-2.86
		S90.47,212.38,81.99,214.02z"/>
	<path class="st0" d="M262.96,274.95c1.06,1.55,1.87,3.21,2.81,4.66c0.24,0.36,0.47,0.71,0.73,1.04c0.25,0.33,0.53,0.63,0.8,0.94
		c0.51,0.64,1.08,1.22,1.71,1.75c0.17,0.13,0.35,0.23,0.53,0.35c0.18,0.12,0.4,0.24,0.61,0.36s0.4,0.26,0.61,0.4
		c0.2,0.13,0.4,0.28,0.58,0.43c0.76,0.59,1.43,1.29,1.99,2.07c0.57,0.77,1.01,1.63,1.32,2.53c0.31,0.89,0.44,1.84,0.37,2.79
		c0,0.11-0.09,0.2-0.2,0.2s-0.2-0.09-0.2-0.2l0,0c-0.02-0.88-0.22-1.75-0.59-2.55c-0.37-0.79-0.86-1.52-1.45-2.17
		c-0.59-0.64-1.26-1.19-1.99-1.65c-0.18-0.12-0.37-0.23-0.56-0.32c-0.19-0.1-0.37-0.21-0.57-0.29l-0.61-0.27l-0.68-0.29
		c-0.94-0.39-1.79-0.98-2.5-1.72c-0.33-0.38-0.62-0.8-0.88-1.23c-0.25-0.42-0.48-0.85-0.67-1.3c-0.38-0.87-0.69-1.76-0.93-2.68
		c-0.25-0.9-0.45-1.79-0.62-2.71c-0.02-0.11,0.05-0.22,0.16-0.24c0,0,0,0,0,0C262.82,274.85,262.91,274.88,262.96,274.95z"/>
	<path class="st0" d="M272.19,270.12c1.37,1.63,2.82,3.18,4.36,4.66c1.52,1.48,3.07,2.94,4.65,4.36s3.17,2.83,4.78,4.21
		c1.62,1.38,3.25,2.74,4.95,4.08l0,0c0.09,0.06,0.11,0.19,0.04,0.28c-0.06,0.08-0.16,0.1-0.24,0.06c-2.02-0.84-3.93-1.91-5.71-3.19
		c-3.56-2.51-6.79-5.47-9.59-8.8c-1.44-1.66-2.64-3.5-3.58-5.48c-0.06-0.09-0.03-0.22,0.06-0.27c0.09-0.06,0.22-0.03,0.27,0.06l0,0
		L272.19,270.12z"/>
	<path class="st0" d="M285.29,263.54c0.5-0.12,1.03-0.11,1.53,0.04c0.47,0.14,0.92,0.34,1.33,0.6c0.78,0.5,1.48,1.11,2.09,1.81
		c1.21,1.31,2.34,2.68,3.39,4.12c0.54,0.69,1.05,1.41,1.57,2.11l1.55,2.1c0.53,0.68,1.04,1.38,1.59,2.02
		c0.52,0.66,1.15,1.22,1.86,1.66l0,0c0.1,0.05,0.14,0.17,0.09,0.27c-0.04,0.08-0.14,0.13-0.23,0.1c-0.89-0.27-1.7-0.73-2.39-1.35
		c-0.69-0.57-1.35-1.18-1.97-1.83c-0.62-0.63-1.22-1.29-1.8-1.95c-0.58-0.66-1.17-1.31-1.72-1.99c-1.14-1.32-2.27-2.64-3.44-3.87
		c-0.59-0.61-1.19-1.19-1.75-1.76l-0.84-0.87c-0.3-0.29-0.61-0.55-0.94-0.8h-0.02c-0.1-0.07-0.12-0.21-0.05-0.3c0,0,0,0,0,0
		C285.18,263.59,285.23,263.55,285.29,263.54z"/>
	<path class="st0" d="M393.15,252.5c7.22,5.88,12.94,36.32-1.19,38.74c-14.13,2.42-24.69-13.61-34.44-12.65
		c-9.75,0.96-7.19,23.81,4.57,37.59c6.56,8.94,19.04,19.64,40.35,14.19c21.31-5.45,34.42-34.32,33.41-39.13
		C434.84,286.44,416.35,247.62,393.15,252.5z"/>
	<path class="st0" d="M115.59,175.68c-3.02,0.37-22.01-0.98-17.13,35.49c4.88,36.46,17.22,20.75,14.11,4.62c-3-16,0-19.24,7.9-26.13
		C121.79,181.15,115.59,175.68,115.59,175.68z"/>
	<path class="st0" d="M36.83,239.18c1.47-1.16,7.77,2.12,8.15,5.27c0.38,3.15-0.32,8.42-3.31,9.06
		C38.68,254.16,33.6,241.72,36.83,239.18z"/>
	<path class="st0" d="M78.52,134.88c1.28-1.27,15.46,17.56,13.4,20.81l-4.18,2.81C89.93,153.9,78.03,135.35,78.52,134.88z"/>
	<path class="st0" d="M140.62,201.59c-3.35-0.15-2.52,12.18-7.81,14.2c-5.29,2.02-3.28-5.29-5.55-5.04
		c-2.27,0.25-11.66,9.44-8.22,17.45s23.35-2.58,27.38-12.41C150.46,205.95,144.41,201.75,140.62,201.59z"/>
	<path class="st0" d="M169.1,221.33c3.78-10.08,20.67-31.25,29.99-30.75s29.32,10.71,33.02,25.72s-10.08-7.08-23.69-10.35
		c-13.61-3.28-24.69,17.13-29.11,16.89C174.89,222.6,169.1,221.33,169.1,221.33z"/>
	<path class="st0" d="M240.18,197.98c0.57,3.65,8.32,8.48,8.32,12.26c0,3.78,1.51,19.91,0,24.95c-1.51,5.04,9.08,10.26,12.1,11.05
		c3.02,0.8-6.05-17.35-5.29-21.39s-3.78-20.31-6.05-23.27s-3.27-12.74,7.31-17.92c4.03-7.97,11.34-16.67,20.92-3.48
		c2.9,0,2.02-10.26,5.04-10.51c3.03-0.25,4.54,2.27,5.18-5.54c0.63-7.81,4.35-34.02-2.43-40.57
		C278.49,117,237.91,183.44,240.18,197.98z"/>
</g>
</svg>
