<?xml version="1.0" encoding="utf-8"?>
<!-- Generator: Adobe Illustrator 25.2.3, SVG Export Plug-In . SVG Version: 6.00 Build 0)  -->
<svg version="1.1" id="Layer_1" xmlns="http://www.w3.org/2000/svg" xmlns:xlink="http://www.w3.org/1999/xlink" x="0px" y="0px"
	 viewBox="0 0 500 500" style="enable-background:new 0 0 500 500;" xml:space="preserve">
<style type="text/css">
	.st0{fill:#FFFFFF;}
	.st1{font-family:'AppleJuiced';}
	.st2{font-size:72.2726px;}
	.st3{fill:#FFFFFF;stroke:#FFFFFF;stroke-miterlimit:10;}
	.st4{fill:none;stroke:#FFFFFF;stroke-linecap:round;stroke-miterlimit:10;}
	.st5{fill:none;stroke:#FFFFFF;stroke-width:3;stroke-linecap:round;stroke-miterlimit:10;}
</style>
<text transform="matrix(1 0 0 1 88.0262 363.3686)" class="st0 st1 st2">GLIRIDAE</text>
<path class="st0" d="M230.69,207.86c-1.27,1.15-2.64,2.19-4.1,3.11l-1.11,0.66l-1.14,0.6l-0.29,0.15l-0.29,0.14l-0.59,0.27
	c-0.2,0.09-0.39,0.18-0.59,0.27l-0.59,0.24c-3.19,1.31-6.59,2.05-10.02,2.45c-3.42,0.39-6.88,0.41-10.31,0.25
	c-1.72-0.08-3.43-0.21-5.14-0.35l-2.55-0.21c-0.85-0.06-1.7-0.12-2.53-0.13c-0.83-0.01-1.68,0.06-2.53,0.08l-2.57,0.1l-5.13,0.17
	c-3.42,0.1-6.85,0.18-10.27,0.22c-1.71,0.02-3.43,0.04-5.14,0.04s-3.43-0.01-5.17-0.08c-0.43-0.02-0.87-0.04-1.32-0.08l-0.34-0.04
	l-0.17-0.02l-0.2-0.03l-0.2-0.04c-0.09-0.03-0.2-0.06-0.29-0.09l-0.15-0.06l-0.04-0.02l-0.06-0.02c-0.37-0.11-0.75-0.2-1.14-0.28
	c-0.41-0.08-0.82-0.15-1.23-0.22c-1.66-0.27-3.35-0.47-5.04-0.65c-1.69-0.17-3.38-0.31-5.07-0.39c-0.84-0.04-1.69-0.07-2.52-0.08
	c-0.84-0.01-1.67,0-2.47,0.07c-0.2,0.01-0.39,0.04-0.59,0.06l-0.67,0.08c-0.23,0.03-0.45,0.04-0.68,0.06s-0.46,0.03-0.69,0.03
	c-0.93,0.02-1.86-0.07-2.76-0.27c-1.85-0.38-3.57-1.24-4.99-2.5c-0.35-0.31-0.68-0.65-0.98-1c-0.16-0.17-0.3-0.36-0.45-0.54
	l-0.22-0.27c-0.07-0.1-0.14-0.2-0.21-0.31c-0.57-0.84-0.95-1.79-1.1-2.8c-0.13-0.99-0.07-1.99,0.18-2.96
	c0.24-0.91,0.6-1.8,1.06-2.62c0.11-0.2,0.23-0.39,0.34-0.59l0.18-0.29l0.05-0.07c0.01-0.02,0.03-0.04,0.04-0.06l0.05-0.09
	c0.14-0.26,0.22-0.55,0.25-0.84c0.05-0.36,0.08-0.81,0.13-1.24c0.05-0.44,0.11-0.9,0.2-1.34c0.32-1.74,0.79-3.46,1.4-5.12
	c0.28-0.83,0.6-1.63,0.92-2.44c0.31-0.81,0.65-1.62,1.03-2.41c0.72-1.59,1.53-3.15,2.41-4.66c1.79-3,3.84-5.84,6.11-8.49
	c2.27-2.64,4.74-5.11,7.38-7.38c1.32-1.14,2.69-2.22,4.13-3.24c0.71-0.51,1.45-1,2.2-1.47c0.77-0.48,1.56-0.92,2.38-1.31
	c0.22-0.1,0.43-0.2,0.67-0.28c0.12-0.04,0.24-0.09,0.35-0.13l0.34-0.1c0.23-0.07,0.45-0.13,0.68-0.18c0.22-0.06,0.44-0.11,0.67-0.15
	c0.88-0.2,1.76-0.33,2.63-0.45c1.73-0.23,3.46-0.39,5.18-0.52c3.44-0.26,6.86-0.41,10.26-0.62c0.85-0.05,1.69-0.12,2.52-0.2
	c0.41-0.04,0.83-0.08,1.23-0.13c0.4-0.05,0.79-0.11,1.14-0.2l0.23-0.06l0.29-0.09l0.59-0.2c0.39-0.13,0.79-0.27,1.19-0.4
	c0.79-0.28,1.59-0.57,2.38-0.86c3.16-1.19,6.29-2.51,9.3-4c1.5-0.75,2.98-1.54,4.37-2.42c0.7-0.43,1.38-0.9,2.02-1.38
	c0.63-0.46,1.21-0.98,1.75-1.54c0.13-0.13,0.24-0.28,0.36-0.41l0.43-0.52c0.15-0.19,0.31-0.34,0.46-0.52
	c0.15-0.17,0.31-0.33,0.47-0.49c0.63-0.65,1.28-1.24,1.94-1.83c1.32-1.16,2.68-2.25,4.06-3.3c5.55-4.15,11.48-7.77,17.71-10.8
	c1.56-0.76,3.14-1.47,4.74-2.14c1.6-0.67,3.23-1.28,4.88-1.84c0.82-0.28,1.66-0.53,2.49-0.79c0.83-0.25,1.68-0.47,2.54-0.67
	c1.7-0.39,3.39-0.75,5.11-1.04c3.44-0.6,6.92-0.89,10.41-0.86c1.76,0.02,3.52,0.17,5.26,0.46c1.76,0.28,3.49,0.76,5.14,1.43
	c0.84,0.34,1.64,0.75,2.41,1.22c0.78,0.47,1.51,1.01,2.19,1.61c1.37,1.21,2.48,2.68,3.27,4.32c0.76,1.6,1.32,3.29,1.68,5.02
	c0.36,1.71,0.56,3.46,0.61,5.21c0.1,3.48-0.38,7-1.65,10.26c-0.62,1.63-1.49,3.15-2.57,4.52c-1.08,1.36-2.41,2.51-3.91,3.38
	c-0.05,0.03-0.11,0.01-0.14-0.04c-0.02-0.04-0.01-0.1,0.03-0.13l0,0c1.41-0.94,2.64-2.13,3.62-3.51c0.97-1.38,1.73-2.89,2.25-4.49
	c0.53-1.59,0.89-3.24,1.06-4.91c0.36-3.34,0.14-6.71-0.68-9.97c-0.2-0.81-0.45-1.6-0.73-2.38c-0.28-0.77-0.61-1.52-0.98-2.25
	c-0.74-1.43-1.76-2.69-2.99-3.72c-0.61-0.52-1.28-0.97-1.98-1.36c-0.7-0.4-1.44-0.74-2.19-1.02c-1.54-0.57-3.13-0.98-4.75-1.2
	c-1.64-0.23-3.3-0.34-4.96-0.32c-3.34,0.02-6.68,0.44-9.99,1.04c-1.65,0.31-3.31,0.67-4.93,1.08c-0.81,0.2-1.61,0.44-2.42,0.67
	c-0.8,0.23-1.6,0.5-2.39,0.79c-1.59,0.55-3.15,1.16-4.7,1.83c-0.78,0.32-1.54,0.68-2.31,1.03c-0.77,0.35-1.53,0.72-2.28,1.1
	c-1.51,0.75-3.01,1.53-4.48,2.36c-1.48,0.82-2.95,1.68-4.37,2.57c-2.88,1.77-5.7,3.66-8.37,5.7c-1.34,1.02-2.65,2.07-3.91,3.16
	c-0.62,0.55-1.23,1.11-1.8,1.69c-0.14,0.15-0.29,0.29-0.42,0.44s-0.28,0.29-0.39,0.44l-0.39,0.46c-0.16,0.19-0.32,0.39-0.49,0.56
	c-0.64,0.67-1.34,1.29-2.1,1.84c-0.72,0.55-1.46,1.05-2.22,1.51c-1.5,0.94-3.05,1.76-4.61,2.54c-3.12,1.54-6.31,2.88-9.55,4.09
	c-0.81,0.3-1.62,0.6-2.44,0.88c-0.41,0.14-0.82,0.28-1.24,0.42l-0.63,0.2l-0.32,0.1l-0.39,0.1c-0.49,0.1-0.95,0.17-1.39,0.23
	c-0.44,0.05-0.88,0.1-1.32,0.14c-0.87,0.08-1.73,0.14-2.59,0.2c-3.44,0.21-6.84,0.35-10.23,0.59c-1.69,0.13-3.37,0.27-5.03,0.48
	c-0.83,0.11-1.65,0.23-2.44,0.39c-0.2,0.04-0.39,0.08-0.59,0.13c-0.2,0.05-0.39,0.09-0.56,0.15l-0.27,0.08l-0.25,0.09
	c-0.17,0.05-0.34,0.14-0.51,0.21c-0.73,0.34-1.43,0.72-2.12,1.15c-0.7,0.43-1.39,0.89-2.07,1.38c-1.36,0.95-2.69,1.99-3.96,3.07
	c-2.56,2.17-4.96,4.54-7.16,7.07c-2.2,2.53-4.18,5.24-5.92,8.11c-0.86,1.44-1.64,2.91-2.36,4.42c-0.36,0.75-0.68,1.52-1,2.3
	c-0.32,0.77-0.63,1.57-0.91,2.36c-0.58,1.54-1.04,3.13-1.36,4.75c-0.07,0.39-0.13,0.79-0.18,1.2s-0.08,0.82-0.15,1.31
	c-0.01,0.11-0.04,0.25-0.07,0.38c-0.03,0.14-0.06,0.27-0.1,0.41c-0.04,0.14-0.09,0.28-0.15,0.41c-0.03,0.07-0.06,0.14-0.09,0.2
	l-0.11,0.2l-0.11,0.2l-0.05,0.08l-0.04,0.06l-0.16,0.25c-0.1,0.17-0.21,0.34-0.3,0.51c-0.78,1.37-1.23,2.86-1.05,4.24
	c0.09,0.7,0.35,1.36,0.74,1.94c0.05,0.07,0.09,0.15,0.15,0.23l0.18,0.23c0.12,0.15,0.23,0.31,0.37,0.45
	c0.25,0.29,0.52,0.57,0.81,0.83c1.14,1.04,2.54,1.76,4.05,2.08c0.77,0.16,1.55,0.24,2.34,0.22c0.2,0,0.39,0,0.59-0.02
	s0.39-0.02,0.59-0.04l0.61-0.06c0.23-0.03,0.46-0.06,0.69-0.07c0.91-0.06,1.78-0.07,2.66-0.05c0.87,0.02,1.74,0.06,2.6,0.12
	c1.73,0.11,3.44,0.28,5.15,0.48s3.42,0.44,5.13,0.74c0.43,0.07,0.86,0.16,1.29,0.25c0.46,0.09,0.91,0.21,1.35,0.35l0.09,0.03
	l0.11,0.05l0.11,0.05c0.05,0.03,0.02,0,0.04,0.01h0.01l0.12,0.01l0.12,0.02l0.15,0.02l0.29,0.04c0.4,0.04,0.82,0.07,1.24,0.09
	c1.68,0.09,3.39,0.13,5.09,0.15c1.7,0.03,3.41,0.04,5.12,0.04c3.42,0,6.83-0.02,10.25,0.02h5.13l2.55-0.19
	c0.86-0.01,1.69-0.06,2.59-0.04c0.9,0.02,1.74,0.1,2.59,0.18l2.55,0.26c1.7,0.17,3.39,0.33,5.09,0.45
	c3.39,0.27,6.79,0.26,10.18-0.02c3.38-0.32,6.74-0.97,9.92-2.16l0.59-0.22c0.2-0.08,0.39-0.17,0.59-0.25l0.59-0.25l0.29-0.13
	l0.28-0.14l1.14-0.56l1.11-0.62c1.46-0.87,2.85-1.87,4.14-2.98l0,0c0.04-0.03,0.1-0.03,0.14,0.01c0.03,0.04,0.03,0.1-0.01,0.13
	L230.69,207.86z"/>
<path class="st0" d="M194.7,200.39c0.88-0.9,1.73-1.82,2.58-2.75l2.55-2.77c0.86-0.92,1.74-1.83,2.64-2.71s1.84-1.74,2.83-2.54
	c0.99-0.81,2.06-1.53,3.19-2.15c0.57-0.31,1.17-0.57,1.79-0.79c0.63-0.21,1.28-0.36,1.93-0.43c0.67-0.07,1.35-0.04,2.01,0.07
	l0.5,0.11c0.16,0.05,0.32,0.11,0.48,0.16l0.24,0.08l0.23,0.1c0.15,0.07,0.31,0.14,0.46,0.21c1.14,0.63,2.2,1.41,3.13,2.33
	c0.92,0.89,1.79,1.83,2.59,2.83c0.81,0.98,1.57,2.01,2.29,3.04c1.45,2.08,2.81,4.21,4.11,6.36c0.66,1.07,1.3,2.16,1.96,3.19
	c0.17,0.26,0.34,0.52,0.52,0.76l0.56,0.76c0.38,0.52,0.73,1.07,1.04,1.64c0.32,0.58,0.56,1.19,0.72,1.83
	c0.16,0.65,0.21,1.32,0.13,1.98c-0.09,0.65-0.3,1.28-0.61,1.86l-0.23,0.42l-0.27,0.39c-0.09,0.14-0.18,0.27-0.29,0.39l-0.3,0.37
	l0.02-0.05l0,0c-0.01,0.9,0.08,1.8,0.25,2.68c0.16,0.88,0.37,1.76,0.63,2.62c0.51,1.72,1.19,3.39,2.03,4.98
	c0.86,1.57,1.89,3.06,3.25,4.19c0.67,0.57,1.45,1.01,2.28,1.28c0.85,0.27,1.75,0.33,2.63,0.17c0.05-0.01,0.11,0.02,0.12,0.08
	c0.01,0.05-0.02,0.11-0.08,0.12c-0.91,0.25-1.86,0.26-2.78,0.03c-0.92-0.24-1.77-0.66-2.51-1.25c-0.73-0.58-1.39-1.24-1.96-1.98
	c-0.57-0.73-1.08-1.51-1.53-2.32c-0.44-0.81-0.83-1.65-1.17-2.51c-0.34-0.86-0.62-1.74-0.85-2.63c-0.23-0.89-0.4-1.8-0.51-2.72
	c-0.11-0.92-0.11-1.85,0.01-2.77l0,0v-0.02l0.02-0.03l0.25-0.39c0.09-0.13,0.16-0.26,0.24-0.39l0.22-0.41l0.18-0.42
	c0.23-0.56,0.37-1.15,0.42-1.75c0.05-1.19-0.36-2.35-1-3.37c-0.32-0.52-0.67-1.02-1.05-1.49c-0.2-0.24-0.39-0.47-0.59-0.73
	c-0.2-0.27-0.39-0.52-0.57-0.79c-0.73-1.05-1.41-2.1-2.08-3.16c-1.36-2.12-2.69-4.24-4.13-6.27s-2.95-4.03-4.7-5.75
	c-0.85-0.86-1.81-1.61-2.85-2.23c-0.13-0.07-0.26-0.13-0.39-0.2l-0.2-0.1l-0.2-0.08c-0.14-0.05-0.27-0.11-0.41-0.15l-0.41-0.11
	c-0.57-0.11-1.16-0.15-1.75-0.11c-0.59,0.05-1.18,0.17-1.75,0.35c-0.58,0.19-1.14,0.42-1.68,0.69c-1.1,0.56-2.14,1.23-3.11,1.99
	c-1.98,1.51-3.78,3.26-5.56,5.03l-2.66,2.67c-0.89,0.89-1.79,1.77-2.71,2.63c-0.04,0.04-0.1,0.04-0.14,0c0,0,0,0,0,0
	C194.68,200.5,194.67,200.43,194.7,200.39C194.7,200.39,194.7,200.39,194.7,200.39z"/>
<path class="st0" d="M234.2,214.77c-0.07,0.49-0.08,0.98-0.06,1.47c0.04,0.49,0.11,0.97,0.22,1.45c0.23,0.96,0.56,1.88,0.98,2.77
	c0.21,0.45,0.43,0.88,0.67,1.31c0.24,0.43,0.5,0.85,0.76,1.29c0.51,0.87,0.94,1.78,1.46,2.6c0.5,0.83,1.14,1.56,1.9,2.16
	c0.38,0.3,0.79,0.56,1.2,0.85c0.42,0.29,0.82,0.59,1.22,0.9c0.79,0.61,1.56,1.26,2.37,1.8c0.4,0.28,0.83,0.5,1.28,0.67
	c0.45,0.17,0.94,0.22,1.41,0.14l0,0c0.05-0.01,0.11,0.03,0.12,0.08c0.01,0.05-0.03,0.11-0.08,0.12l0,0l-0.39,0.08
	c-0.13,0.01-0.26,0.01-0.39,0.02s-0.26-0.03-0.39-0.04s-0.25-0.06-0.38-0.08c-0.49-0.15-0.97-0.36-1.41-0.62
	c-0.88-0.52-1.67-1.14-2.48-1.72c-0.39-0.29-0.81-0.58-1.22-0.84c-0.41-0.27-0.85-0.54-1.26-0.85c-0.41-0.32-0.79-0.67-1.14-1.05
	c-0.34-0.39-0.65-0.81-0.93-1.25c-0.54-0.87-0.97-1.77-1.45-2.64c-0.24-0.43-0.5-0.86-0.73-1.31c-0.12-0.22-0.23-0.45-0.34-0.68
	c-0.11-0.23-0.22-0.46-0.31-0.69c-0.4-0.94-0.7-1.92-0.88-2.93c-0.08-0.5-0.13-1.01-0.13-1.52c0-0.51,0.06-1.02,0.18-1.52
	c0.01-0.05,0.07-0.08,0.12-0.07C234.17,214.67,234.2,214.72,234.2,214.77L234.2,214.77z"/>
<path class="st0" d="M236.79,216.68c0.6,0.71,1.27,1.35,2,1.93c0.18,0.15,0.37,0.28,0.55,0.43c0.18,0.14,0.37,0.28,0.56,0.41
	l1.15,0.83c0.39,0.28,0.76,0.58,1.13,0.91l0.27,0.26c0.09,0.09,0.17,0.2,0.25,0.28c0.08,0.1,0.16,0.21,0.23,0.32
	c0.08,0.11,0.13,0.2,0.2,0.31c0.44,0.79,1,1.52,1.64,2.16c0.68,0.61,1.44,1.11,2.26,1.49l0.63,0.31c0.21,0.1,0.42,0.22,0.63,0.33
	c0.42,0.23,0.83,0.45,1.24,0.68c0.8,0.47,1.63,0.9,2.49,1.27c0.43,0.17,0.87,0.3,1.32,0.39c0.45,0.08,0.92,0.11,1.38,0.07l0,0
	c0.05,0,0.1,0.04,0.11,0.09c0,0,0,0,0,0c0,0.05-0.03,0.1-0.08,0.1c-0.48,0.09-0.96,0.1-1.45,0.05c-0.48-0.06-0.95-0.17-1.41-0.32
	c-0.9-0.32-1.78-0.71-2.62-1.15l-1.26-0.63c-0.21-0.1-0.42-0.2-0.63-0.3l-0.64-0.29c-0.9-0.4-1.73-0.93-2.47-1.57
	c-0.74-0.66-1.3-1.5-1.79-2.3c-0.11-0.19-0.24-0.37-0.37-0.54c-0.07-0.08-0.14-0.16-0.22-0.24l-0.23-0.24
	c-0.33-0.3-0.69-0.59-1.06-0.88c-0.37-0.29-0.74-0.58-1.11-0.88c-0.37-0.3-0.73-0.61-1.08-0.94c-0.7-0.65-1.31-1.41-1.79-2.24
	c-0.02-0.05,0-0.11,0.05-0.13C236.71,216.64,236.75,216.64,236.79,216.68L236.79,216.68z"/>
<path class="st0" d="M238.78,213.58c0.55,0.72,1.3,1.28,2.06,1.78c0.76,0.51,1.57,0.96,2.39,1.4l2.47,1.32
	c0.82,0.44,1.64,0.9,2.44,1.41l0.59,0.39l0.56,0.36l0.59,0.33l0.61,0.3c0.84,0.37,1.7,0.7,2.57,0.98c0.87,0.3,1.77,0.57,2.65,0.89
	c0.88,0.31,1.79,0.64,2.55,1.23c0.04,0.03,0.05,0.09,0.02,0.14c-0.03,0.04-0.08,0.05-0.13,0.03l0,0c-0.8-0.44-1.7-0.67-2.59-0.9
	c-0.89-0.24-1.81-0.46-2.71-0.72c-0.91-0.26-1.81-0.57-2.68-0.94l-0.65-0.31l-0.63-0.35l-0.61-0.39l-0.57-0.39
	c-1.54-0.99-3.19-1.87-4.8-2.84c-0.81-0.48-1.59-1.01-2.35-1.57l-0.28-0.22l-0.27-0.22c-0.09-0.08-0.18-0.15-0.27-0.23l-0.26-0.25
	c-0.34-0.33-0.64-0.71-0.89-1.12c-0.03-0.05-0.01-0.11,0.03-0.14c0,0,0,0,0,0C238.69,213.53,238.75,213.54,238.78,213.58
	L238.78,213.58z"/>
<path class="st0" d="M153.05,163.93c0.08-0.29,0.14-0.59,0.17-0.89c0.02-0.3,0.01-0.61-0.03-0.91c-0.09-0.6-0.25-1.2-0.46-1.77
	l-0.61-1.76c-0.25-0.55-0.55-1.08-0.89-1.59c-0.67-1.04-1.41-2.05-2.1-3.1c-0.36-0.53-0.68-1.08-0.98-1.64
	c-0.17-0.31-0.29-0.65-0.36-1c-0.02-0.12-0.02-0.25,0-0.37c0.04-0.18,0.14-0.33,0.29-0.44c0.13-0.08,0.27-0.13,0.42-0.14
	c0.06-0.01,0.11-0.01,0.17,0l0.16,0.02c0.35,0.08,0.69,0.22,1,0.41c0.28,0.17,0.55,0.36,0.81,0.56c0.51,0.39,0.98,0.81,1.45,1.24
	c0.93,0.86,1.81,1.75,2.69,2.63l2.64,2.63c0.44,0.44,0.88,0.86,1.34,1.27c0.44,0.41,0.94,0.77,1.47,1.07l0,0
	c0.05,0.02,0.07,0.08,0.05,0.13c-0.02,0.04-0.07,0.07-0.11,0.05c-0.63-0.15-1.23-0.42-1.77-0.8c-0.53-0.35-1.04-0.74-1.52-1.15
	c-0.96-0.82-1.85-1.71-2.73-2.6c-0.88-0.89-1.75-1.78-2.65-2.62c-0.45-0.42-0.91-0.84-1.38-1.21c-0.23-0.19-0.47-0.36-0.72-0.52
	c-0.22-0.14-0.46-0.25-0.71-0.32c-0.05,0-0.11-0.02-0.14-0.01c-0.03,0.01-0.05,0.01-0.03,0c0.02-0.01,0.05-0.06,0.04-0.05
	c0,0.03,0,0.06,0,0.09c0.05,0.26,0.14,0.52,0.27,0.76c0.27,0.55,0.58,1.08,0.91,1.59c0.66,1.05,1.36,2.09,2,3.17
	c0.34,0.54,0.63,1.12,0.87,1.72l0.52,1.82c0.19,0.61,0.32,1.24,0.38,1.87c0.04,0.64-0.05,1.29-0.27,1.89
	c-0.02,0.05-0.07,0.09-0.13,0.07s-0.09-0.07-0.07-0.13L153.05,163.93z"/>
<path class="st0" d="M180.65,184.3c11.12-16.83,3.11-23.38,0-23.99c-3.11-0.62-4.85,0.62-8.95,3.66c-4.1,3.03-3.23,11.76-0.5,15.49
	c0,0-1.06-14.92,7.33-13.18c8.39,1.74,0.87,6.03,1.24,7.77s3.23,2.98,2.92,4.1C183.01,179.82,180.4,184.67,180.65,184.3z"/>
<path class="st0" d="M147,185.14c-0.8,0.37-1.46,0.97-1.9,1.73c-0.45,0.75-0.77,1.58-0.95,2.44c-0.18,0.86-0.26,1.74-0.22,2.62
	c0.02,0.86,0.21,1.71,0.56,2.5c0.38,0.78,0.86,1.5,1.43,2.15c0.56,0.65,1.22,1.19,1.96,1.61c0.36,0.19,0.75,0.34,1.15,0.43
	c0.39,0.08,0.8,0.09,1.19,0.03c0.1-0.01,0.2-0.04,0.29-0.06c0.09-0.02,0.2-0.06,0.28-0.09c0.2-0.08,0.39-0.16,0.59-0.25
	c0.39-0.17,0.77-0.38,1.13-0.6c0.72-0.45,1.35-1.03,1.87-1.69c0.51-0.68,0.89-1.44,1.13-2.25c0.23-0.83,0.37-1.68,0.39-2.54
	c0-0.22,0.01-0.43,0.01-0.65c0-0.22-0.02-0.42-0.05-0.63c-0.05-0.42-0.14-0.83-0.29-1.23c-0.56-1.6-1.91-2.89-3.52-3.51
	C150.45,184.46,148.63,184.47,147,185.14z M146.88,184.94c1.68-0.76,3.59-0.83,5.32-0.2c0.87,0.3,1.67,0.78,2.36,1.39
	c0.7,0.63,1.24,1.4,1.58,2.27c0.33,0.87,0.48,1.81,0.44,2.74c0,0.92-0.12,1.84-0.36,2.73c-0.25,0.9-0.67,1.75-1.23,2.5
	c-0.57,0.75-1.27,1.38-2.07,1.88c-0.39,0.25-0.8,0.47-1.23,0.65c-0.21,0.09-0.43,0.17-0.64,0.26c-0.12,0.04-0.23,0.08-0.35,0.11
	c-0.12,0.03-0.24,0.06-0.36,0.07c-0.49,0.07-0.98,0.05-1.46-0.06c-0.47-0.11-0.91-0.29-1.33-0.53c-0.8-0.48-1.51-1.09-2.1-1.81
	c-0.59-0.7-1.08-1.49-1.44-2.33c-0.09-0.21-0.17-0.43-0.24-0.65c-0.06-0.22-0.11-0.45-0.15-0.68c-0.07-0.45-0.11-0.91-0.11-1.37
	c-0.01-0.91,0.1-1.81,0.32-2.69c0.21-0.88,0.57-1.73,1.06-2.49C145.36,185.97,146.06,185.35,146.88,184.94L146.88,184.94z"/>
<path class="st0" d="M253.72,218.27c-0.02-0.55,0.01-1.09,0.1-1.63c0.08-0.53,0.19-1.05,0.34-1.56c0.07-0.25,0.14-0.51,0.23-0.76
	c0.09-0.25,0.18-0.49,0.28-0.74c0.19-0.49,0.42-0.96,0.67-1.42c1.02-1.83,2.15-3.6,3.38-5.29c2.47-3.4,5.38-6.46,8.66-9.09
	c3.29-2.62,7-4.77,11.05-6.11c2.03-0.68,4.12-1.12,6.25-1.34c2.13-0.21,4.29-0.16,6.41,0.15l0.39,0.05l0.39,0.07l0.77,0.14
	l0.77,0.14l0.76,0.16c1.02,0.2,2.03,0.44,3.04,0.69c2.02,0.51,4.01,1.11,5.98,1.82c3.93,1.41,7.72,3.25,11.18,5.67
	c3.45,2.41,6.53,5.42,8.84,8.99c1.16,1.78,2.11,3.69,2.83,5.7c0.71,2,1.19,4.08,1.42,6.2c0.03,0.26,0.07,0.52,0.08,0.8
	c0.02,0.27,0.04,0.54,0.05,0.81l0.01,0.4v0.4c0,0.27,0,0.54-0.02,0.81c-0.05,1.07-0.17,2.13-0.36,3.18c-0.39,2.08-1,4.11-1.82,6.06
	c-0.82,1.94-1.81,3.8-2.96,5.55c-1.15,1.76-2.46,3.4-3.93,4.91c-1.47,1.52-3.1,2.86-4.88,4.01c-1.79,1.16-3.75,2.03-5.81,2.58
	c-2.09,0.55-4.27,0.65-6.4,0.28c-2.11-0.39-4.12-1.21-5.89-2.41c-3.45-2.36-6.42-5.36-8.74-8.84c-1.16-1.73-2.11-3.61-2.81-5.57
	c-0.35-0.99-0.61-2.01-0.79-3.04c-0.17-1.04-0.22-2.1-0.15-3.16c0.07-1.07,0.32-2.12,0.73-3.1c0.42-0.99,1.04-1.88,1.8-2.63
	c0.77-0.73,1.65-1.34,2.61-1.79c0.95-0.44,1.94-0.77,2.97-0.98c1.01-0.21,2.04-0.34,3.08-0.39c1.03-0.06,2.06-0.06,3.09,0
	c2.05,0.13,4.08,0.4,6.09,0.8c0.05,0.01,0.09,0.06,0.08,0.11c0,0,0,0,0,0c-0.01,0.05-0.06,0.09-0.11,0.08
	c-2.01-0.34-4.04-0.55-6.07-0.62c-1.01-0.03-2.03,0-3.04,0.08c-1.01,0.08-2,0.24-2.99,0.47c-0.97,0.23-1.92,0.57-2.81,1.01
	c-0.88,0.44-1.69,1.02-2.38,1.72c-0.68,0.7-1.21,1.53-1.57,2.43c-0.36,0.91-0.57,1.87-0.61,2.85c-0.09,1.96,0.33,3.94,1.03,5.81
	c0.72,1.87,1.66,3.64,2.81,5.28c2.3,3.29,5.2,6.11,8.56,8.32c1.63,1.07,3.47,1.79,5.39,2.11c1.92,0.3,3.88,0.18,5.75-0.34
	c1.89-0.53,3.68-1.37,5.3-2.46c1.65-1.1,3.16-2.39,4.52-3.83c2.73-2.9,4.89-6.28,6.39-9.97c0.75-1.83,1.3-3.73,1.64-5.67
	c0.34-1.92,0.39-3.88,0.15-5.81c-0.24-1.95-0.7-3.86-1.38-5.71c-0.69-1.84-1.59-3.58-2.68-5.21c-2.16-3.28-5.05-6.07-8.31-8.31
	c-3.26-2.25-6.9-3.98-10.67-5.3c-1.89-0.66-3.81-1.23-5.76-1.71c-0.98-0.23-1.96-0.45-2.95-0.64l-0.74-0.15l-0.74-0.13l-0.74-0.13
	l-0.37-0.06l-0.36-0.05c-3.87-0.54-7.82-0.16-11.52,1.11c-3.71,1.22-7.18,3.24-10.26,5.71c-3.1,2.5-5.85,5.4-8.18,8.62
	c-1.17,1.61-2.24,3.29-3.22,5.03c-0.25,0.43-0.52,0.85-0.79,1.28c-0.27,0.43-0.56,0.83-0.85,1.25c-0.6,0.87-1.28,1.68-2.03,2.42
	c-0.04,0.04-0.11,0.04-0.15,0c0,0,0,0,0,0C253.73,218.33,253.72,218.3,253.72,218.27z"/>
<path class="st0" d="M251.51,225.45c-0.15-0.31-0.21-0.66-0.2-1.01c0.02-0.32,0.08-0.63,0.18-0.93c0.1-0.3,0.22-0.6,0.37-0.88
	c0.15-0.3,0.35-0.57,0.58-0.81c0.04-0.04,0.11-0.04,0.16,0c0.02,0.02,0.03,0.04,0.03,0.06c0.06,0.32,0.07,0.65,0.05,0.98
	c-0.02,0.31-0.05,0.62-0.12,0.92c-0.05,0.3-0.14,0.6-0.26,0.88c-0.13,0.31-0.33,0.59-0.59,0.82c-0.05,0.04-0.13,0.04-0.17-0.01
	c0,0,0,0,0,0C251.53,225.47,251.52,225.46,251.51,225.45z"/>
<path class="st3" d="M308.36,172.38l1.72,2.42l1.77,2.38l1.82,2.34c0.62,0.77,1.23,1.55,1.85,2.31c1.25,1.53,2.51,3.06,3.78,4.57
	c1.27,1.52,2.54,3.04,3.78,4.59c1.23,1.56,2.43,3.14,3.54,4.81l0.41,0.63c0.14,0.21,0.28,0.42,0.39,0.63l0.76,1.3
	c0.46,0.89,0.95,1.77,1.33,2.7l0.3,0.69c0.1,0.23,0.18,0.47,0.27,0.7l0.53,1.4c0.18,0.46,0.33,0.94,0.49,1.42l0.46,1.43l0.4,1.44
	c0.13,0.48,0.28,0.96,0.38,1.45l0.34,1.46l0.08,0.37l0.07,0.37l0.14,0.74c0.37,1.97,0.62,3.96,0.77,5.95c0.05,1,0.13,2,0.13,3
	c0,0.5,0.03,1,0.02,1.5l-0.03,1.5c-0.06,2-0.2,3.99-0.41,5.97c-0.21,1.98-0.48,3.96-0.79,5.92c-0.28,1.99-0.68,3.97-1.22,5.9
	l-0.45,1.45c-0.17,0.48-0.35,0.95-0.52,1.42c-0.17,0.48-0.39,0.94-0.59,1.4l-0.3,0.7l-0.34,0.68c-1.78,3.65-4.28,6.91-7.19,9.72
	c-2.93,2.8-6.25,5.15-9.86,6.99c-3.59,1.86-7.41,3.23-11.37,4.08c-1.98,0.43-3.99,0.71-6.01,0.84c-0.5,0.04-1.01,0.05-1.52,0.07
	s-1.04,0-1.55-0.02c-1.02-0.05-2.03-0.17-3.04-0.34c-2-0.34-3.97-0.85-5.89-1.5c-1.91-0.65-3.78-1.4-5.6-2.27
	c-1.82-0.86-3.59-1.81-5.32-2.84c-1.73-1.03-3.4-2.15-5.01-3.35c-1.61-1.2-3.16-2.48-4.64-3.85c-1.47-1.38-2.86-2.84-4.16-4.38
	c-1.31-1.54-2.49-3.18-3.54-4.91c-0.52-0.87-1.02-1.75-1.45-2.66c-0.44-0.91-0.83-1.84-1.18-2.8c-0.34-0.95-0.63-1.92-0.85-2.91
	c-0.22-0.99-0.38-1.98-0.47-2.99c-0.16-2-0.06-4.01,0.3-5.98c0.01-0.05,0.06-0.09,0.11-0.08c0,0,0,0,0,0
	c0.05,0.01,0.08,0.05,0.08,0.1c-0.1,1.97-0.08,3.94,0.26,5.86c0.16,0.96,0.38,1.9,0.66,2.83c0.29,0.93,0.61,1.84,0.99,2.73
	c0.38,0.89,0.81,1.77,1.27,2.61c0.46,0.84,0.97,1.68,1.5,2.49c1.08,1.61,2.27,3.15,3.56,4.6c0.64,0.73,1.31,1.43,2,2.12
	c0.68,0.69,1.4,1.35,2.12,2c1.45,1.3,2.96,2.53,4.53,3.68c3.14,2.32,6.49,4.33,10,6.01c1.76,0.83,3.56,1.57,5.4,2.19
	c1.82,0.63,3.7,1.11,5.6,1.44c0.94,0.16,1.89,0.27,2.84,0.32c0.48,0.02,0.94,0.03,1.42,0.02c0.48-0.01,0.96-0.02,1.45-0.06
	c1.93-0.12,3.85-0.39,5.74-0.79c3.8-0.8,7.48-2.1,10.94-3.85c3.47-1.74,6.67-3.98,9.49-6.64c2.82-2.65,5.16-5.77,6.93-9.22
	l0.33-0.64l0.3-0.66c0.2-0.44,0.41-0.88,0.57-1.33s0.35-0.9,0.51-1.35l0.45-1.38c0.53-1.87,0.95-3.77,1.23-5.7
	c0.31-1.94,0.61-3.89,0.83-5.84c0.12-0.98,0.2-1.95,0.29-2.93c0.05-0.49,0.06-0.98,0.1-1.47c0.03-0.49,0.07-0.98,0.08-1.47
	l0.05-1.47c0.02-0.49,0-0.98,0-1.47c0.01-0.98-0.05-1.96-0.09-2.93c-0.11-1.95-0.34-3.9-0.67-5.83l-0.12-0.72l-0.06-0.36l-0.08-0.36
	l-0.31-1.44c-0.09-0.48-0.23-0.95-0.35-1.43l-0.37-1.42l-0.43-1.4c-0.15-0.47-0.28-0.94-0.46-1.4l-0.49-1.39
	c-0.08-0.23-0.16-0.47-0.25-0.69l-0.28-0.67c-0.35-0.91-0.8-1.77-1.24-2.65l-0.72-1.28c-0.12-0.22-0.25-0.42-0.38-0.63l-0.39-0.62
	c-1.05-1.66-2.19-3.26-3.4-4.82c-1.2-1.56-2.44-3.11-3.67-4.65s-2.48-3.09-3.69-4.65c-2.44-3.12-4.75-6.34-6.93-9.65
	c-0.03-0.05-0.01-0.11,0.03-0.14c0.04-0.03,0.1-0.02,0.13,0.02L308.36,172.38z"/>
<path class="st0" d="M295.66,149.95c1.1,1.34,2.12,2.74,3.06,4.19c0.94,1.45,1.82,2.94,2.65,4.45c0.83,1.51,1.6,3.06,2.29,4.64
	c0.35,0.79,0.68,1.57,1.01,2.36c0.34,0.79,0.67,1.59,0.97,2.4l0,0c0.02,0.05-0.01,0.11-0.06,0.13c-0.04,0.01-0.08,0-0.11-0.03
	c-1.09-1.35-2.07-2.79-2.91-4.31c-0.86-1.49-1.68-2.99-2.48-4.5c-0.81-1.51-1.6-3.03-2.37-4.57c-0.77-1.53-1.53-3.08-2.22-4.67
	c-0.02-0.05,0-0.11,0.05-0.13C295.59,149.9,295.64,149.91,295.66,149.95z"/>
<path class="st0" d="M279.26,131.85c0.42-0.06,0.84-0.04,1.25,0.06c0.4,0.09,0.8,0.22,1.18,0.39c0.75,0.33,1.46,0.74,2.12,1.23
	c1.29,0.95,2.48,2.03,3.54,3.23c1.06,1.17,2.01,2.44,2.85,3.78c0.42,0.67,0.81,1.35,1.17,2.06c0.36,0.71,0.68,1.45,0.94,2.2
	c0.02,0.05-0.01,0.11-0.06,0.13c-0.03,0.01-0.07,0-0.1-0.02c-0.62-0.51-1.18-1.06-1.74-1.61s-1.09-1.12-1.6-1.69
	c-1.05-1.14-2.04-2.3-3.03-3.45s-1.99-2.29-3.03-3.37c-0.52-0.54-1.05-1.07-1.62-1.55c-0.55-0.5-1.19-0.9-1.88-1.18l0,0
	c-0.05-0.02-0.08-0.08-0.06-0.13C279.18,131.89,279.21,131.86,279.26,131.85z"/>
<path class="st0" d="M272.39,158.54c-0.65,0.04-1.3,0.09-1.94,0.16s-1.29,0.16-1.93,0.27c-1.27,0.2-2.51,0.53-3.72,0.97
	c-0.59,0.22-1.16,0.5-1.69,0.83c-0.52,0.32-0.99,0.71-1.39,1.18c-0.38,0.46-0.66,0.99-0.81,1.57c-0.04,0.14-0.06,0.29-0.08,0.44
	c-0.03,0.15-0.04,0.31-0.06,0.47c-0.03,0.31-0.05,0.63-0.05,0.94c-0.01,0.62,0.06,1.25,0.2,1.85c0.13,0.59,0.38,1.15,0.75,1.62
	c0.36,0.46,0.87,0.78,1.44,0.91c0.59,0.12,1.21,0.09,1.78-0.09c0.3-0.09,0.59-0.2,0.87-0.34l0.21-0.1c0.07-0.04,0.14-0.08,0.2-0.12
	l0.2-0.12l0.1-0.06l0.09-0.07c0.51-0.35,0.94-0.81,1.24-1.35c0.3-0.55,0.44-1.16,0.42-1.78c-0.01-0.16-0.03-0.31-0.05-0.46
	l-0.06-0.23l-0.03-0.11l-0.04-0.11l-0.08-0.22c-0.04-0.07-0.07-0.14-0.11-0.21l-0.05-0.1c-0.02-0.03-0.04-0.06-0.07-0.1l-0.14-0.2
	l0,0c-0.03-0.05-0.01-0.11,0.04-0.13c0.04-0.02,0.08-0.02,0.12,0.01c0.46,0.51,0.74,1.16,0.8,1.84c0.06,0.69-0.06,1.38-0.36,2
	c-0.3,0.62-0.76,1.16-1.32,1.57l-0.1,0.08l-0.11,0.07l-0.22,0.14c-0.07,0.05-0.14,0.09-0.22,0.14l-0.23,0.11
	c-0.3,0.16-0.62,0.29-0.94,0.39c-0.67,0.23-1.38,0.28-2.08,0.16c-0.36-0.07-0.7-0.2-1.01-0.39c-0.31-0.19-0.59-0.43-0.82-0.71
	c-0.44-0.55-0.75-1.2-0.91-1.88c-0.16-0.66-0.24-1.34-0.23-2.03c0-0.34,0.02-0.67,0.05-1.01c0.02-0.17,0.03-0.33,0.05-0.5
	c0.02-0.17,0.06-0.35,0.1-0.52c0.17-0.69,0.5-1.33,0.96-1.87c0.45-0.53,0.98-0.98,1.57-1.33c0.58-0.34,1.2-0.63,1.83-0.85
	c0.63-0.22,1.27-0.4,1.93-0.53c0.65-0.14,1.3-0.24,1.96-0.31c0.66-0.08,1.31-0.12,1.96-0.14c0.65-0.02,1.31-0.02,1.96,0.02
	c0.05,0,0.1,0.05,0.09,0.1c0,0,0,0,0,0C272.47,158.48,272.44,158.53,272.39,158.54z"/>
<path class="st0" d="M250.29,214.75c-0.12-0.26-0.22-0.53-0.31-0.8c-0.05-0.13-0.1-0.26-0.15-0.39c-0.02-0.06-0.04-0.13-0.06-0.2
	s-0.05-0.13-0.07-0.2c-0.1-0.25-0.17-0.51-0.27-0.76c-0.1-0.25-0.17-0.51-0.28-0.76c-0.41-1.02-0.9-2.02-1.45-2.97
	c-0.55-0.98-1.14-1.94-1.69-2.95c-0.13-0.26-0.28-0.51-0.39-0.79l-0.2-0.39l-0.17-0.43c-0.2-0.56-0.36-1.09-0.53-1.64
	c-0.67-2.17-1.26-4.36-1.79-6.57c-0.26-1.11-0.5-2.22-0.7-3.34c-0.22-1.14-0.35-2.29-0.38-3.45c0-0.3,0.01-0.61,0.05-0.91
	c0.04-0.36,0.16-0.7,0.35-1.01c0.03-0.04,0.07-0.08,0.1-0.12l0.07-0.08l0.15-0.16l0.3-0.3l0.6-0.6l2.41-2.38l4.85-4.74
	c1.62-1.57,3.24-3.15,4.84-4.74c0.8-0.8,1.6-1.6,2.4-2.4c0.39-0.39,0.79-0.8,1.18-1.21c0.2-0.2,0.39-0.41,0.59-0.62
	c0.19-0.2,0.36-0.41,0.52-0.63l0.01-0.02c0.03-0.05,0.08-0.06,0.13-0.03c0,0,0,0,0,0c0.04,0.03,0.06,0.08,0.03,0.13
	c-0.15,0.25-0.33,0.49-0.52,0.71c-0.18,0.22-0.37,0.43-0.56,0.64c-0.37,0.43-0.75,0.84-1.14,1.26c-0.77,0.83-1.54,1.66-2.32,2.48
	c-1.56,1.64-3.12,3.27-4.69,4.9l-4.73,4.86l-2.37,2.42l-0.59,0.61l-0.29,0.3l-0.14,0.15l-0.07,0.07c-0.02,0.03-0.02,0.03-0.03,0.04
	c-0.1,0.18-0.16,0.38-0.17,0.59c-0.03,0.26-0.04,0.52-0.03,0.79c0.06,1.1,0.19,2.2,0.41,3.28c0.21,1.1,0.46,2.19,0.73,3.28
	c0.54,2.18,1.16,4.35,1.83,6.49c0.17,0.53,0.34,1.08,0.52,1.59l0.14,0.37l0.17,0.37c0.11,0.24,0.25,0.49,0.37,0.73
	c0.53,0.97,1.13,1.93,1.69,2.93c0.58,1,1.1,2.04,1.53,3.11c0.23,0.55,0.39,1.12,0.46,1.71c0.02,0.15,0.03,0.3,0.03,0.45
	c0,0.15,0,0.3-0.01,0.45c-0.03,0.3-0.1,0.6-0.2,0.89c-0.02,0.05-0.08,0.08-0.13,0.06c-0.03-0.01-0.05-0.03-0.06-0.05L250.29,214.75z
	"/>
<path class="st4" d="M266.67,163.41c1.55-1.49,4.66-4.16,5.72-4.47"/>
<path class="st0" d="M261.05,170.17c0,0.33,0.06,0.66,0.18,0.97c0.11,0.32,0.26,0.62,0.42,0.91c0.17,0.29,0.35,0.58,0.56,0.84
	c0.2,0.27,0.42,0.53,0.65,0.77c0.92,0.98,2.05,1.74,3.31,2.21c1.25,0.47,2.59,0.67,3.93,0.59c0.67-0.03,1.33-0.15,1.96-0.35
	c0.63-0.21,1.24-0.49,1.81-0.84c0.29-0.17,0.56-0.37,0.83-0.56c0.27-0.19,0.53-0.41,0.77-0.65c0.5-0.45,0.96-0.95,1.38-1.48
	c0.42-0.53,0.8-1.09,1.14-1.68c0.34-0.59,0.63-1.2,0.88-1.83c0.24-0.63,0.43-1.28,0.58-1.94c0.13-0.66,0.21-1.34,0.22-2.02
	c0.04-1.36-0.27-2.72-0.9-3.93l0,0c-0.03-0.05-0.01-0.11,0.04-0.13s0.11-0.01,0.13,0.04c0.71,1.22,1.09,2.6,1.11,4.02
	c0.02,1.41-0.23,2.82-0.72,4.14c-0.48,1.33-1.16,2.57-2.03,3.69c-0.43,0.56-0.91,1.08-1.43,1.56c-0.26,0.24-0.53,0.46-0.81,0.69
	s-0.57,0.42-0.88,0.6c-0.61,0.38-1.26,0.68-1.93,0.91c-0.68,0.22-1.39,0.35-2.11,0.38c-0.71,0.03-1.42,0-2.13-0.11
	c-0.7-0.11-1.39-0.3-2.06-0.57c-0.66-0.27-1.29-0.61-1.86-1.03c-0.58-0.41-1.11-0.89-1.57-1.43c-0.47-0.53-0.87-1.13-1.18-1.77
	c-0.16-0.32-0.29-0.64-0.39-0.98c-0.11-0.35-0.14-0.71-0.11-1.07c0-0.05,0.05-0.09,0.11-0.09c0.05,0,0.09,0.05,0.09,0.11l0,0
	L261.05,170.17z"/>
<path class="st0" d="M278.22,168.81c-0.52,0.37-1.05,0.7-1.6,1.02c-0.55,0.32-1.13,0.61-1.72,0.85c-0.6,0.25-1.24,0.42-1.89,0.49
	c-0.65,0.06-1.3,0.01-1.93-0.14c-0.05-0.01-0.09-0.07-0.07-0.12c0.01-0.04,0.05-0.07,0.09-0.07c0.63-0.06,1.24-0.1,1.84-0.22
	c0.6-0.11,1.18-0.27,1.75-0.49c1.15-0.43,2.27-1,3.44-1.49c0.05-0.02,0.11,0,0.13,0.05C278.27,168.74,278.25,168.79,278.22,168.81z"
	/>
<path class="st0" d="M274.64,174.14c-0.57,0.18-1.16,0.33-1.75,0.44c-0.6,0.12-1.21,0.19-1.82,0.21c-0.63,0.02-1.25-0.05-1.85-0.22
	c-0.6-0.17-1.16-0.44-1.66-0.81c-0.04-0.03-0.06-0.09-0.02-0.14c0.03-0.03,0.07-0.05,0.11-0.04c0.59,0.15,1.15,0.3,1.71,0.39
	c0.56,0.08,1.13,0.12,1.71,0.11c0.58,0,1.16-0.05,1.75-0.08c0.59-0.03,1.19-0.07,1.8-0.05c0.05,0,0.1,0.05,0.1,0.1c0,0,0,0,0,0
	C274.7,174.09,274.68,174.12,274.64,174.14z"/>
<path class="st0" d="M191.08,235.08c-0.37-0.35-0.63-0.79-0.76-1.28c-0.06-0.26-0.06-0.54,0.01-0.8c0.08-0.27,0.24-0.5,0.46-0.68
	c0.05-0.04,0.11-0.08,0.16-0.12l0.08-0.06l0.07-0.05l0.3-0.2c0.1-0.06,0.2-0.12,0.29-0.2l0.29-0.2l0.28-0.2l0.28-0.22l0.27-0.22
	l0.26-0.23c0.69-0.62,1.32-1.31,1.88-2.06c0.56-0.75,1.05-1.54,1.48-2.37c0.84-1.68,1.5-3.44,1.96-5.26
	c0.24-0.92,0.46-1.83,0.66-2.75c0.2-0.93,0.37-1.86,0.57-2.8c0.01-0.05,0.06-0.09,0.12-0.08c0,0,0,0,0,0
	c0.05,0.01,0.08,0.05,0.08,0.1c-0.05,1.92-0.29,3.84-0.71,5.71c-0.43,1.89-1.1,3.72-2,5.44c-0.46,0.86-0.99,1.68-1.6,2.45
	c-0.61,0.77-1.29,1.47-2.05,2.09l-0.28,0.23l-0.29,0.21l-0.3,0.21l-0.31,0.2c-0.2,0.13-0.41,0.26-0.63,0.37l-0.32,0.17l-0.08,0.04
	l-0.07,0.04c-0.05,0.02-0.09,0.05-0.13,0.08c-0.34,0.24-0.51,0.66-0.42,1.07c0.09,0.45,0.29,0.86,0.59,1.21l0,0
	c0.03,0.04,0.03,0.1-0.02,0.14C191.18,235.12,191.12,235.11,191.08,235.08L191.08,235.08z"/>
<path class="st0" d="M194.89,231.37c-1.16,1.38-2.41,2.64-3.57,3.97c-0.28,0.34-0.57,0.67-0.83,1.01c-0.13,0.16-0.24,0.33-0.35,0.51
	c-0.09,0.13-0.16,0.28-0.2,0.43c-0.05,0.36-0.01,0.73,0.12,1.06c0.15,0.36,0.36,0.7,0.62,1c0.27,0.33,0.56,0.64,0.87,0.92l0.24,0.22
	c0.09,0.08,0.17,0.16,0.26,0.24c0.17,0.16,0.32,0.33,0.48,0.49c0.57,0.65,1.2,1.25,1.87,1.79c0.64,0.52,1.43,0.82,2.26,0.87
	c0.83,0.04,1.67-0.24,2.46-0.63l0,0c0.05-0.02,0.11,0,0.13,0.04c0,0,0,0,0,0c0.02,0.04,0.01,0.09-0.03,0.12
	c-0.73,0.59-1.62,0.95-2.55,1.05c-0.97,0.05-1.93-0.23-2.73-0.79c-0.8-0.51-1.46-1.18-2.09-1.79l-0.47-0.45
	c-0.08-0.07-0.16-0.14-0.23-0.21l-0.26-0.23c-0.35-0.32-0.68-0.65-0.98-1.01c-0.32-0.38-0.58-0.81-0.76-1.28
	c-0.19-0.5-0.25-1.04-0.16-1.57c0.01-0.08,0.04-0.16,0.06-0.24c0.03-0.07,0.06-0.13,0.09-0.2c0.03-0.06,0.06-0.12,0.1-0.18
	c0.03-0.06,0.07-0.11,0.1-0.16c0.13-0.2,0.28-0.39,0.43-0.57c0.29-0.36,0.61-0.69,0.93-1.01c1.28-1.25,2.63-2.43,4.05-3.54l0,0
	c0.04-0.03,0.11-0.02,0.14,0.02c0.03,0.04,0.03,0.08,0,0.12L194.89,231.37z"/>
<path class="st0" d="M198.67,233.6c-0.67,0.57-1.35,1.14-1.98,1.74c-0.32,0.3-0.62,0.61-0.91,0.94c-0.29,0.31-0.53,0.66-0.71,1.05
	c-0.08,0.17-0.11,0.36-0.07,0.55c0.06,0.19,0.15,0.36,0.28,0.51c0.29,0.32,0.6,0.63,0.93,0.91c0.34,0.29,0.65,0.61,0.94,0.95
	c0.3,0.35,0.51,0.77,0.62,1.22c0.01,0.05-0.03,0.11-0.08,0.12c-0.05,0.01-0.1-0.02-0.11-0.07c-0.11-0.41-0.33-0.79-0.62-1.1
	c-0.29-0.32-0.61-0.62-0.94-0.9c-0.35-0.28-0.68-0.59-0.98-0.92c-0.16-0.18-0.28-0.4-0.35-0.63c-0.04-0.13-0.04-0.26-0.02-0.39
	c0.02-0.12,0.05-0.24,0.1-0.36c0.19-0.42,0.45-0.8,0.76-1.14c0.3-0.33,0.62-0.65,0.95-0.95c0.66-0.59,1.35-1.15,2.07-1.66
	c0.04-0.03,0.11-0.02,0.14,0.03C198.71,233.51,198.71,233.56,198.67,233.6L198.67,233.6z"/>
<path class="st0" d="M198.15,229.24c-0.16,0.61-0.15,1.25,0.05,1.85c0.23,0.59,0.57,1.13,1,1.6c0.2,0.24,0.43,0.48,0.64,0.72
	s0.43,0.49,0.65,0.73c0.43,0.49,0.86,0.96,1.31,1.42c0.88,0.94,1.87,1.76,2.95,2.44c0.54,0.33,1.12,0.6,1.73,0.78
	c0.61,0.18,1.25,0.24,1.88,0.18l0,0c0.05-0.01,0.1,0.03,0.11,0.09c0.01,0.05-0.03,0.1-0.09,0.11c-0.66,0.09-1.32,0.05-1.96-0.12
	c-0.64-0.17-1.25-0.43-1.82-0.77c-1.12-0.69-2.14-1.52-3.03-2.48c-0.45-0.47-0.89-0.95-1.31-1.44c-0.21-0.24-0.43-0.49-0.64-0.73
	c-0.22-0.24-0.43-0.48-0.64-0.74c-0.44-0.5-0.79-1.08-1.02-1.7c-0.1-0.32-0.15-0.66-0.14-1c0.01-0.33,0.06-0.66,0.15-0.98
	c0.01-0.05,0.07-0.08,0.12-0.07C198.13,229.14,198.16,229.19,198.15,229.24L198.15,229.24z"/>
<path class="st0" d="M208.22,215.64c0.1,0.23,0.17,0.48,0.2,0.73c0.04,0.24,0.06,0.49,0.08,0.73c0.04,0.49,0.05,0.98,0.05,1.46
	c0,0.98-0.05,1.94-0.15,2.91c-0.09,0.97-0.24,1.94-0.44,2.89c-0.1,0.48-0.23,0.96-0.39,1.42c-0.08,0.24-0.18,0.47-0.29,0.7
	c-0.11,0.24-0.25,0.46-0.42,0.66c-0.63,0.71-1.13,1.51-1.51,2.37c-0.37,0.85-0.51,1.79-0.39,2.72c0.15,0.93,0.53,1.81,1.1,2.55
	c0.58,0.76,1.25,1.44,2.01,2.03l0,0c0.04,0.03,0.05,0.09,0.02,0.14c0,0,0,0,0,0c-0.03,0.04-0.09,0.05-0.13,0.02
	c-0.8-0.56-1.52-1.23-2.15-1.99c-0.64-0.77-1.06-1.69-1.25-2.68c-0.15-1-0.03-2.02,0.35-2.95c0.39-0.91,0.92-1.76,1.57-2.51
	c0.27-0.36,0.48-0.77,0.61-1.2c0.15-0.45,0.27-0.91,0.37-1.38c0.2-0.93,0.34-1.88,0.46-2.83s0.2-1.91,0.24-2.87
	c0.02-0.48,0.03-0.96,0.03-1.44c0-0.24,0-0.48-0.03-0.71c-0.01-0.23-0.05-0.46-0.12-0.68l0,0c-0.02-0.05,0-0.11,0.06-0.13
	s0.11,0,0.13,0.06L208.22,215.64z"/>
<path class="st0" d="M200.08,244.09c0.48,0.15,0.98,0.26,1.48,0.34c0.98,0.16,1.99,0.05,2.91-0.33c0.47-0.19,0.92-0.41,1.36-0.66
	l0,0c0.05-0.03,0.1-0.01,0.13,0.03c0,0,0,0,0,0c0.02,0.04,0.01,0.09-0.02,0.12c-0.4,0.35-0.84,0.64-1.32,0.87
	c-0.49,0.23-1.01,0.37-1.54,0.42c-0.53,0.05-1.07,0.02-1.59-0.1c-0.51-0.12-1.01-0.29-1.48-0.52c-0.05-0.02-0.07-0.08-0.05-0.13
	C199.98,244.1,200.03,244.08,200.08,244.09z"/>
<path class="st0" d="M202.5,241.39c0.31,0.08,0.61,0.19,0.9,0.33c0.29,0.14,0.56,0.31,0.82,0.49c0.23,0.18,0.49,0.32,0.77,0.41
	c0.29,0.08,0.59,0.12,0.88,0.13l0,0c0.05,0,0.09,0.05,0.09,0.1c0,0.05-0.04,0.08-0.08,0.09c-0.66,0.17-1.36,0.02-1.89-0.41
	c-0.26-0.18-0.51-0.35-0.77-0.51s-0.53-0.3-0.8-0.46l0,0c-0.05-0.03-0.06-0.08-0.04-0.13c0,0,0,0,0,0
	C202.41,241.4,202.46,241.38,202.5,241.39z"/>
<path class="st5" d="M244.92,192c8.45-6.84,18.39-17.56,18.39-17.56"/>
<path class="st5" d="M269.53,168.99c0,0,13.18-13.13,20.14-13.41c2.42,0.31,4.1-3.17,3.98-4.79c2.3-1.55,16.22-11.75,16.22-11.75"/>
<path class="st5" d="M276.9,154.79c0,0,5.06-3.32,5.74-4.99c0.68-1.68,1.68-7.15,9.01-4.41c0.25-0.05,0.51-0.12,0.79-0.2
	c6.37-1.95,15.88-11.23,15.88-11.23"/>
<path class="st5" d="M246.2,204.91c0,0,41.17-25.73,44.34-30.48c3.17-4.75,8.02-2.22,8.02-2.22s31.51-19.87,35.99-32.18"/>
<path class="st5" d="M248.46,208.92c0,0,42.64-28.23,46.18-27.67c3.54,0.56,4.29-2.37,6.15-4.45c1.87-2.08,28.53-17.37,39.16-33.39"
	/>
<path class="st5" d="M148.17,287.91c0,0,42.23-39.39,50.44-43.19c3.85-1.86,3.92-4.65,8.76-5.62"/>
<path class="st5" d="M208.37,236.07c4.23-3.17,20.45-14.6,22.87-15.5"/>
<path class="st5" d="M142.3,285.67c3.92-5.22,44.33-43.51,49.17-44.81"/>
<path class="st5" d="M207.37,230.48c2.98-2.41,21.51-14.99,24.12-15.35"/>
<path class="st5" d="M219.81,218.85c-1.8,2.3-8.63,9.02-11.46,10.88"/>
<path class="st5" d="M154.18,290.33c5.28-6.15,33.36-34.63,35.26-39.04"/>
<path class="st5" d="M156.29,297.04c5.4-5.97,40.08-41.77,44.75-51.27"/>
<path class="st0" d="M149.7,185c-3.2,0-5.8,2.95-5.8,6.56s2.6,6.56,5.8,6.56c3.2,0,5.8-2.95,5.8-6.56S152.9,185,149.7,185z
	 M150.61,191.13c-1.16-1.33-3.14-1.91-3.9-1.91s-0.87-0.85-0.66-1.57c0.21-0.72,2.74-1.99,4.56-1.41
	C152.43,186.83,154.79,190.32,150.61,191.13z"/>
<path class="st0" d="M239.87,221.19c0.52,0.76,0.92,1.58,1.39,2.3c0.12,0.18,0.23,0.35,0.36,0.51s0.26,0.31,0.39,0.46
	c0.25,0.31,0.53,0.6,0.84,0.86c0.08,0.06,0.17,0.12,0.26,0.17c0.09,0.06,0.2,0.12,0.3,0.18s0.2,0.13,0.3,0.2
	c0.1,0.07,0.2,0.14,0.29,0.21c0.37,0.29,0.7,0.64,0.98,1.02c0.28,0.38,0.5,0.8,0.65,1.25c0.15,0.44,0.22,0.91,0.18,1.38
	c0,0.05-0.04,0.1-0.1,0.1c-0.05,0-0.1-0.04-0.1-0.1l0,0c-0.01-0.43-0.11-0.86-0.29-1.26c-0.18-0.39-0.42-0.75-0.72-1.07
	c-0.29-0.31-0.62-0.59-0.98-0.82c-0.09-0.06-0.18-0.11-0.28-0.16c-0.09-0.05-0.18-0.1-0.28-0.14l-0.3-0.13l-0.34-0.15
	c-0.47-0.19-0.88-0.48-1.23-0.85c-0.16-0.19-0.31-0.39-0.43-0.61c-0.12-0.21-0.24-0.42-0.33-0.64c-0.19-0.43-0.34-0.87-0.46-1.32
	c-0.12-0.44-0.22-0.88-0.31-1.34c-0.01-0.05,0.02-0.11,0.08-0.12c0,0,0,0,0,0C239.8,221.14,239.84,221.15,239.87,221.19z"/>
<path class="st0" d="M244.42,218.8c0.68,0.8,1.39,1.57,2.15,2.3c0.75,0.73,1.52,1.45,2.29,2.15c0.78,0.7,1.56,1.4,2.36,2.08
	c0.8,0.68,1.6,1.35,2.44,2.01l0,0c0.04,0.03,0.05,0.09,0.02,0.14c-0.03,0.04-0.08,0.05-0.12,0.03c-0.99-0.42-1.94-0.94-2.81-1.57
	c-1.76-1.24-3.35-2.7-4.73-4.34c-0.71-0.82-1.3-1.73-1.77-2.7c-0.03-0.05-0.01-0.11,0.03-0.14
	C244.32,218.74,244.39,218.75,244.42,218.8L244.42,218.8L244.42,218.8z"/>
<path class="st0" d="M250.88,215.56c0.25-0.06,0.51-0.05,0.75,0.02c0.23,0.07,0.45,0.17,0.66,0.29c0.38,0.25,0.73,0.55,1.03,0.89
	c0.59,0.65,1.15,1.32,1.67,2.03c0.27,0.34,0.52,0.69,0.77,1.04l0.77,1.04c0.26,0.34,0.51,0.68,0.79,1c0.26,0.32,0.57,0.6,0.92,0.82
	l0,0c0.05,0.02,0.07,0.08,0.04,0.13c-0.02,0.04-0.07,0.06-0.11,0.05c-0.44-0.13-0.84-0.36-1.18-0.67c-0.34-0.28-0.66-0.58-0.97-0.9
	c-0.31-0.31-0.6-0.63-0.89-0.96c-0.28-0.33-0.58-0.65-0.85-0.98c-0.56-0.65-1.12-1.3-1.7-1.91c-0.29-0.3-0.59-0.59-0.86-0.87
	l-0.41-0.43c-0.15-0.14-0.3-0.27-0.46-0.39h-0.01c-0.05-0.03-0.06-0.1-0.02-0.15c0,0,0,0,0,0
	C250.83,215.58,250.85,215.56,250.88,215.56z"/>
<path class="st0" d="M304.08,210.11c3.56,2.9,6.38,17.91-0.59,19.11c-6.97,1.19-12.18-6.71-16.99-6.24
	c-4.81,0.47-3.55,11.74,2.26,18.54c3.24,4.41,9.39,9.69,19.9,7s16.98-16.93,16.48-19.3S315.52,207.71,304.08,210.11z"/>
<path class="st0" d="M167.18,172.22c-1.49,0.18-10.85-0.48-8.45,17.5c2.41,17.98,8.49,10.23,6.96,2.28c-1.48-7.89,0-9.49,3.9-12.89
	C170.24,174.92,167.18,172.22,167.18,172.22z"/>
<path class="st0" d="M128.33,203.54c0.73-0.57,3.83,1.05,4.02,2.6c0.19,1.55-0.16,4.15-1.63,4.47S126.74,204.79,128.33,203.54z"/>
<path class="st0" d="M148.9,152.1c0.63-0.63,7.63,8.66,6.61,10.27l-2.06,1.39C154.52,161.48,148.66,152.33,148.9,152.1z"/>
<path class="st0" d="M179.53,185c-1.65-0.07-1.24,6.01-3.85,7c-2.61,0.99-1.62-2.61-2.74-2.48s-5.75,4.66-4.06,8.61
	c1.7,3.95,11.51-1.27,13.5-6.12C184.38,187.15,181.39,185.08,179.53,185z"/>
<path class="st0" d="M193.58,194.74c1.87-4.97,10.19-15.41,14.79-15.16c4.6,0.25,14.46,5.28,16.28,12.69
	c1.82,7.4-4.97-3.49-11.68-5.11c-6.71-1.62-12.18,8.45-14.36,8.33C196.43,195.37,193.58,194.74,193.58,194.74z"/>
<path class="st0" d="M228.63,183.22c0.28,1.8,4.1,4.18,4.1,6.05s0.75,9.82,0,12.31c-0.75,2.48,4.48,5.06,5.97,5.45
	c1.49,0.39-2.98-8.56-2.61-10.55c0.37-1.99-1.86-10.02-2.98-11.48c-1.12-1.46-1.61-6.29,3.6-8.84c1.99-3.93,5.59-8.22,10.32-1.72
	c1.43,0,0.99-5.06,2.49-5.18c1.49-0.13,2.24,1.12,2.55-2.73s2.15-16.78-1.2-20.01C247.53,143.28,227.51,176.05,228.63,183.22z"/>
</svg>
